<?xml version="1.0" encoding="UTF-8" standalone="no"?>
<!-- Generator: Adobe Illustrator 18.1.1, SVG Export Plug-In . SVG Version: 6.00 Build 0)  -->

<svg
   xmlns:dc="http://purl.org/dc/elements/1.1/"
   xmlns:cc="http://creativecommons.org/ns#"
   xmlns:rdf="http://www.w3.org/1999/02/22-rdf-syntax-ns#"
   xmlns:svg="http://www.w3.org/2000/svg"
   xmlns="http://www.w3.org/2000/svg"
   xmlns:sodipodi="http://sodipodi.sourceforge.net/DTD/sodipodi-0.dtd"
   xmlns:inkscape="http://www.inkscape.org/namespaces/inkscape"
   version="1.1"
   id="Layer_1"
   x="0px"
   y="0px"
   viewBox="0 0 87.076691 364.90125"
   xml:space="preserve"
   inkscape:version="0.91 r13725"
   sodipodi:docname="blue_origin.svg"
   width="87.076691"
   height="364.90125"><metadata
     id="metadata27"><rdf:RDF><cc:Work
         rdf:about=""><dc:format>image/svg+xml</dc:format><dc:type
           rdf:resource="http://purl.org/dc/dcmitype/StillImage" /><dc:title></dc:title></cc:Work></rdf:RDF></metadata><defs
     id="defs25" /><sodipodi:namedview
     pagecolor="#ffffff"
     bordercolor="#666666"
     borderopacity="1"
     objecttolerance="10"
     gridtolerance="10"
     guidetolerance="10"
     inkscape:pageopacity="0"
     inkscape:pageshadow="2"
     inkscape:window-width="640"
     inkscape:window-height="480"
     id="namedview23"
     showgrid="false"
     fit-margin-top="0"
     fit-margin-left="0"
     fit-margin-right="0"
     fit-margin-bottom="0"
     inkscape:zoom="0.23046875"
     inkscape:cx="387.92173"
     inkscape:cy="221.83324"
     inkscape:window-x="0"
     inkscape:window-y="0"
     inkscape:window-maximized="0"
     inkscape:current-layer="Layer_1" /><g
     id="g3"
     transform="translate(-124.07827,-368.93198)"><path
       style="fill:#8ecbef"
       d="m 208.3,460 c -1.5,-7.1 -7.8,-8.5 -14.2,-8.5 -6.6,-0.1 -13.2,0 -19.8,0 -8.7,0 -17.3,0 -26,0 -4.8,0 -10.7,-0.7 -15.3,0.9 -9.3,3.3 -6.5,14.7 -5.7,22.2 0.6,4.8 0.6,9.6 0.6,14.4 0,15.3 0,30.6 0,46 0,15.1 0,30.3 0,45.4 0,4.9 0,9.8 1.3,14.6 2.9,11.1 11,20.8 21.4,25.7 0.3,0.1 0.6,0.2 0.8,0.4 -0.3,0.2 -0.5,0.4 -0.7,0.6 -2.7,2.7 -4,9.7 -5.4,13.3 -2.4,6.2 -4.9,12.3 -7.1,18.6 -1.8,5.2 1.6,9.3 7.1,9.9 7.6,0.8 15.4,1.6 23,1.6 7.6,0 15.1,-0.9 22.7,-1.6 0.2,0 0.3,0 0.4,-0.1 0.1,0 0.2,0 0.2,0 3.5,-0.5 7.1,-3.4 6.8,-7.3 -0.1,-1.6 -1,-3.4 -1.5,-4.8 -2.2,-6.4 -4.4,-12.8 -6.6,-19.1 -1.5,-4.3 -2.2,-9.6 -6.2,-11.7 13.4,-6.4 22.5,-19.9 22.7,-35.8 0.1,-11.9 0,-23.8 0,-35.8 0,-17.2 0,-34.3 0,-51.5 0,-4.2 0,-8.5 0,-12.7 0.2,-8.1 3.1,-16.9 1.5,-24.7 z m -75.4,23.6 c 0,0 0,-0.1 0,0 0,0 0,0.1 0,0.1 0,0 0,-0.1 0,-0.1 z m 0,0.9 c 0.5,-0.2 2.7,-1.2 3.4,-1.4 3.9,-1.1 8.1,-1.8 12.2,-2.1 -5.2,5.7 -10.4,11.5 -15.6,17.2 0,-4.2 0,-8.5 0,-12.7 0,-0.3 0,-0.7 0,-1 z M 189.6,645 c 0.9,2.7 1.9,5.4 2.8,8.1 0.9,2.6 2.3,4.6 -1.7,5.3 -11.3,1 -22.4,2 -33.7,1 -2.5,-0.2 -14,0.3 -14.6,-3 -0.1,-0.8 1.1,-2.9 1.3,-3.5 1,-2.5 1.9,-5 2.9,-7.6 1.9,-5 3.8,-9.9 5.7,-14.9 0.4,-0.9 0.7,-1.8 1.1,-2.8 1.3,-3.5 2.7,-3.2 5.8,-3.2 2.7,0 5.4,0 8.1,0 0,0 0.1,0 0.1,0 0,0 0,0 0,0 2.7,0 5.4,0 8.1,0 1.4,0 3.7,-0.5 5,0 2,0.7 2.9,2.7 3.5,4.6 1.8,5.4 3.8,10.7 5.6,16 z m 12.3,-60.1 c -0.2,12 -6.4,23.2 -16.8,29.4 -5.4,3.2 -11.5,4.8 -17.7,4.9 -0.3,0 -0.6,0.1 -0.8,0.2 -19.9,-0.8 -33.7,-17.1 -33.7,-36.6 0,-12.2 0,-24.4 0,-36.5 0,-13.6 0,-27.1 0,-40.7 7.5,-8.3 15.1,-16.6 22.6,-24.9 0,0 0.1,-0.1 0.1,-0.1 4,-0.1 7.9,-0.1 11.8,-0.2 4.2,0 8.6,-0.1 13,0 0.1,0.1 0.1,0.2 0.2,0.3 7.1,8.4 14.2,16.7 21.3,25.1 0,9.2 0,18.4 0,27.6 0,14.5 0,29.1 0,43.6 0,2.7 0.1,5.3 0,7.9 z m 0,-94.2 c 0,2.5 0,4.9 0,7.4 -4.9,-5.8 -9.7,-11.5 -14.6,-17.3 3.8,0.4 7.5,1 11,2 1,0.3 3.1,1.5 3.6,1.6 0,2.2 0,4.2 0,6.3 z m 1.7,-24.9 c -0.3,4.3 -1,8.5 -1.4,12.8 -4.8,-1.9 -11.9,-2.3 -14.2,-2.5 -13,-1.2 -26.4,-1 -39.5,0.1 -5,0.4 -11,0.7 -15.9,2.8 -0.4,-4.4 -1,-8.8 -1.3,-13.2 -0.3,-4.8 0.3,-8.5 5.7,-9.2 1.6,-0.2 3.2,-0.1 4.7,-0.1 6.4,0 12.8,0 19.2,0 8,0 16,0 24,0 4.2,0 8.6,-0.4 12.8,0.1 5.6,0.7 6.2,4.4 5.9,9.2 z"
       id="path5"
       inkscape:connector-curvature="0" /><path
       style="fill:#8ecbef"
       d="m 134.8,447.6 c 4.6,1.3 10.3,0.5 15,0.5 15.5,0 31,0 46.5,0 0.2,0 0.4,0 0.6,-0.1 23.2,-1.9 12.5,-36.8 6.5,-49.3 -8.2,-17.2 -26,-36.6 -46.9,-27.4 -19.7,8.6 -31.8,35.1 -32.4,55.6 -0.2,8.6 0.8,17.9 10.7,20.7 z M 131,414.7 c 2.6,-10 7.3,-19.8 13.9,-27.8 5.7,-6.8 13.3,-12.9 22.6,-12.9 9.3,0 17,6.1 22.6,12.9 7.4,8.9 12.4,20.1 14.7,31.4 1.7,8.3 3.7,24.2 -8.5,24.8 -10.6,0 -21.2,0 -31.8,0 -6.7,0 -13.4,0 -20.1,0 -5.2,0 -10.9,0.6 -13.9,-4.7 -3.6,-6 -1.1,-17.6 0.5,-23.7 z"
       id="path7"
       inkscape:connector-curvature="0" /><path
       style="fill:#8ecbef"
       d="m 172,433.6 c 0.2,0 0.4,0 0.6,-0.1 4.5,-0.6 8.4,-3.2 9.6,-7.9 0.8,-3 -0.1,-6.3 -0.4,-9.3 -0.8,-6.8 -0.1,-16.7 -7.4,-20.1 -7.4,-3.4 -18.4,-0.5 -19.8,8.2 -1,6 -2,12.5 -2.1,18.6 -0.2,11.2 11.6,10.6 19.5,10.6 z m -14.4,-12.1 c 0.2,-3.3 0.8,-6.6 1.1,-10 0.3,-2.4 0.1,-6 1.2,-8.2 1.7,-3.4 6.6,-3.5 10,-3.1 5.3,0.6 5.4,5 5.9,9.2 0.6,5.4 4.7,18.5 -3.9,19.2 -5.9,0 -14.8,1.5 -14.3,-7.1 z"
       id="path9"
       inkscape:connector-curvature="0" /><path
       style="fill:#8ecbef"
       d="m 164.9,504.3 c 0,26.4 0,52.8 0,79.2 0,3.8 0,7.7 0,11.5 0,3.2 5,3.2 5,0 0,-26.4 0,-52.8 0,-79.2 0,-3.8 0,-7.7 0,-11.5 0,-3.2 -5,-3.2 -5,0 z"
       id="path11"
       inkscape:connector-curvature="0" /><path
       style="fill:#8ecbef"
       d="m 143.9,567.8 c 0,7.9 0,15.8 0,23.8 0,3.2 5,3.2 5,0 0,-7.9 0,-15.8 0,-23.8 0,-3.3 -5,-3.3 -5,0 z"
       id="path13"
       inkscape:connector-curvature="0" /><path
       style="fill:#8ecbef"
       d="m 140.7,431.6 c -0.1,-10.8 1.6,-23.9 8,-33.1 1.8,-2.6 -2.5,-5.2 -4.3,-2.5 -6.9,9.9 -8.8,24 -8.6,35.6 0,3.2 5,3.2 4.9,0 z"
       id="path15"
       inkscape:connector-curvature="0" /><path
       style="fill:#8ecbef"
       d="m 195,431.6 c 0,3.2 5,3.2 5,0 0.1,-11.6 -1.8,-25.7 -8.6,-35.6 -1.8,-2.6 -6.2,-0.1 -4.3,2.5 6.3,9.2 8,22.3 7.9,33.1 z"
       id="path17"
       inkscape:connector-curvature="0" /><path
       style="fill:#8ecbef"
       d="m 186,567.8 c 0,7.9 0,15.8 0,23.8 0,3.2 5,3.2 5,0 0,-7.9 0,-15.8 0,-23.8 0,-3.3 -5,-3.3 -5,0 z"
       id="path19"
       inkscape:connector-curvature="0" /><path
       style="fill:#8ecbef"
       d="m 183.4,669.7 c -3.6,-1.8 -7.7,0.7 -11.1,1.9 -5.1,1.8 -8.9,0.7 -13.9,-0.9 -3.4,-1.1 -7.1,-1.5 -9.3,1.9 -7.4,11.3 2.4,74 24.3,58.9 5.2,-3.6 8,-10.4 9.9,-16.2 3.3,-10.2 4.4,-21 4.4,-31.7 0.1,-4.3 0.3,-11.6 -4.3,-13.9 z m -0.6,13.9 c -0.1,9.3 -0.9,18.6 -3.4,27.6 -1.5,5.4 -3.9,13.3 -9.1,16.4 -11.6,6.9 -16.9,-23.8 -17.5,-29.7 -0.5,-4.7 -0.8,-9.5 -0.7,-14.3 0,-1.7 -0.4,-7.8 1.6,-8.8 2.1,-1.1 8.4,2.4 10.8,2.7 4.5,0.6 8.3,-0.9 12.5,-2.4 1,-0.4 3.2,-1.6 4.3,-0.9 2.1,1.2 1.5,7.4 1.5,9.4 z"
       id="path21"
       inkscape:connector-curvature="0" /></g></svg>