<?xml version="1.0" encoding="UTF-8" standalone="no"?>
<!-- Generator: Adobe Illustrator 18.1.1, SVG Export Plug-In . SVG Version: 6.00 Build 0)  -->

<svg
   xmlns:dc="http://purl.org/dc/elements/1.1/"
   xmlns:cc="http://creativecommons.org/ns#"
   xmlns:rdf="http://www.w3.org/1999/02/22-rdf-syntax-ns#"
   xmlns:svg="http://www.w3.org/2000/svg"
   xmlns="http://www.w3.org/2000/svg"
   xmlns:sodipodi="http://sodipodi.sourceforge.net/DTD/sodipodi-0.dtd"
   xmlns:inkscape="http://www.inkscape.org/namespaces/inkscape"
   version="1.1"
   id="Layer_1"
   x="0px"
   y="0px"
   viewBox="0 0 68.356583 404.33322"
   xml:space="preserve"
   inkscape:version="0.91 r13725"
   sodipodi:docname="kosmokurs.svg"
   width="68.356583"
   height="404.33322"><metadata
     id="metadata13"><rdf:RDF><cc:Work
         rdf:about=""><dc:format>image/svg+xml</dc:format><dc:type
           rdf:resource="http://purl.org/dc/dcmitype/StillImage" /><dc:title></dc:title></cc:Work></rdf:RDF></metadata><defs
     id="defs11" /><sodipodi:namedview
     pagecolor="#ffffff"
     bordercolor="#666666"
     borderopacity="1"
     objecttolerance="10"
     gridtolerance="10"
     guidetolerance="10"
     inkscape:pageopacity="0"
     inkscape:pageshadow="2"
     inkscape:window-width="640"
     inkscape:window-height="480"
     id="namedview9"
     showgrid="false"
     fit-margin-top="0"
     fit-margin-left="0"
     fit-margin-right="0"
     fit-margin-bottom="0"
     inkscape:zoom="0.23046875"
     inkscape:cx="294.61875"
     inkscape:cy="195.83324"
     inkscape:window-x="0"
     inkscape:window-y="0"
     inkscape:window-maximized="0"
     inkscape:current-layer="Layer_1" /><g
     id="g3"
     transform="translate(-217.38125,-303.5)"><path
       style="fill:#818081"
       d="m 285.6,391.5 -1.9,-11.7 c -0.3,-1.9 -0.5,-3.8 -0.4,-5.7 0,-6.2 0,-21.5 0,-32 0,-7 -2.6,-13.7 -7.2,-18.9 L 262.7,308 c -2.6,-2.9 -6.4,-4.5 -10.3,-4.5 -3.9,0 -7.7,1.7 -10.3,4.6 l -12.9,14.5 c -4.6,5.2 -7.1,11.8 -7.2,18.7 -0.1,10.9 -0.1,26.9 -0.1,32.9 0,1.7 -0.1,3.5 -0.4,5.2 l -1.9,12.8 c -0.3,1.8 -0.1,3.6 0.5,5.3 l 5.5,15.1 c 0.9,2.6 1.4,5.2 1.4,8 l 0,155.5 c -0.8,-0.3 -1.8,-0.2 -2.7,0.2 -1.1,0.6 -1.8,1.7 -1.9,3 l -5,52.3 c -0.1,1 0.2,2 0.9,2.7 0.7,0.7 1.6,1.1 2.6,1.1 l 10,0 c 0,1.9 1.5,3.5 3.5,3.5 l 34.1,0.4 c 0,0 0,0 0,0 1.9,0 3.5,-1.5 3.5,-3.5 0,-0.2 0,-0.3 0,-0.4 l 10,0 c 1,0 1.9,-0.4 2.6,-1.1 0.7,-0.7 1,-1.7 0.9,-2.7 l -5,-52.5 c -0.1,-1.5 -1.2,-2.6 -2.5,-3 l 0,-155.4 c 0,-2.7 0.5,-5.3 1.4,-7.9 l 5.7,-15.9 c 0.6,-1.7 0.8,-3.6 0.5,-5.4 z m -34,240.7 -0.1,0 c 0,-0.1 0,-0.1 0,-0.2 0,-0.6 -0.2,-1.2 -0.4,-1.7 l -17,-40.7 0,-170.7 c 0,-1.3 1.1,-2.4 2.4,-2.4 l 32.1,0 c 1.3,0 2.4,1.1 2.4,2.4 l 0,165.9 -19.2,45.8 c -0.1,0.5 -0.2,1.1 -0.2,1.6 z m 18.9,-223.2 -35.9,0 c -1.7,0 -3.3,-1.1 -3.9,-2.7 l -3.2,-8.8 50,0 -3.2,8.8 c -0.5,1.6 -2.1,2.7 -3.8,2.7 z m 5.8,-40.1 c 0,2.1 -1.7,3.8 -3.8,3.8 l -19.8,0 c 8.3,-0.1 15.1,-7.1 14.6,-15.5 -0.4,-7.5 -6.6,-13.7 -14.1,-14 -8.5,-0.4 -15.5,6.4 -15.5,14.8 0,8.1 6.6,14.7 14.7,14.8 l -19.8,0 c -2.1,0 -3.8,-1.7 -3.8,-3.8 l 0,-31.1 c 0,-1.3 1,-2.3 2.3,-2.3 l 43,0 c 1.3,0 2.3,1 2.3,2.3 l 0,31 z m -23.8,-3.2 c -4.3,0 -7.8,-3.5 -7.8,-7.8 0,-4.3 3.5,-7.8 7.8,-7.8 4.3,0 7.8,3.5 7.8,7.8 0.1,4.3 -3.4,7.8 -7.8,7.8 z m -25.8,24.8 1.5,-8.9 c 0.2,-1.1 1.1,-1.9 2.2,-1.9 l 44.3,0 c 1.1,0 2,0.8 2.2,1.9 l 1.5,8.9 -51.7,0 z m 20.5,-77.6 c 1.3,-1.5 3.2,-2.3 5.1,-2.3 2,0 3.8,0.8 5.1,2.2 l 14.4,15.7 -38.7,0 14.1,-15.6 z m -19,280.8 14.6,34.8 -17.9,0 3.3,-34.8 z m 32.2,34.8 14.6,-34.8 3.3,34.8 -17.9,0 z"
       id="path5"
       inkscape:connector-curvature="0" /><path
       style="fill:#818081"
       d="m 267.2,643.7 c -3.6,-1.8 -7.7,0.7 -11.1,1.9 -5.1,1.8 -8.9,0.7 -13.9,-0.9 -3.4,-1.1 -7.1,-1.5 -9.3,1.9 -7.4,11.3 2.4,74 24.3,58.9 5.2,-3.6 8,-10.4 9.9,-16.2 3.3,-10.2 4.4,-21 4.4,-31.7 0.1,-4.3 0.3,-11.6 -4.3,-13.9 z m -4,41.5 c -1.5,5.4 -3.9,13.3 -9.1,16.4 -11.6,6.9 -16.9,-23.8 -17.5,-29.7 -0.5,-4.7 -0.8,-9.5 -0.7,-14.3 0,-1.7 -0.4,-7.8 1.6,-8.8 2.1,-1.1 8.4,2.4 10.8,2.7 4.5,0.6 8.3,-0.9 12.5,-2.4 1,-0.4 3.2,-1.6 4.3,-0.9 2.1,1.3 1.5,7.5 1.6,9.4 -0.2,9.3 -1,18.6 -3.5,27.6 z"
       id="path7"
       inkscape:connector-curvature="0" /></g></svg>