<?xml version="1.0" encoding="UTF-8" standalone="no"?>
<!-- Generator: Adobe Illustrator 18.1.1, SVG Export Plug-In . SVG Version: 6.00 Build 0)  -->

<svg
   xmlns:dc="http://purl.org/dc/elements/1.1/"
   xmlns:cc="http://creativecommons.org/ns#"
   xmlns:rdf="http://www.w3.org/1999/02/22-rdf-syntax-ns#"
   xmlns:svg="http://www.w3.org/2000/svg"
   xmlns="http://www.w3.org/2000/svg"
   xmlns:sodipodi="http://sodipodi.sourceforge.net/DTD/sodipodi-0.dtd"
   xmlns:inkscape="http://www.inkscape.org/namespaces/inkscape"
   version="1.1"
   id="Layer_1"
   x="0px"
   y="0px"
   viewBox="0 0 135.5 428.61047"
   xml:space="preserve"
   inkscape:version="0.91 r13725"
   sodipodi:docname="spacex.svg"
   width="135.5"
   height="428.61047"><metadata
     id="metadata19"><rdf:RDF><cc:Work
         rdf:about=""><dc:format>image/svg+xml</dc:format><dc:type
           rdf:resource="http://purl.org/dc/dcmitype/StillImage" /><dc:title></dc:title></cc:Work></rdf:RDF></metadata><defs
     id="defs17" /><sodipodi:namedview
     pagecolor="#ffffff"
     bordercolor="#666666"
     borderopacity="1"
     objecttolerance="10"
     gridtolerance="10"
     guidetolerance="10"
     inkscape:pageopacity="0"
     inkscape:pageshadow="2"
     inkscape:window-width="640"
     inkscape:window-height="480"
     id="namedview15"
     showgrid="false"
     fit-margin-top="0"
     fit-margin-left="0"
     fit-margin-right="0"
     fit-margin-bottom="0"
     inkscape:zoom="0.23046875"
     inkscape:cx="-353.2"
     inkscape:cy="-63.689524"
     inkscape:window-x="0"
     inkscape:window-y="0"
     inkscape:window-maximized="0"
     inkscape:current-layer="Layer_1" /><g
     id="g3"
     transform="translate(-865.2,-19.7)"><circle
       style="fill:#f26868"
       cx="932.70001"
       cy="43.299999"
       r="4.0999999"
       id="circle5" /><path
       style="fill:#f26868"
       d="m 1000.7,358.7 0,-46.7 c 0,-3.8 -1.3,-7.6 -3.7,-10.5 l -0.2,-0.3 0,-113.9 c 0,-3 -0.7,-5.9 -1.9,-8.6 l -8,-17 c -1.4,-2.9 -4.2,-4.9 -7.4,-5 -3.4,-0.1 -6.4,1.7 -7.9,4.8 l -8.1,17.2 c -0.4,0.9 -0.8,1.8 -1.1,2.8 l -12.4,0 0,-70.6 c 3.3,-2.6 5.5,-6.7 5.5,-11.3 l -0.1,-36.7 c 0,-1.7 -0.2,-3.5 -0.6,-5.2 l -5.9,-26 c -1.7,-7 -7.9,-12 -15.2,-12 l -2.7,0 c -7.2,0 -13.5,4.9 -15.2,12 l -6,26.5 c -0.3,1.4 -0.5,2.8 -0.5,4.2 l -0.1,37.2 c 0,5 2.6,9.5 6.6,12 l 0,69.8 -12.3,0 c -0.3,-0.9 -0.6,-1.9 -1.1,-2.8 l -8,-17 c -1.4,-2.9 -4.2,-4.9 -7.4,-5 -3.4,-0.1 -6.4,1.7 -7.9,4.8 l -8.1,17.2 c -1.3,2.7 -1.9,5.7 -1.9,8.7 l 0,114.3 c -2.5,3 -3.9,6.8 -3.9,10.8 l 0,46.3 c 0,5.8 3.4,10.9 8.4,13.3 -2.7,0.5 -4.9,2.7 -5.4,5.6 l -1.9,12.1 c -0.4,2.7 0.8,5.4 3.3,6.9 1,0.6 2.2,0.9 3.5,0.9 l 5.4,0 c 1,0.7 2.2,1.1 3.4,1.1 l 10.2,0 c 1.2,0 2.4,-0.4 3.4,-1.1 l 4.7,0 c 1.5,0 2.9,-0.4 4.1,-1.2 2.1,-1.5 3.1,-4 2.8,-6.5 l -1.9,-12.1 c -0.4,-2.9 -2.6,-5 -5.4,-5.6 4.9,-2.4 8.4,-7.4 8.4,-13.3 l 0,-46.8 c 0,-3.8 -1.3,-7.6 -3.7,-10.6 l -0.2,-0.2 0,-112.8 11.4,0 0,112.6 -0.2,0.2 c -2.7,3.1 -4.2,7.1 -4.2,11.2 l 0,46.3 c 0,5.8 3.4,10.9 8.4,13.3 -2.7,0.5 -4.9,2.7 -5.4,5.6 l -1.8,12 c -0.2,1.2 -0.1,2.4 0.3,3.5 1.1,2.7 3.6,4.3 6.3,4.3 l 5.5,0 c 1,0.7 2.2,1.1 3.4,1.1 l 10.2,0 c 1.2,0 2.4,-0.4 3.4,-1.1 l 4.7,0 c 1.2,0 2.4,-0.3 3.5,-0.9 2.5,-1.5 3.7,-4.2 3.3,-6.8 l -1.9,-12.1 c -0.4,-2.9 -2.6,-5 -5.4,-5.6 4.9,-2.4 8.4,-7.4 8.4,-13.3 l 0,-46.7 c 0,-3.8 -1.3,-7.6 -3.7,-10.5 l -0.7,-0.9 0,-112.2 11.5,0 0,113.2 c -2.5,3 -3.9,6.8 -3.9,10.8 l 0,46.3 c 0,5.8 3.4,10.9 8.4,13.3 -2.7,0.5 -4.9,2.7 -5.4,5.6 l -1.8,12 c -0.2,1.2 -0.1,2.4 0.3,3.5 1.1,2.7 3.6,4.3 6.3,4.3 l 5.5,0 c 1,0.7 2.2,1.1 3.4,1.1 l 10.2,0 c 1.2,0 2.4,-0.4 3.4,-1.1 l 4.7,0 c 1.2,0 2.4,-0.3 3.5,-0.9 2.5,-1.5 3.7,-4.2 3.3,-6.8 l -1.9,-12.1 c -0.4,-2.9 -2.6,-5 -5.4,-5.6 5.4,-2.4 8.8,-7.5 8.8,-13.3 z M 923.6,33.5 c 0.8,-3.5 3.9,-5.9 7.5,-5.9 l 2.7,0 c 3.6,0 6.6,2.4 7.5,5.9 l 4.7,21.3 c 0.6,2.6 -1.4,5 -4,5 l -19,0 c -2.6,0 -4.6,-2.4 -4,-5 l 4.6,-21.3 z m -32.6,345.1 1.7,12.8 c 0,0 0,0 0,0 l -10.8,0 c 0,0 0,0 0,0 l 1.7,-12.8 c 0.1,-0.5 0.3,-0.7 0.3,-0.7 l 6.9,0 c -0.1,0 0.1,0.2 0.2,0.7 z m -18.4,12.5 c -0.1,-0.1 -0.2,-0.3 -0.2,-0.6 l 1.9,-12.1 c 0.1,-0.3 0.3,-0.6 0.7,-0.6 l 2.5,0 -1.7,12.7 c 0,0.3 -0.1,0.5 -0.1,0.8 l -2.7,0 c -0.1,0.1 -0.3,-0.1 -0.4,-0.2 z m 28.6,0 c -0.1,0.1 -0.3,0.2 -0.5,0.2 l -2,0 c 0,-0.3 0,-0.5 -0.1,-0.8 l -1.7,-12.7 1.8,0 c 0.3,0 0.6,0.3 0.7,0.6 l 1.9,12.1 c 0.1,0.3 0,0.5 -0.1,0.6 z m 1.2,-32.4 c 0,4.8 -3.9,8.8 -8.8,8.8 l -13.5,0 c -4.8,0 -8.8,-3.9 -8.8,-8.8 l 0,-46.3 c 0,-2.5 0.9,-4.9 2.4,-6.9 l 7.6,48 0,0.2 c 0.6,2.6 2.8,4.4 5.5,4.4 2.6,0 4.9,-1.7 5.5,-4.3 l 8,-48 c 1.3,1.8 1.9,4 1.9,6.2 l 0,46.7 z m -4.9,-59.8 c -0.1,0 -0.1,0 -0.2,0.1 l -0.4,0 c 0.1,0 0.1,0.1 0.2,0.2 -1.1,0.7 -2,1.9 -2.2,3.3 l -7.9,47.7 -7.6,-47.8 c -0.3,-1.8 -1.5,-3.2 -3.1,-3.9 l 0,-111.2 c 0,-1.9 0.4,-3.9 1.3,-5.7 l 8.1,-17.2 c 0.3,-0.7 0.9,-0.8 1.2,-0.8 0.3,0 0.9,0.1 1.2,0.8 l 8,17 -11,0 c -1.9,0 -3.5,1.6 -3.5,3.5 0,1.9 1.6,3.5 3.5,3.5 l 12.4,0 0,110.5 z m 18.8,-199.4 0,-28.5 c 0,-2.1 1.7,-3.8 3.8,-3.8 l 24.7,0 c 2.1,0 3.8,1.7 3.8,3.8 l 0,28.6 c 0,4.1 -3.3,7.3 -7.3,7.3 l -17.5,0 c -4.2,0 -7.5,-3.3 -7.5,-7.4 z m 5.6,14.3 c 0.6,0.1 1.2,0.1 1.8,0.1 l 17.5,0 c 1,0 1.9,-0.1 2.9,-0.3 l 0,67.8 -22.2,0 0,-67.6 z m 15.2,264.8 1.7,12.8 c 0,0 0,0 0,0 l -10.8,0 c 0,0 0,0 0,0 l 1.7,-12.8 c 0.1,-0.5 0.3,-0.7 0.3,-0.7 l 6.9,0 c -0.1,0 0.1,0.2 0.2,0.7 z m -18.4,12.5 c -0.1,-0.1 -0.2,-0.3 -0.2,-0.6 l 1.9,-12.1 c 0.1,-0.3 0.3,-0.6 0.7,-0.6 l 2.5,0 -1.7,12.7 c 0,0.3 -0.1,0.5 -0.1,0.8 l -2.7,0 c -0.1,0.1 -0.3,-0.1 -0.4,-0.2 z m 28.6,0 c -0.1,0.1 -0.3,0.2 -0.5,0.2 l -2,0 c 0,-0.3 0,-0.5 -0.1,-0.8 l -1.7,-12.7 1.8,0 c 0.4,0 0.6,0.3 0.7,0.6 l 1.9,12.1 c 0.1,0.3 0,0.5 -0.1,0.6 z m 1.2,-32.4 c 0,4.8 -3.9,8.8 -8.8,8.8 l -13.5,0 c -4.8,0 -8.8,-3.9 -8.8,-8.8 l 0,-46.3 c 0,-2.5 0.9,-4.9 2.4,-6.9 l 7.6,48 0,0.2 c 0.6,2.6 2.8,4.4 5.5,4.4 2.6,0 4.9,-1.7 5.5,-4.3 l 8,-48 c 1.3,1.8 1.9,4 1.9,6.2 l 0,46.7 z m -4.4,-60 c -1.6,0.6 -2.8,2 -3.1,3.8 l -7.9,47.7 -7.6,-47.8 c -0.3,-2 -1.8,-3.5 -3.6,-4 l 0,-110 22.2,0 0,110.3 z m 35.8,-110.3 c 1.9,0 3.5,-1.6 3.5,-3.5 0,-1.9 -1.6,-3.5 -3.5,-3.5 l -9.9,0 8,-17 c 0.3,-0.7 0.9,-0.8 1.2,-0.8 0.3,0 0.9,0.1 1.2,0.8 l 8.1,17.2 c 0.8,1.8 1.3,3.7 1.3,5.7 l 0,111.7 c -0.1,0 -0.1,0 -0.2,0.1 l -0.4,0 c 0.1,0 0.1,0.1 0.2,0.2 -1.1,0.7 -2,1.9 -2.2,3.3 l -7.9,47.7 -7.6,-47.8 c -0.3,-1.8 -1.5,-3.2 -3.1,-3.9 l 0,-110.2 11.3,0 z m 3.4,190.2 1.7,12.8 c 0,0 0,0 0,0 l -10.8,0 c 0,0 0,0 0,0 l 1.7,-12.8 c 0.1,-0.5 0.3,-0.7 0.3,-0.7 l 6.9,0 c -0.1,0 0.1,0.2 0.2,0.7 z m -18.4,12.5 c -0.1,-0.1 -0.2,-0.3 -0.2,-0.6 l 1.9,-12.1 c 0.1,-0.3 0.3,-0.6 0.7,-0.6 l 2.5,0 -1.7,12.7 c 0,0.3 -0.1,0.5 -0.1,0.8 l -2.7,0 c -0.1,0.1 -0.3,-0.1 -0.4,-0.2 z m 28.6,0 c -0.1,0.1 -0.3,0.2 -0.5,0.2 l -2,0 c 0,-0.3 0,-0.5 -0.1,-0.8 l -1.7,-12.7 1.8,0 c 0.4,0 0.6,0.3 0.7,0.6 l 1.9,12.1 c 0.1,0.3 0,0.5 -0.1,0.6 z m 1.2,-32.4 c 0,4.8 -3.9,8.8 -8.8,8.8 l -13.5,0 c -4.8,0 -8.8,-3.9 -8.8,-8.8 l 0,-46.3 c 0,-2.5 0.9,-4.9 2.4,-6.9 l 7.6,48 0,0.2 c 0.6,2.6 2.8,4.4 5.5,4.4 2.6,0 4.9,-1.7 5.5,-4.3 l 8,-48 c 1.3,1.8 1.9,4 1.9,6.2 l 0,46.7 z"
       id="path7"
       inkscape:connector-curvature="0" /><path
       style="fill:#f26868"
       d="m 895.9,401.5 c -3.9,-0.3 -6.9,2.9 -10.9,2.1 -3.1,-0.6 -6.5,-3.1 -9.4,-0.5 -4.1,3.6 -2.4,13.1 -1.9,17.6 0.8,7 3.9,26 14.9,23.9 4.3,-0.8 6.8,-5.2 8.4,-8.9 3.2,-7.5 4.1,-15.9 4.1,-24 0,-3.8 -0.2,-9.8 -5.2,-10.2 z m -1.6,26.4 c -0.9,3.6 -2.1,8.6 -5.3,10.9 -6.5,4.8 -10,-14.8 -10.3,-18.2 -0.3,-2.7 -0.4,-5.4 -0.4,-8 0,-0.9 -0.3,-5.3 0.5,-5.7 0.7,-0.5 5.5,1.7 6.5,1.8 2.6,0.3 4.8,-0.3 7.2,-1.2 0.6,-0.2 2.4,-1.3 2.9,-1 0.6,0.3 0.6,4.2 0.6,5.2 0.1,5.5 -0.3,10.9 -1.7,16.2 z"
       id="path9"
       inkscape:connector-curvature="0" /><path
       style="fill:#f26868"
       d="m 944.6,402.1 c -2.5,-1.4 -5.2,0 -7.5,0.9 -4,1.5 -6.4,0.7 -10.4,-0.4 -2.6,-0.8 -5.2,-0.8 -6.9,1.7 -5.6,8.2 1.2,52.7 17.5,42.5 3.9,-2.4 6,-7.3 7.4,-11.4 2.5,-7.3 3.2,-15.2 3.3,-22.9 -0.2,-3.4 0,-8.5 -3.4,-10.4 z m -3.8,28.5 c -1,3.7 -2.4,9 -5.6,11.5 -7.2,5.5 -11.1,-15.6 -11.5,-19.2 -0.4,-2.9 -0.5,-5.8 -0.5,-8.7 0,-1.1 -0.4,-6.5 0.8,-7.2 0.9,-0.5 5.5,1.7 6.7,1.9 2.9,0.5 5.4,-0.2 8.2,-1.2 0.6,-0.2 2.6,-1.4 3.2,-1.1 1.2,0.5 0.9,4.8 0.9,5.9 -0.2,6 -0.7,12.1 -2.2,18.1 z"
       id="path11"
       inkscape:connector-curvature="0" /><path
       style="fill:#f26868"
       d="m 987.9,401.5 c -3.9,-0.3 -6.9,2.9 -10.9,2.1 -3.1,-0.6 -6.5,-3.1 -9.4,-0.5 -4.1,3.6 -2.4,13.1 -1.9,17.6 0.8,7 3.9,26 14.9,23.9 4.3,-0.8 6.8,-5.2 8.4,-8.9 3.2,-7.5 4.1,-15.9 4.1,-24 0,-3.8 -0.2,-9.8 -5.2,-10.2 z m -1.6,26.4 c -0.9,3.6 -2.1,8.6 -5.3,10.9 -6.5,4.8 -10,-14.8 -10.3,-18.2 -0.3,-2.7 -0.4,-5.4 -0.4,-8 0,-0.9 -0.3,-5.3 0.5,-5.7 0.7,-0.5 5.5,1.7 6.5,1.8 2.6,0.3 4.8,-0.3 7.2,-1.2 0.6,-0.2 2.4,-1.3 2.9,-1 0.6,0.3 0.6,4.2 0.6,5.2 0.1,5.5 -0.4,10.9 -1.7,16.2 z"
       id="path13"
       inkscape:connector-curvature="0" /></g></svg>