<?xml version="1.0" encoding="UTF-8" standalone="no"?>
<!-- Generator: Adobe Illustrator 18.1.1, SVG Export Plug-In . SVG Version: 6.00 Build 0)  -->

<svg
   xmlns:dc="http://purl.org/dc/elements/1.1/"
   xmlns:cc="http://creativecommons.org/ns#"
   xmlns:rdf="http://www.w3.org/1999/02/22-rdf-syntax-ns#"
   xmlns:svg="http://www.w3.org/2000/svg"
   xmlns="http://www.w3.org/2000/svg"
   xmlns:sodipodi="http://sodipodi.sourceforge.net/DTD/sodipodi-0.dtd"
   xmlns:inkscape="http://www.inkscape.org/namespaces/inkscape"
   version="1.1"
   id="Layer_1"
   x="0px"
   y="0px"
   viewBox="0 0 101.99229 441.49536"
   xml:space="preserve"
   inkscape:version="0.91 r13725"
   sodipodi:docname="space_adventures_soyuz.svg"
   width="101.99229"
   height="441.49536"><metadata
     id="metadata19"><rdf:RDF><cc:Work
         rdf:about=""><dc:format>image/svg+xml</dc:format><dc:type
           rdf:resource="http://purl.org/dc/dcmitype/StillImage" /><dc:title></dc:title></cc:Work></rdf:RDF></metadata><defs
     id="defs17" /><sodipodi:namedview
     pagecolor="#ffffff"
     bordercolor="#666666"
     borderopacity="1"
     objecttolerance="10"
     gridtolerance="10"
     guidetolerance="10"
     inkscape:pageopacity="0"
     inkscape:pageshadow="2"
     inkscape:window-width="640"
     inkscape:window-height="480"
     id="namedview15"
     showgrid="false"
     fit-margin-top="0"
     fit-margin-left="0"
     fit-margin-right="0"
     fit-margin-bottom="0"
     inkscape:zoom="0.23046875"
     inkscape:cx="121.06188"
     inkscape:cy="317.19537"
     inkscape:window-x="0"
     inkscape:window-y="0"
     inkscape:window-maximized="0"
     inkscape:current-layer="Layer_1" /><g
     id="g3"
     transform="translate(-390.93812,-387.7)"><path
       style="fill:#7565ad"
       d="m 418.7,776.7 c -4,0.2 -6.7,4.5 -10.8,5.1 -3.3,0.5 -6.9,-1.3 -9.5,1.5 -4,4.1 -2.4,13.4 -1.8,18.4 0.8,6.5 4.3,24.1 14.8,20.3 4.4,-1.6 6.8,-6.6 8.4,-10.6 3.1,-7.9 4.1,-16.6 4.1,-25.1 -0.1,-3.7 -0.2,-9.9 -5.2,-9.6 z m 0.2,9.5 c -0.1,9.1 -0.7,21.6 -6.9,29 -6.4,7.7 -9.9,-9.2 -10.4,-13.1 -0.4,-2.6 -0.5,-5.3 -0.5,-8 0,-1.7 -0.6,-5.6 0.7,-6.8 1.4,-1.4 4.2,-0.3 6.2,-0.5 2.6,-0.2 4.8,-1.2 7,-2.5 0.8,-0.5 2.5,-2.2 3.4,-2.2 0.2,0 0.3,0 0.4,-0.1 0.2,0.8 0.1,3.7 0.1,4.2 z"
       id="path5"
       inkscape:connector-curvature="0" /><path
       style="fill:#7565ad"
       d="m 456.2,775.1 c -2.9,-1.6 -6.2,0.2 -9,1.2 -4.7,1.7 -7.7,0.7 -12.3,-0.7 -2.9,-0.9 -5.9,-1 -7.7,1.9 -6.4,9.7 2,62.8 20.7,49.6 4.3,-3 6.6,-8.6 8.2,-13.5 2.8,-8.6 3.7,-17.7 3.7,-26.7 0.1,-3.6 0.3,-9.7 -3.6,-11.8 z m -1.3,11.9 c -0.1,7.6 -0.7,15.3 -2.8,22.7 -1.2,4.4 -3,10.5 -7,13.3 -9,6.3 -13.6,-18.9 -14.2,-23.5 -0.4,-3.5 -0.6,-7.1 -0.6,-10.6 0,-1.6 -0.5,-7.6 1,-8.7 1.2,-0.9 6.8,1.9 8.4,2.1 3.7,0.6 6.8,-0.4 10.2,-1.7 0.8,-0.3 2.9,-1.5 3.7,-1.1 1.8,0.7 1.3,6.1 1.3,7.5 z"
       id="path7"
       inkscape:connector-curvature="0" /><path
       style="fill:#7565ad"
       d="m 484.3,780.8 c -4,-1 -7.2,1.1 -11.3,-1.1 -2.7,-1.5 -6.1,-4.6 -9.1,-2.2 -4.2,3.3 -2.4,13 -1.9,17.3 0.8,7.5 3.8,27.6 14.9,27.1 11.8,-0.4 12.4,-22.5 12.5,-30.1 -0.1,-4 -0.3,-9.7 -5.1,-11 z m 0.1,11.1 c -0.1,5.5 -0.5,11 -2,16.4 -0.7,2.4 -2.2,7.9 -5.2,8.6 -3.2,0.8 -5.5,-4.5 -6.5,-6.7 -2.2,-5 -3.3,-10.7 -3.8,-16.2 -0.3,-2.7 -0.4,-5.5 -0.3,-8.2 0,-1.1 0.1,-2.3 0.3,-3.4 0,-0.2 0,-0.4 0.1,-0.5 2.2,0.4 4.6,2.9 6.7,3.7 2.3,0.8 4.5,0.7 6.9,0.4 0.7,-0.1 2.2,-0.5 2.9,-0.1 1.2,0.7 0.8,4.7 0.9,6 z"
       id="path9"
       inkscape:connector-curvature="0" /><path
       style="fill:#7565ad"
       d="m 492.9,765.8 0,-0.2 L 463,609.8 c -0.1,-0.6 -0.3,-1.2 -0.8,-1.7 l 0,-61.8 0,-45.5 0,-29.1 c 2.2,-1.8 3.6,-4.4 3.6,-7.4 l 0,-31 c 0,-7.3 -2.2,-14.4 -6.3,-20.5 l -11.4,-21.6 -0.2,-0.3 c -1.4,-2 -3.7,-3.2 -6.2,-3.2 -2.5,0 -4.8,1.2 -6.2,3.2 l -11.6,22 c -4.1,6.1 -6.3,13.2 -6.3,20.5 l 0,31 c 0,3 1.4,5.7 3.6,7.4 l 0,29.1 0,45.5 0,62.4 c -0.2,0.3 -0.3,0.7 -0.4,1.1 l -29.8,155.6 0,0.3 c -0.3,2.5 0.5,4.9 2.2,6.7 1.6,1.8 3.9,2.8 6.3,2.8 l 0.3,0 16.8,-3.1 c 2.8,-0.1 5.3,-1.6 6.8,-3.9 1.8,1.8 4.3,2.8 6.9,2.8 l 25,0 c 2.2,0 4.2,-0.7 6,-2 1.5,1.8 3.7,3 6.2,3.1 l 16.8,3.1 0.3,0 c 2.4,0 4.7,-1 6.3,-2.8 1.4,-1.7 2.2,-4.2 2,-6.7 z M 424.7,433.2 c 0,-6 1.8,-11.8 5.2,-16.7 l 11.6,-21.9 c 0.1,-0.1 0.5,-0.1 0.6,0 l 11.4,21.5 0.2,0.3 c 3.4,4.9 5.2,10.7 5.2,16.7 l 0,31 c 0,1.4 -1.2,2.6 -2.6,2.6 l -29,0 c -1.4,0 -2.6,-1.2 -2.6,-2.6 l 0,-30.9 z m 17,102.4 -13.5,2.4 0,-30.1 27,0 0,30.1 -13.5,-2.4 z m 13.5,9.5 0,58.8 c -0.5,-0.3 -1,-0.4 -1.4,-0.6 -1.2,-1.6 -3.9,-1.9 -6.3,-2.2 -1.9,-0.2 -4.2,-0.4 -4.9,-0.4 -0.7,0 -3,0.2 -4.9,0.4 -2.2,0.3 -4.5,0.5 -5.9,1.7 -0.5,0 -1.4,0.2 -3.6,1.3 l 0,-58.9 13.5,-2.4 13.5,2.3 z m -27,-44.3 0,-27 27,0 0,27 -27,0 z m -10.5,262.6 0,0.2 c 0,0.9 -0.7,1.7 -1.5,1.7 l -0.3,0 -16.6,3.1 c -0.4,-0.1 -0.7,-0.3 -0.9,-0.5 -0.2,-0.2 -0.5,-0.6 -0.4,-1.2 l 29.6,-154.3 c 0.2,-0.1 0.5,-0.3 0.8,-0.5 l -10.7,151.5 z m 39.6,-0.2 c -0.6,0.6 -1.3,0.9 -2.1,0.9 l -25,0 c -0.8,0 -1.6,-0.3 -2.1,-0.9 -0.6,-0.6 -0.8,-1.4 -0.8,-2.2 l 10.3,-153 c 1.8,-0.3 4.4,-0.5 5.1,-0.5 0.7,0 3.3,0.2 5.1,0.5 l 10.4,152.9 c 0,1 -0.3,1.7 -0.9,2.3 z m 28.2,4.7 c -0.1,0.2 -0.4,0.4 -0.9,0.5 l -16.6,-3.1 -0.3,0 c -0.8,0 -1.5,-0.7 -1.5,-1.7 l 0,-0.1 -10.6,-151.6 c 0.3,0.2 0.5,0.3 0.8,0.5 L 486,766.7 c 0,0.6 -0.3,1 -0.5,1.2 z"
       id="path11"
       inkscape:connector-curvature="0" /><path
       style="fill:#7565ad"
       d="m 432.1,432.2 19.5,0 c 1.9,0 3.5,-1.6 3.5,-3.5 0,-1.9 -1.6,-3.5 -3.5,-3.5 l -19.5,0 c -1.9,0 -3.5,1.6 -3.5,3.5 0,1.9 1.6,3.5 3.5,3.5 z"
       id="path13"
       inkscape:connector-curvature="0" /></g></svg>