<?xml version="1.0" encoding="UTF-8" standalone="no"?>
<!-- Generator: Adobe Illustrator 18.1.1, SVG Export Plug-In . SVG Version: 6.00 Build 0)  -->

<svg
   xmlns:dc="http://purl.org/dc/elements/1.1/"
   xmlns:cc="http://creativecommons.org/ns#"
   xmlns:rdf="http://www.w3.org/1999/02/22-rdf-syntax-ns#"
   xmlns:svg="http://www.w3.org/2000/svg"
   xmlns="http://www.w3.org/2000/svg"
   xmlns:sodipodi="http://sodipodi.sourceforge.net/DTD/sodipodi-0.dtd"
   xmlns:inkscape="http://www.inkscape.org/namespaces/inkscape"
   version="1.1"
   id="Layer_1"
   x="0px"
   y="0px"
   viewBox="0 0 404.51276 327.27539"
   enable-background="new 0 0 1024 1024"
   xml:space="preserve"
   inkscape:version="0.91 r13725"
   sodipodi:docname="virgin_galactic.svg"
   width="404.51276"
   height="327.27539"><metadata
     id="metadata31"><rdf:RDF><cc:Work
         rdf:about=""><dc:format>image/svg+xml</dc:format><dc:type
           rdf:resource="http://purl.org/dc/dcmitype/StillImage" /><dc:title></dc:title></cc:Work></rdf:RDF></metadata><defs
     id="defs29" /><sodipodi:namedview
     pagecolor="#ffffff"
     bordercolor="#666666"
     borderopacity="1"
     objecttolerance="10"
     gridtolerance="10"
     guidetolerance="10"
     inkscape:pageopacity="0"
     inkscape:pageshadow="2"
     inkscape:window-width="640"
     inkscape:window-height="480"
     id="namedview27"
     showgrid="false"
     fit-margin-top="0"
     fit-margin-left="0"
     fit-margin-right="0"
     fit-margin-bottom="0"
     inkscape:zoom="0.23046875"
     inkscape:cx="-89.141208"
     inkscape:cy="166"
     inkscape:window-x="0"
     inkscape:window-y="0"
     inkscape:window-maximized="0"
     inkscape:current-layer="Layer_1" /><g
     id="g3"
     transform="translate(-601.14121,-350.7246)"><path
       d="m 754.6,513.9 c 2.8,0.5 6.1,-0.9 8.9,-2.5 0,0.8 0,1.6 0,2.4 0,2.1 0,4.3 2.3,5.3 3.5,1.4 4.9,-1.8 5.1,-4.6 0.6,-9.8 1,-19.7 1.5,-29.5 0.3,-5.2 0.5,-10.5 0.8,-15.7 0.1,-1.9 -0.4,-5.5 0.4,-7.3 1.3,-3 9.8,-4 12.7,-4.7 0.9,-0.2 1.8,-0.3 2.8,-0.4 0.3,4.7 1.3,10.1 3.8,13.7 0.6,0.9 1.4,1.6 2.2,2.3 0.4,0.3 0.9,0.8 1.3,1.1 -0.4,1.7 -1.2,3.4 -1.7,5 -0.8,2.6 -3,6.8 0.8,8.1 3,1 7.6,0.1 10.8,0.2 2.9,0 6.7,0.3 6.4,-3.8 -0.1,-1.3 -0.8,-2.8 -1.2,-4.1 -0.5,-1.6 -0.9,-4.2 -1.7,-5.8 0.7,-0.3 1.9,-1.4 2.2,-1.8 1.8,-1.9 2.8,-4.9 3.5,-7.3 0.6,-2.2 0.9,-4.5 1,-6.8 5.6,0.4 16,2.1 17.1,7.5 0.7,3.3 0.2,7.1 0.4,10.4 0.4,11.1 0.7,22.2 1.1,33.2 0.1,2.2 -0.2,4.8 0.2,6.9 0.9,4.6 6.7,4.4 7.3,-0.2 0.2,-1.2 0.3,-2.5 0.3,-3.8 2.6,1.5 5.6,2.7 8.2,2.4 5.1,-0.6 4.1,-6.4 4.1,-10.1 0,-4.2 -2.3,-7 -4.6,-10.4 -2.6,-3.7 -5.3,-7.4 -8,-10.9 0,-16.7 0,-33.3 0,-50 0,-5.4 1,-11.1 -3.1,-15.3 -6.1,-6.2 -12.6,-12.8 -19.4,-18.2 -0.5,-0.4 -1.8,-0.9 -2.1,-1.4 0.1,0.2 1.1,0.7 1.1,0.2 0,-1.2 -0.6,-2.7 -0.9,-3.8 -1.2,-5.2 -2.3,-10.4 -3.5,-15.6 -1.2,-5.4 -2.4,-10.8 -3.6,-16.2 -0.6,-2.5 -0.8,-5.7 -2.1,-8.1 -2.5,-4.7 -9.6,-4.8 -12.2,-0.1 -1.3,2.4 -1.6,5.7 -2.3,8.3 -2.6,10.5 -5.2,21 -7.7,31.5 -0.8,3.4 -1.3,6.2 -3.9,8.7 -3.5,3.4 -7.3,6.5 -11,9.8 -3,2.7 -7.3,5.4 -8.1,9.7 -0.4,1.8 -0.2,3.7 -0.2,5.5 0,18.3 0,36.5 0,54.8 -2.7,3.5 -5.3,7 -7.8,10.6 -2.4,3.5 -4.9,6.5 -4.9,10.8 -0.1,3.5 -1,9.1 3.7,10 z M 850.1,502 c 0.1,0.2 0.4,7 0.2,7.2 -0.6,0.6 -5,-1.9 -7.4,-3.4 -0.1,-4.9 -0.2,-9.9 -0.3,-14.8 0.1,0.2 0.2,0.3 0.4,0.5 2.3,3 5.8,6.8 7.1,10.5 z m -25.6,-91.9 c 3.3,3.1 6.5,6.1 9.8,9.2 1.5,1.4 2.9,2.6 3.3,4.9 0.7,4.5 0,9.7 0,14.3 0,7.5 0,15 0,22.5 -1.3,-2.5 -3.6,-3.9 -6.6,-4.9 -4.4,-1.6 -9.2,-2.9 -13.9,-3.3 -0.3,-2.2 0.5,-5.7 0.6,-7.4 0.3,-6.1 0.5,-12.2 0.8,-18.2 0.3,-7.1 0.6,-14.2 1,-21.3 1.6,1.4 3.5,2.8 5,4.2 z m -27.4,-37.5 c 1,-3.9 1.9,-7.9 2.9,-11.8 0.4,-1.7 1.9,-8.6 4.7,-3.6 0.9,1.6 1,4.3 1.4,6 0.9,4.2 1.9,8.4 2.8,12.6 1.7,7.6 3.3,15.1 5.1,22.7 0.1,0.6 0.3,1.1 0.6,1.7 0,0.1 0,0.1 0,0.2 -0.8,14.4 -1.6,28.7 -2.5,43.1 -0.4,6.7 1.1,20.9 -4.9,25.4 -2.8,2.1 -3.5,3 -2.4,6.4 0.6,1.9 1.2,3.8 1.8,5.7 0.1,0.3 0.2,0.6 0.2,1 -0.7,0 -1.4,0.1 -1.6,0.1 -2,0 -4.1,0 -6.1,0 0,0 -0.1,0 -0.1,0 0.2,-1 0.4,-2 0.5,-2.3 0.9,-2.9 3,-6.3 0.8,-9 -2.1,-2.5 -3.8,-3.2 -4.8,-6.6 -1,-3.2 -1.6,-6.6 -1.6,-9.9 0,-0.1 0,-0.3 0,-0.4 0,-0.1 0,-0.1 0,-0.2 -1.1,-18.2 -2.2,-36.4 -3.3,-54.7 0,0 0,-0.1 0,-0.1 0.2,-0.6 0.4,-1.3 0.6,-2 2,-8.1 4,-16.2 5.9,-24.3 z m -28.6,52.1 c 0.7,-5.5 8.1,-9.8 12,-13.3 2,-1.8 3.9,-3.4 5.5,-5.2 0.9,15.2 1.9,30.5 2.8,45.7 -1.3,0.2 -3,0.2 -3.9,0.4 -3.4,0.8 -6.9,1.8 -10.2,2.9 -3.7,1.2 -5.7,3.1 -6.1,7.1 0,0 0,0 0,0.1 0,-7.3 0,-14.6 0,-22 -0.1,-5 -0.7,-10.6 -0.1,-15.7 z m -12.7,80.9 c 0,-1.3 0,-3.3 0.1,-3.6 1.2,-3.5 4.6,-7.2 6.8,-10.1 0.2,-0.3 0.4,-0.6 0.6,-0.9 -0.1,5 -0.2,9.9 -0.3,14.9 -2.2,1.5 -6.1,3.9 -7.5,3.1 0.7,0.3 0.3,-2.4 0.3,-3.4 z"
       id="path5"
       inkscape:connector-curvature="0"
       style="fill:#fed875" /><path
       d="m 1004.9,558.2 c -6.5,-5.5 -13,-11 -19.5,-16.6 -0.1,-0.1 -0.2,-0.1 -0.3,-0.2 -0.1,-0.1 -0.1,-0.1 -0.2,-0.2 -6.4,-4.6 -13.2,-5.4 -20.6,-5.9 -8,-0.6 -16.1,-1.1 -24.1,-1.7 -12.8,-0.9 -25.6,-1.8 -38.5,-2.7 0.2,-9.9 0.4,-19.8 0.7,-29.7 0.2,-7.6 -1.1,-14.6 -3.4,-21.8 -1.5,-4.5 -3,-9.1 -4.4,-13.6 -0.8,-2.5 -1.4,-5.8 -2.8,-8 -2.4,-3.7 -7.9,-4 -10.6,-0.5 -1.7,2.2 -2.2,5.6 -3,8.1 -2.7,8.3 -6.3,16.9 -7.4,25.6 -0.8,6 -0.4,12.2 -0.2,18.3 0.2,7.2 0.3,14.3 0.5,21.5 -10.1,0 -20.2,0 -30.4,0 -29.5,0 -59,0 -88.5,0 -5.4,0 -10.8,0 -16.1,0 0.2,-10 0.3,-20.1 0.5,-30.1 0.2,-7.7 -1.3,-14.7 -3.6,-22 -1.5,-4.5 -2.9,-9.1 -4.4,-13.6 -0.8,-2.4 -1.3,-5.6 -2.9,-7.7 -2.7,-3.5 -8.2,-3.2 -10.6,0.5 -1.5,2.4 -2.1,5.8 -3,8.5 -2.7,8.4 -6.4,17.1 -7.5,25.9 -0.7,5.8 -0.2,11.9 0,17.7 0.2,7 0.4,14 0.6,21 -22.9,1.6 -45.8,3.2 -68.6,4.8 -14.1,1.5 -24.5,13.7 -34.7,22.4 -1.7,1.5 -0.3,4.2 1.8,4.3 18.3,0.2 36.6,0.5 54.9,0.7 0.3,4.5 0.6,9 0.9,13.5 0.1,1.3 1.1,2.5 2.5,2.5 2.6,0 5.2,0 7.9,0 1.1,0 1.8,-0.6 2.2,-1.4 0.2,-0.3 0.3,-0.7 0.3,-1.1 0.3,-4.5 0.6,-8.9 0.9,-13.4 1.1,0 2.3,0 3.4,0 0.3,4.9 0.6,9.7 0.9,14.6 0.1,1.3 1.1,2.5 2.5,2.5 2.6,0 5.2,0 7.9,0 1.1,0 1.8,-0.6 2.2,-1.4 0.2,-0.3 0.3,-0.7 0.3,-1.1 0.3,-4.8 0.6,-9.6 0.9,-14.4 4.9,0.1 9.9,0.1 14.8,0.2 0.1,2.2 0.2,4.4 0.4,6.7 1.1,15.9 2.3,31.9 3.4,47.8 -3.8,2.2 -7.7,4.4 -11.5,6.6 -4.6,2.6 -7.5,4.9 -7.7,10.8 -0.2,6.1 2.3,9.2 8.1,11.5 4.3,1.7 8.6,1.8 13.1,1.8 0.3,3.1 0.6,6.2 1,9.3 0.5,3.4 2.5,6.4 5.7,7.4 0,3.3 0,6.6 0,10 0,3.2 5,3.2 5,0 0,-3.4 0,-6.8 0,-10.2 4.8,-1.7 5.6,-6.3 5.9,-11.3 0.1,-1.7 0.2,-3.5 0.3,-5.2 4.7,0 9.2,-0.1 13.8,-1.6 6.3,-2.1 9.9,-4.8 9.7,-11.7 -0.2,-6.1 -3.2,-8.2 -8.1,-10.7 -4.4,-2.3 -8.8,-4.5 -13.3,-6.8 0.9,-13.5 1.8,-26.9 2.7,-40.4 0.3,-4.7 0.5,-9.3 0.7,-14 35.2,0 70.3,0 105.5,0 5.3,0 10.6,0 15.9,0 5,0 10.1,0 15.1,0 0.1,2.1 0.2,4.2 0.3,6.3 1.1,16 2.1,32 3.2,48.1 -4.3,2.2 -8.6,4.4 -12.9,6.5 -5,2.5 -8.3,4.5 -8.5,10.9 -0.2,6.6 2.9,9.3 9.1,11.5 4.7,1.7 9.2,1.8 13.9,1.8 0.3,3.1 0.6,6.2 1,9.2 0.5,3.8 2.5,6.3 5.8,7.3 0,3.4 0,6.8 0,10.1 0,3.2 5,3.2 5,0 0,-3.3 0,-6.6 0,-10 4.6,-1.4 5.6,-6.5 5.9,-11.1 0.1,-1.9 0.3,-3.8 0.4,-5.7 4.4,0 8.6,0 12.9,-1.6 6,-2.3 8.8,-5.4 8.6,-11.7 -0.2,-5.7 -2.9,-8 -7.4,-10.6 -4,-2.3 -7.9,-4.5 -11.9,-6.8 1,-13.3 1.9,-26.6 2.9,-39.9 0.4,-4.9 0.6,-9.7 0.9,-14.6 4.9,-0.1 9.9,-0.1 14.8,-0.2 0.3,4.9 0.6,9.8 0.9,14.7 0,0.4 0.1,0.8 0.3,1.1 0.3,0.8 1.1,1.4 2.2,1.4 2.6,0 5.2,0 7.9,0 1.4,0 2.4,-1.1 2.5,-2.5 0.3,-4.9 0.6,-9.9 0.9,-14.8 1.1,0 2.3,0 3.4,0 0.3,4.5 0.6,9.1 0.9,13.6 0,0.4 0.1,0.8 0.3,1.1 0.3,0.8 1.1,1.4 2.2,1.4 2.6,0 5.2,0 7.9,0 1.4,0 2.4,-1.1 2.5,-2.5 0.3,-4.6 0.6,-9.2 0.9,-13.8 18.3,-0.2 36.6,-0.5 54.9,-0.7 1.5,0.2 3,-2.6 1.3,-4 z m -22.8,-12.8 c 4.8,4.1 9.5,8.1 14.3,12.2 -15.7,0.2 -31.4,0.4 -47,0.6 0,-1.5 0.1,-3.1 -0.1,-4.4 -0.2,-1.3 -0.1,-2.8 -0.6,-4.1 -0.9,-2.6 -2.9,-4 -5.3,-4.7 0,-1.9 0,-3.8 0,-5.7 0,-0.1 0,-0.2 0,-0.3 6.3,0.4 12.7,0.9 19,1.3 7.2,0.4 13.5,0.7 19.7,5.1 z M 943.2,564 c -0.2,3.5 -0.5,7 -0.7,10.5 -1.1,0 -2.1,0 -3.2,0 -0.2,-3.3 -0.5,-6.6 -0.7,-10 -0.1,-1.2 -2.6,-15.5 2.3,-14.1 5.1,1.4 2.5,9.9 2.3,13.6 z m -41.5,-28 c 6.2,0.4 12.4,0.9 18.6,1.3 0,1.4 0,2.7 0,4.1 -7.1,1.1 -6.5,10.8 -5.9,17.3 -4.2,0.1 -8.4,0.1 -12.7,0.2 0,-7.8 0,-15.4 0,-22.9 z m 18.7,27.5 c -0.1,-2.2 -2.9,-16.2 2.3,-16.2 5.2,0 2.4,14 2.3,16.2 -0.2,4.1 -0.5,8.1 -0.7,12.2 -1.1,0 -2.1,0 -3.2,0 -0.2,-4 -0.4,-8.1 -0.7,-12.2 z m 18.1,-25 c -0.1,0.2 -0.1,0.4 -0.1,0.7 0,1.8 0,3.7 0,5.5 -2.5,0.5 -4.7,2 -5.7,4.6 -0.7,1.8 -0.1,3.5 -0.3,5.4 -0.1,1.2 -0.4,2.5 -0.7,3.7 -0.1,0 -0.1,0 -0.2,0 0.4,-4.3 1.1,-9.7 -1.1,-12.9 -1.1,-1.6 -3.1,-2.8 -5.1,-3.5 0,-1.4 0,-2.9 0,-4.3 4.3,0.3 8.6,0.6 12.9,0.9 0.1,-0.1 0.2,-0.1 0.3,-0.1 z m -275.2,25.7 c -0.1,-0.8 -1.3,-8 -0.4,-11.8 1,-1.8 2.6,-2.7 4.7,-0.4 0.5,0.5 0.7,1.6 1,2.6 0,0.2 0,0.5 0.1,0.8 0,0.1 0,0.2 0.1,0.3 0,2.9 -0.7,6.1 -0.9,8.1 -0.2,3.5 -0.5,7 -0.7,10.5 -1.1,0 -2.1,0 -3.2,0 -0.3,-3.4 -0.5,-6.8 -0.7,-10.1 z m 10.5,-8.2 c 0.2,-0.4 0.2,-0.9 0,-1.5 -0.1,-0.3 -0.2,-0.7 -0.4,-1 -0.2,-3.8 -1.3,-7.2 -5.3,-8.2 0,-2.3 0,-4.6 0,-6.9 4.4,-0.3 8.7,-0.6 13.1,-0.9 0,1.4 0,2.8 0,4.2 -0.2,0.1 -0.3,0.1 -0.5,0.2 -3.6,1.6 -5.3,5.1 -5.4,8.9 -0.1,2.3 -0.3,5 0,7.5 -0.5,0 -0.9,0 -1.4,0 -0.1,-0.7 -0.1,-1.5 -0.1,-2.3 z m 7.6,7.3 c -0.1,-2.2 -2.9,-16.2 2.3,-16.2 0.5,0 1,0.2 1.4,0.4 0.4,0.4 0.7,0.9 1.1,1.5 0.7,1.3 0.6,3.5 0.7,4.8 0,0.7 0,1.4 0,2 -0.2,3.3 -0.7,6.4 -0.8,7.4 -0.2,4.1 -0.5,8.1 -0.7,12.2 -1.1,0 -2.1,0 -3.2,0 -0.3,-4 -0.6,-8.1 -0.8,-12.1 z m 9.6,-15.8 c -0.3,-1 -0.7,-1.9 -1.2,-2.7 -0.9,-1.5 -2.1,-2.7 -3.6,-3.3 0,-1.4 0,-2.9 0,-4.3 6.2,-0.4 12.4,-0.9 18.6,-1.3 0,7.6 0,15.2 0,22.8 -4.4,-0.1 -8.8,-0.1 -13.2,-0.2 0.8,-3.1 0.6,-7.4 -0.6,-11 z m -54.7,-6.8 c 8.9,-0.6 17.9,-1.2 26.8,-1.9 0,2.2 0,4.3 0,6.5 -2.7,0.7 -4.1,2.5 -4.8,4.8 -1.3,2.3 -1.8,5.3 -1.5,8 -15.6,-0.2 -31.2,-0.4 -46.7,-0.6 2.4,-2 4.7,-4 7.1,-6 5.8,-5 10.8,-9.9 19.1,-10.8 z m 59,94 c 0.7,-4.4 5.4,-5.7 8.9,-7.7 1.7,-1 3.5,-2 5.2,-3 0.4,4 0.8,8.1 1.2,12.1 0.1,2.5 0.3,5.1 0.4,7.6 -7,0.2 -17,-0.3 -15.7,-9 z m 27.9,25.1 c 0,-3.4 0,-6.8 0,-10.2 0,-3.2 -5,-3.2 -5,0 0,3.3 0,6.7 0,10 -1.7,-2.6 -1.2,-8.1 -1.4,-9.9 -0.1,-1.1 -0.2,-2.2 -0.2,-3.3 0,0 0,0 0,0 0,0 0,0 0,0 -0.5,-6.4 -0.9,-12.9 -1.4,-19.3 -1.2,-16.8 -2.4,-33.5 -3.6,-50.3 -1.7,-24.1 -1.7,-48.3 -2.4,-72.4 -0.2,-6.9 0,-13.4 2.1,-20.1 2.2,-7 4.6,-14 6.9,-21.1 0.3,-1 0.5,-2.4 1.5,-2.9 2,-1 2.1,0.9 2.7,2.3 1.5,3.6 2.4,7.6 3.6,11.4 2.6,8.2 5.5,16 5.4,24.7 -0.3,23.5 -0.1,47.4 -1.6,70.9 -1.7,25.3 -3.3,50.6 -5,76 0,0.3 -0.1,0.6 -0.1,0.8 0,0.1 0,0.3 0,0.4 -0.2,3 -0.4,6.1 -0.6,9.1 -0.2,1.4 -0.1,2.9 -0.9,3.9 z m 24.7,-25.1 c 0.3,1.7 0.3,3.8 -0.7,5.1 -1.7,2 -5.7,2.8 -8.1,3.4 -3,0.7 -6.1,0.7 -9.2,0.6 0.7,-6.7 1.3,-13.3 2,-20 2.1,1.1 4.1,2.1 6.2,3.2 3.6,1.9 9.1,3.2 9.8,7.7 z m -12.2,-75.9 c 0.4,-7.7 0.8,-15.3 1.2,-23 33.7,0 29.3,0 63,0 0,7.7 0,15.3 0,23 -29,0 -20.1,0 -49.1,0 -5,0 -10,0 -15.1,0 z m 69.3,0 c 0,-7.7 0,-15.3 0,-23 4.3,0 46.7,0 51,0 4.9,0 9.7,0 14.6,0 0.1,7.7 0.2,15.3 0.3,23 -9.4,0 -56.7,0 -65.9,0 z m 62.4,84.5 c -2.3,-0.6 -6.5,-1.4 -8.1,-3.4 -1.1,-1.3 -1,-3.4 -0.7,-5.1 0.7,-4.5 6.2,-5.8 9.9,-7.7 2.1,-1.1 4.1,-2.1 6.2,-3.2 0.4,4.1 0.8,8.2 1.2,12.2 0.1,2.6 0.2,5.2 0.4,7.8 -3,0.1 -6,0.1 -8.9,-0.6 z m 21.6,14.6 c -0.1,0.3 -0.4,0.8 -0.7,1.2 0,-3.2 0,-6.3 0,-9.5 0,-3.2 -5,-3.2 -5,0 0,3.3 0,6.6 0,9.8 -1.8,-2.7 -1.2,-8.2 -1.4,-10.4 0,-0.7 -0.1,-1.5 -0.1,-2.2 0,-0.1 0,-0.3 0,-0.4 0,-0.3 -0.1,-0.6 -0.1,-0.8 -0.4,-6.5 -0.9,-13 -1.3,-19.4 -1.1,-16.6 -2.2,-33.3 -3.3,-49.9 -0.3,-4.7 -0.5,-9.4 -0.7,-14.1 0.1,-0.3 0.1,-0.5 0.1,-0.8 -0.3,-9.3 -0.5,-18.7 -0.8,-28 0,-0.2 0,-0.4 -0.1,-0.6 -0.1,-9.7 -0.2,-19.3 -0.5,-28.9 -0.1,-6.8 0.1,-13.3 2.1,-19.9 2.2,-7 3.9,-14.5 6.8,-21.2 0.6,-1.3 0.6,-3.4 2.7,-2.3 1,0.6 1.1,1.8 1.5,2.9 1.3,3.9 2.6,7.9 3.8,11.8 2.6,8.1 5.3,15.7 5.2,24.3 -0.2,10.9 -0.3,21.9 -0.5,33 -0.1,0.3 -0.2,0.7 -0.2,1 0,3 0,5.9 0,8.9 -0.3,9.3 -0.7,18.5 -1.3,27.7 -1.7,23.7 -3.1,47.5 -5,71.2 -0.2,1.8 -0.3,3.5 -0.5,5.3 0,0.3 0,0.5 0,0.8 -0.2,3 -0.5,6.1 -0.8,9.1 0.2,0.2 0.3,0.9 0.1,1.4 z m 22.1,-23.2 c 0.1,1 0.3,3.5 0,4.4 -0.9,2.4 -5.4,3.7 -7.7,4.2 -2.7,0.7 -5.5,0.6 -8.4,0.5 0.7,-6.6 1.3,-13.2 2,-19.8 1.7,1 3.5,2 5.2,3 3.5,2 8.3,3.4 8.9,7.7 z"
       id="path7"
       inkscape:connector-curvature="0"
       style="fill:#fed875" /><path
       d="m 797.9,402.5 c 1.4,-0.1 2.5,-1.1 2.5,-2.5 0,-0.3 0,-0.7 0,-1 0,-1.3 -1.1,-2.6 -2.5,-2.5 -1.4,0.1 -2.5,1.1 -2.5,2.5 0,0.3 0,0.7 0,1 0,1.3 1.2,2.6 2.5,2.5 z"
       id="path9"
       inkscape:connector-curvature="0"
       style="fill:#fed875" /><path
       d="m 805.4,399 c 0,0.3 0,0.7 0,1 0,1.3 1.1,2.6 2.5,2.5 1.4,-0.1 2.5,-1.1 2.5,-2.5 0,-0.3 0,-0.7 0,-1 0,-1.3 -1.1,-2.6 -2.5,-2.5 -1.3,0.1 -2.5,1.1 -2.5,2.5 z"
       id="path11"
       inkscape:connector-curvature="0"
       style="fill:#fed875" /><path
       d="m 798.9,393.4 c 1.4,-0.1 2.5,-1.1 2.5,-2.5 0,-0.3 0,-0.7 0,-1 0,-1.3 -1.1,-2.6 -2.5,-2.5 -1.4,0.1 -2.5,1.1 -2.5,2.5 0,0.3 0,0.7 0,1 0,1.3 1.2,2.6 2.5,2.5 z"
       id="path13"
       inkscape:connector-curvature="0"
       style="fill:#fed875" /><path
       d="m 806.9,393.4 c 1.4,-0.1 2.5,-1.1 2.5,-2.5 0,-0.3 0,-0.7 0,-1 0,-1.3 -1.1,-2.6 -2.5,-2.5 -1.4,0.1 -2.5,1.1 -2.5,2.5 0,0.3 0,0.7 0,1 0,1.3 1.2,2.6 2.5,2.5 z"
       id="path15"
       inkscape:connector-curvature="0"
       style="fill:#fed875" /><path
       d="m 797.9,411.6 c 1.4,-0.1 2.5,-1.1 2.5,-2.5 0,-0.3 0,-0.7 0,-1 0,-1.3 -1.1,-2.6 -2.5,-2.5 -1.4,0.1 -2.5,1.1 -2.5,2.5 0,0.3 0,0.7 0,1 0,1.3 1.2,2.6 2.5,2.5 z"
       id="path17"
       inkscape:connector-curvature="0"
       style="fill:#fed875" /><path
       d="m 807.9,405.6 c -1.4,0.1 -2.5,1.1 -2.5,2.5 0,0.3 0,0.7 0,1 0,1.3 1.1,2.6 2.5,2.5 1.4,-0.1 2.5,-1.1 2.5,-2.5 0,-0.3 0,-0.7 0,-1 0,-1.3 -1.1,-2.6 -2.5,-2.5 z"
       id="path19"
       inkscape:connector-curvature="0"
       style="fill:#fed875" /><path
       d="m 797.9,420.7 c 1.4,-0.1 2.5,-1.1 2.5,-2.5 0,-0.3 0,-0.7 0,-1 0,-1.3 -1.1,-2.6 -2.5,-2.5 -1.4,0.1 -2.5,1.1 -2.5,2.5 0,0.3 0,0.7 0,1 0,1.3 1.2,2.6 2.5,2.5 z"
       id="path21"
       inkscape:connector-curvature="0"
       style="fill:#fed875" /><path
       d="m 807.9,414.7 c -1.4,0.1 -2.5,1.1 -2.5,2.5 0,0.3 0,0.7 0,1 0,1.3 1.1,2.6 2.5,2.5 1.4,-0.1 2.5,-1.1 2.5,-2.5 0,-0.3 0,-0.7 0,-1 0,-1.3 -1.1,-2.6 -2.5,-2.5 z"
       id="path23"
       inkscape:connector-curvature="0"
       style="fill:#fed875" /><path
       d="m 802.2,490.9 c -2.2,-0.3 -4.2,-1.9 -6.3,0 -2.5,2.3 -1.7,7.5 -1.4,10.4 0.5,4.7 2.5,15.3 9.4,14.2 7.2,-1.2 7.8,-13.7 7.8,-19 -0.1,-2.5 -0.3,-6 -3.3,-6.6 -2.2,-0.6 -4,1.2 -6.2,1 z m 3.6,14 c -0.3,1.4 -0.9,4.3 -2.2,5.1 -2.5,1.6 -4,-7.8 -4.1,-9.4 -0.1,-1.3 0.2,-3 -0.1,-4.2 -0.2,-0.7 0,-1.3 -0.3,-1.3 0.7,0 2.5,0.8 3.1,0.9 1.3,0.1 2.5,-0.2 3.8,-0.6 0.2,-0.1 0.5,-0.2 0.7,-0.2 0,0.4 0.1,0.9 0.1,1.3 -0.1,2.7 -0.3,5.6 -1,8.4 z"
       id="path25"
       inkscape:connector-curvature="0"
       style="fill:#fed875" /></g></svg>