<?xml version="1.0" encoding="UTF-8" standalone="no"?>
<svg
   xmlns:dc="http://purl.org/dc/elements/1.1/"
   xmlns:cc="http://creativecommons.org/ns#"
   xmlns:rdf="http://www.w3.org/1999/02/22-rdf-syntax-ns#"
   xmlns:svg="http://www.w3.org/2000/svg"
   xmlns="http://www.w3.org/2000/svg"
   height="168.61288"
   width="150.12117"
   xml:space="preserve"
   viewBox="0 0 150.12117 168.61288"
   y="0px"
   x="0px"
   id="Layer_1"
   version="1.1"><metadata
     id="metadata3399"><rdf:RDF><cc:Work
         rdf:about=""><dc:format>image/svg+xml</dc:format><dc:type
           rdf:resource="http://purl.org/dc/dcmitype/StillImage" /><dc:title></dc:title></cc:Work></rdf:RDF></metadata><defs
     id="defs3397" /><g
     transform="translate(-574.61149,-202.176)"
     id="g3387"><path
       id="path3389"
       d="m 724.7,254.3 c 0,-8.3 -0.5,-16.1 -4.3,-23.7 -5.1,-10.3 -14.2,-18.6 -24.6,-23.2 -12.8,-5.8 -26.4,-4.9 -40,-4.9 -11.7,0 -23.8,-0.9 -35.4,0.3 -21.6,2.2 -42.4,18.2 -45.3,40.6 -0.8,6.3 -0.4,12.8 -0.3,19.1 0.1,6.8 1.7,13.3 5.4,19.1 8.1,12.6 22.4,19.7 35.9,24.9 4,1.6 8.1,3 12.1,4.7 6.2,2.6 12.6,5.7 19,7.7 0,6.9 0,13.9 0,20.8 -8.5,-0.1 -21.4,-1.9 -22.6,9.9 -0.9,9.1 -0.5,20.8 11.3,21.1 9.7,0.2 19.4,0 29.2,0 0.2,0 0.4,0 0.6,-0.1 5.8,-0.7 9.7,-4.9 9.9,-10.9 0.2,-4.4 0.9,-10.4 -1.2,-14.4 -3.7,-7 -14.2,-6.2 -22.1,-5.8 0,-6.8 0,-13.7 0,-20.5 2.8,-0.7 5.6,-2.5 8,-3.5 5.7,-2.3 11.4,-4.7 17.1,-7 0.1,0 0.1,-0.1 0.2,-0.1 0.1,0 0.3,-0.1 0.4,-0.1 11.1,-5.3 22.3,-9.6 31.9,-17.7 5.8,-4.8 10.7,-10.8 13.2,-18 2,-5.9 1.6,-12.2 1.6,-18.3 z m -88.4,111.5 c -4.6,-0.2 -6.6,-2.7 -6.7,-7.3 -0.1,-3.4 -1,-9.4 1.6,-12.1 2.1,-2.2 6,-1.6 8.8,-1.6 0.4,0 0.8,0 1.2,0 -0.7,3.4 -1.4,6.8 -1.4,10.3 0,3.6 0.8,7.2 1.5,10.8 -1.7,0 -3.3,0 -5,-0.1 z m 26.8,-21 c 4.5,0.1 7.2,2 7.5,6.9 0.2,4.9 1.3,13.5 -5.5,14.1 -6.3,0 -12.6,0 -18.9,0 0,-0.2 0,-0.4 0,-0.7 -0.6,-3.3 -1.4,-6.7 -1.4,-10.1 0,-3.4 0.8,-6.8 1.4,-10.1 0,-0.1 0,-0.1 0,-0.2 5.6,0 11.3,-0.1 16.9,0.1 z m 56.6,-81.1 c -0.3,8.7 -5.1,15.9 -11.3,21.6 -9.6,8.8 -21.3,13.1 -32.8,18.6 -8.6,3.5 -17.1,7.2 -25.8,10.5 -0.7,-0.3 -1.4,-0.6 -2.1,-0.8 -3,-1.2 -6.1,-2.5 -9.1,-3.7 -3.6,-1.5 -8.2,-3.3 -11.1,-4.5 -10.7,-4.4 -21.6,-7.9 -31.2,-14.7 -5.9,-4.2 -11.3,-9.5 -14.2,-16.3 -2.5,-5.8 -2.3,-11.8 -2.3,-17.9 0,-7.8 -0.2,-15.4 3.1,-22.7 4.7,-10.4 13.8,-18.7 24.4,-22.9 11.5,-4.6 24.1,-3.6 36.2,-3.6 9.8,0 19.7,-0.1 29.5,0 22.7,0.3 46.3,16.5 46.8,40.8 0,5.3 0.1,10.5 -0.1,15.6 z"
       style="fill:#f9ad96" /><path
       id="path3391"
       d="m 675.7,236.1 c -23.9,-0.5 -49.4,4.3 -72,-5.7 -2.9,-1.3 -5.5,3 -2.5,4.3 23.7,10.5 49.5,5.9 74.6,6.4 3.1,0.1 3.1,-4.9 -0.1,-5 z"
       style="fill:#f9ad96" /><path
       id="path3393"
       d="m 696.1,230.4 c -2.5,1.5 -5.1,2.8 -8,3.7 -3.1,0.9 -1.8,5.8 1.3,4.8 3.2,-1 6.3,-2.4 9.2,-4.2 2.8,-1.6 0.3,-5.9 -2.5,-4.3 z"
       style="fill:#f9ad96" /></g></svg>