<?xml version="1.0" encoding="UTF-8" standalone="no"?>
<!-- Generator: Adobe Illustrator 18.1.1, SVG Export Plug-In . SVG Version: 6.00 Build 0)  -->

<svg
   xmlns:dc="http://purl.org/dc/elements/1.1/"
   xmlns:cc="http://creativecommons.org/ns#"
   xmlns:rdf="http://www.w3.org/1999/02/22-rdf-syntax-ns#"
   xmlns:svg="http://www.w3.org/2000/svg"
   xmlns="http://www.w3.org/2000/svg"
   xmlns:sodipodi="http://sodipodi.sourceforge.net/DTD/sodipodi-0.dtd"
   xmlns:inkscape="http://www.inkscape.org/namespaces/inkscape"
   version="1.1"
   id="Isolation_Mode"
   x="0px"
   y="0px"
   viewBox="0 0 274.08182 279.35242"
   xml:space="preserve"
   inkscape:version="0.91 r13725"
   sodipodi:docname="xcore_aerospace.svg"
   width="274.08182"
   height="279.35242"><metadata
     id="metadata17"><rdf:RDF><cc:Work
         rdf:about=""><dc:format>image/svg+xml</dc:format><dc:type
           rdf:resource="http://purl.org/dc/dcmitype/StillImage" /><dc:title></dc:title></cc:Work></rdf:RDF></metadata><defs
     id="defs15" /><sodipodi:namedview
     pagecolor="#ffffff"
     bordercolor="#666666"
     borderopacity="1"
     objecttolerance="10"
     gridtolerance="10"
     guidetolerance="10"
     inkscape:pageopacity="0"
     inkscape:pageshadow="2"
     inkscape:window-width="640"
     inkscape:window-height="480"
     id="namedview13"
     showgrid="false"
     fit-margin-top="0"
     fit-margin-left="0"
     fit-margin-right="0"
     fit-margin-bottom="0"
     inkscape:zoom="0.23046875"
     inkscape:cx="191.94267"
     inkscape:cy="318.24379"
     inkscape:window-x="0"
     inkscape:window-y="0"
     inkscape:window-maximized="0"
     inkscape:current-layer="Isolation_Mode" /><g
     id="g3"
     transform="translate(-320.05733,-550.89136)"><path
       style="fill:#d6b4d5"
       d="m 592.3,696.9 c -2.4,-2 -5.6,-3.4 -8.2,-4.9 -5.3,-3.2 -10.7,-6.4 -16,-9.6 -12.4,-7.5 -24.8,-15 -37.2,-22.4 -4.1,-2.4 -8.1,-4.9 -12.2,-7.3 -0.8,-0.5 -1.5,-0.9 -2.3,-1.4 -0.3,-0.4 -0.6,-0.8 -0.9,-1.2 -7.7,-10 -15.4,-20 -23.1,-30 -0.1,-0.1 -0.2,-0.3 -0.3,-0.4 -1.8,-5.7 -4.9,-11.3 -7.2,-16.7 -4,-9.5 -8,-19 -11.9,-28.5 -2.5,-5.8 -4.8,-11.8 -7.4,-17.5 -3.4,-7.7 -13.9,-8.4 -17.7,-0.5 -6.6,13.9 -11.9,28.5 -17.9,42.6 -2.9,7 -6.1,13.9 -8.8,21 -0.3,0.9 -0.5,1.6 -0.6,2.4 -6.6,8.6 -13.3,17.2 -19.9,25.8 -1.1,1.4 -2.2,2.8 -3.2,4.2 -0.2,0.1 -0.4,0.2 -0.6,0.3 -3.4,1.5 -6.7,4 -9.9,6 -21.4,12.9 -43,25.5 -64.2,38.7 -3.3,2 -2.7,4.5 -2.7,8.2 0,6.3 0,12.7 0,19 0,1.4 1.1,2.5 2.5,2.5 4.2,0.1 8.4,0.1 12.6,0.2 1.4,0 2.5,-1.2 2.5,-2.5 0.1,-2.9 0.1,-5.7 0.2,-8.6 27.7,0 55.4,0 83.1,0 3.4,0 6.8,0 10.2,0 0.5,4.3 1,8.6 1.5,12.9 0.5,4.4 0.4,9.4 4.9,11.8 0.2,0.1 0.4,0.2 0.6,0.2 -2.3,6.3 -4.6,12.5 -6.9,18.8 -0.6,1.5 0.9,3.2 2.4,3.2 2.7,0 5.3,0 8,0 -3.2,0 -3.2,5 0,5 9.5,0 19.1,0 28.6,0 3.2,0 3.2,-5 0,-5 2.2,0 4.3,0 6.5,0 0.9,0 1.6,-0.4 2,-1 0.5,-0.5 0.7,-1.3 0.4,-2.1 -1.7,-6.3 -3.4,-12.6 -5.1,-18.9 3.8,-1.8 4.7,-5.7 5.3,-10.2 0.7,-5.3 1.3,-10.6 2,-15.9 28.3,0 56.7,0 85,0 3.3,0 6.5,0 9.8,0 0.1,2.9 0.1,5.7 0.2,8.6 0,1.3 1.1,2.5 2.5,2.5 4.2,-0.1 8.4,-0.1 12.6,-0.2 1.4,0 2.5,-1.1 2.5,-2.5 0,-5.5 0,-10.9 0,-16.4 -0.1,-3.3 1,-8 -1.7,-10.2 z m -80.2,-43.4 c -6.4,18.8 -12.7,37.6 -19.1,56.4 -3.2,0 -6.3,0 -9.5,0 2.6,-24.6 5.1,-49.1 7.7,-73.7 0.3,-2.5 0.6,-5 0.9,-7.5 0,-0.3 0.1,-0.6 0.1,-0.9 4.4,5.7 8.7,11.4 13.1,17 2.3,3 4.3,6.1 6.8,8.7 z m -90.8,-23.8 c 1.8,15.8 3.6,31.6 5.5,47.3 0.7,6.4 1.5,12.9 2.2,19.3 0.2,2 0.4,3.9 0.6,5.9 0.3,3 0.6,5.9 0.9,8.9 -3.2,0 -6.3,0 -9.5,0 -6.4,-18.9 -12.8,-37.8 -19.2,-56.7 1.4,-1.4 2.6,-3 4.1,-5 5.2,-6.5 10.3,-13.1 15.4,-19.7 z m -85.8,81.4 c -1.4,0 -2.5,1.1 -2.5,2.5 -0.1,2.8 -0.1,5.7 -0.2,8.5 -2.5,0 -5.1,-0.1 -7.6,-0.1 0,-6.7 0,-13.5 0,-20.2 15,-9.1 30,-18.1 45.1,-27.2 8.7,-5.2 17.4,-10.5 26.1,-15.7 0.5,-0.3 1,-0.6 1.5,-0.9 6,17.7 12,35.4 18,53.2 -22.7,0 -45.4,0 -68.1,0 -4.1,-0.1 -8.2,-0.1 -12.3,-0.1 z m 117,47 c 1.2,-3.8 2.4,-7.5 3.6,-11.3 1,3.8 2.1,7.5 3.1,11.3 -2.3,0 -4.5,0 -6.7,0 z m -15.2,0 c 1.8,-5 3.7,-10 5.5,-15 3.1,0 6.1,0 9.2,0 -1.6,5 -3.2,10 -4.8,15 -3.3,0 -6.6,0 -9.9,0 z m 27,0 c -1.4,-5 -2.7,-10 -4.1,-15 3.1,0 6.1,0 9.2,0 1.4,5 2.7,10 4.1,15 -3.1,0 -6.1,0 -9.2,0 z m 9.8,-25.4 c -0.3,2.3 -0.4,4 -3.7,4.3 -7.3,0 -14.5,0 -21.8,0 -2.2,0 -7.5,0.9 -9.4,-1 -1,-1 -0.9,-2.4 -1.1,-3.7 -1.4,-11.9 -2.8,-23.9 -4.1,-35.8 -2.2,-20.9 -4.4,-41.7 -6.5,-62.6 -0.4,-3.8 -0.8,-7.6 -1.2,-11.4 0,-0.3 -0.1,-0.7 -0.2,-0.9 0.8,-1.9 1.6,-3.7 2.3,-5.6 6.8,-16.2 13.6,-32.3 20.4,-48.5 1.5,-3.5 3.3,-12.3 8.5,-11.7 4.6,0.5 6.4,9.3 7.9,12.8 6.7,16 13.5,32 20.2,48.1 0.8,1.9 1.7,3.8 2.4,5.7 -0.5,4.7 -1,9.4 -1.5,14.1 0,0.4 -0.1,0.8 -0.1,1.2 -4.1,31.5 -8.1,63.2 -12.1,95 z m 104.5,-22.8 c -26.8,0 -53.5,0 -80.3,0 6,-17.7 12,-35.4 18,-53.1 18.3,11 36.6,22 54.8,33 6,3.6 11.9,7.2 17.9,10.8 0,6.7 0,13.5 0,20.2 -2.5,0 -5.1,0.1 -7.6,0.1 -0.1,-2.8 -0.1,-5.7 -0.2,-8.5 -0.2,-1.3 -1.3,-2.5 -2.6,-2.5 z"
       id="path5"
       inkscape:connector-curvature="0" /><path
       style="fill:#d6b4d5"
       d="m 464.9,585.9 c -2.7,-7.8 -13,-8.7 -16.2,-0.7 -2.4,6.1 -3.9,12.8 -5.8,19.1 -2.2,7.3 -4.4,14.6 -6.6,21.9 -0.3,1 0,1.8 0.6,2.3 0.4,0.5 1,0.8 1.8,0.8 12,0 23.9,0 35.9,0 1.6,0 2.9,-1.6 2.4,-3.2 -4,-13.3 -7.5,-27 -12.1,-40.2 z m -12.7,4.9 c 0.4,-1.4 0.7,-3.5 1.5,-4.7 2.9,-4.1 5.9,-0.3 6.7,2.6 2.1,7.1 4.3,14.1 6.4,21.2 1.5,4.8 2.9,9.7 4.4,14.5 -9.7,0 -19.5,0 -29.2,0 3.5,-11.2 6.9,-22.4 10.2,-33.6 z"
       id="path7"
       inkscape:connector-curvature="0" /><path
       style="fill:#d6b4d5"
       d="m 474.7,633.7 c -12,-0.1 -23.9,-0.2 -35.9,-0.3 -1.8,0 -2.6,1.6 -2.4,3.2 0.6,4.2 1.2,8.4 1.8,12.6 0.6,4.3 1.5,8.6 6.5,9.5 3.6,0.7 7.6,0.1 11.2,0.1 3.8,0 7.6,0 11.3,0 0.2,0 0.4,0 0.6,0 0.3,0 0.6,-0.1 0.8,-0.1 8.8,-1.9 7.6,-15.4 8.4,-22.6 0.3,-1.3 -1.1,-2.4 -2.3,-2.4 z m -6.8,20.2 c -3,0 -6.1,0 -9.1,0 -3.8,0 -8.4,0.7 -12.1,0 -4,-0.8 -3.6,-5 -4.1,-8.2 -0.3,-2.4 -0.7,-4.9 -1,-7.3 10.1,0.1 20.2,0.1 30.3,0.2 -0.2,1.8 -0.4,3.6 -0.7,5.4 -0.3,2.3 0.1,9.4 -3.3,9.9 z"
       id="path9"
       inkscape:connector-curvature="0" /><path
       style="fill:#d6b4d5"
       d="m 468.9,773.3 c -3.1,-1.7 -6.4,0.5 -9.3,1.6 -4.4,1.7 -7.2,0.4 -11.4,-1 -3.1,-1 -6,-0.8 -7.8,2.4 -5.1,9.2 2,65.8 20.6,51.7 4.4,-3.4 6.6,-9.5 8.1,-14.6 2.6,-8.9 3.4,-18.3 3.5,-27.6 0,-3.8 0.3,-10.3 -3.7,-12.5 z m -4,36.7 c -1.1,4.4 -2.8,10.7 -6.6,13.8 -8.5,6.8 -13.2,-19.7 -13.7,-23.8 -0.5,-4.1 -0.7,-8.2 -0.7,-12.3 0,-1.9 -0.7,-7.4 0.8,-8.7 1.6,-1.3 6,1.4 8.3,1.8 3.4,0.6 6.4,-0.4 9.6,-1.7 0.7,-0.3 3,-1.7 3.9,-1.3 1.5,0.7 1.1,6.8 1.1,8.1 -0.1,8 -0.7,16.1 -2.7,24.1 z"
       id="path11"
       inkscape:connector-curvature="0" /></g></svg>