<?xml version="1.0" encoding="UTF-8" standalone="no"?>
<!-- Generator: Adobe Illustrator 18.1.1, SVG Export Plug-In . SVG Version: 6.00 Build 0)  -->

<svg
   xmlns:dc="http://purl.org/dc/elements/1.1/"
   xmlns:cc="http://creativecommons.org/ns#"
   xmlns:rdf="http://www.w3.org/1999/02/22-rdf-syntax-ns#"
   xmlns:svg="http://www.w3.org/2000/svg"
   xmlns="http://www.w3.org/2000/svg"
   xmlns:sodipodi="http://sodipodi.sourceforge.net/DTD/sodipodi-0.dtd"
   xmlns:inkscape="http://www.inkscape.org/namespaces/inkscape"
   version="1.1"
   id="Layer_1"
   x="0px"
   y="0px"
   viewBox="0 0 155.55278 245.0415"
   xml:space="preserve"
   inkscape:version="0.91 r13725"
   sodipodi:docname="zero2infinity.svg"
   width="155.55278"
   height="245.0415"><metadata
     id="metadata13"><rdf:RDF><cc:Work
         rdf:about=""><dc:format>image/svg+xml</dc:format><dc:type
           rdf:resource="http://purl.org/dc/dcmitype/StillImage" /><dc:title></dc:title></cc:Work></rdf:RDF></metadata><defs
     id="defs11" /><sodipodi:namedview
     pagecolor="#ffffff"
     bordercolor="#666666"
     borderopacity="1"
     objecttolerance="10"
     gridtolerance="10"
     guidetolerance="10"
     inkscape:pageopacity="0"
     inkscape:pageshadow="2"
     inkscape:window-width="640"
     inkscape:window-height="480"
     id="namedview9"
     showgrid="false"
     fit-margin-top="0"
     fit-margin-left="0"
     fit-margin-right="0"
     fit-margin-bottom="0"
     inkscape:zoom="0.23046875"
     inkscape:cx="216.15278"
     inkscape:cy="-55.055556"
     inkscape:window-x="0"
     inkscape:window-y="0"
     inkscape:window-maximized="0"
     inkscape:current-layer="Layer_1" /><g
     id="g3"
     transform="translate(-295.84722,-211.90294)"><path
       style="fill:#a0d7c3"
       d="m 430.4,349.7 c -18.5,-1.9 -36.9,-4.2 -55.5,-4.5 0,-5.8 0,-11.6 0,-17.4 0,0 0.1,0 0.1,0 6.8,-0.1 13.7,-1.2 20.6,-3.6 28.8,-10.1 55.4,-40.3 55.8,-71.9 -0.4,-30.3 -32.4,-37.5 -57,-39.4 -5.3,-0.4 -10.6,-0.7 -15.9,-0.8 -6,-0.3 -12.5,-0.3 -18.8,0.3 -5.8,0.3 -11.6,0.8 -17.3,1.6 -12.8,1.8 -26.8,5 -36.5,14.2 -20.3,19 -5.9,51.3 8.5,69 14,17.1 34.1,29 55.5,30.5 0,5.8 0,11.7 0,17.5 -1.4,0 -2.8,0 -4.2,0.1 -12.3,0.3 -24.2,1.6 -36.2,4.2 -3.1,0.7 -3.6,2.3 -5.1,5.1 -1.9,3.5 -3.7,7 -5.6,10.4 -0.1,0.1 -0.1,0.2 -0.2,0.4 -0.4,0.7 -0.3,1.6 0.3,2.4 0.2,0.3 0.4,0.5 0.7,0.7 16.8,15.4 33.5,30.9 50.3,46.3 0,3.2 0,6.5 0,9.7 -0.2,0 -0.3,0 -0.5,0 -8.9,0 -23.4,-2.3 -24,10.6 -0.2,4.4 -0.9,10.2 0.5,14.5 1.7,5.2 6.5,7.3 11.5,7.3 10.8,0.1 21.6,0 32.4,0 0.2,0 0.4,0 0.6,-0.1 6.4,-0.8 9.8,-5.5 9.9,-11.9 0.1,-4.7 1,-11.2 -1.6,-15.4 -2.7,-4.4 -7.1,-5 -11.7,-5 -4,0 -8.1,0 -12.1,0 0,-3.3 0,-6.5 0,-9.8 16.2,-15.4 32.4,-30.8 48.6,-46.2 0.6,-0.2 0.9,-0.7 1.1,-1.2 0.1,-0.1 0.1,-0.2 0.1,-0.3 2.6,-4.6 5.2,-9.1 7.8,-13.7 1.1,-1.6 -0.2,-3.4 -2.1,-3.6 z M 368.6,225.9 c 0.5,-2.4 1.4,-7.9 4.5,-8.6 0.2,0 0.4,-0.1 0.6,-0.1 0.1,0 0.2,0 0.3,0 0,0 0.1,0 0.1,0 7.6,0.6 6.6,31.9 6.6,35.1 0,18.9 -0.9,38.1 -4,56.7 -0.5,3.1 -1.1,6.2 -1.9,9.3 -0.3,1 -0.5,2.1 -1,3.1 0,0.1 -0.1,0.1 -0.1,0.2 -0.3,-0.7 -0.7,-1.5 -0.9,-2.1 -0.9,-3 -1.5,-6.2 -2,-9.3 -3.1,-18.5 -4.1,-37.7 -4.2,-56.4 0.1,-9.3 0.1,-18.9 2,-27.9 z m 10.5,95.8 c 3,-8.6 3.6,-18.5 4.5,-27.5 1.4,-13.9 2.1,-27.9 2.1,-41.9 0,-10.2 0.2,-21.5 -3,-31.3 -0.4,-1.1 -0.8,-2.3 -1.4,-3.4 5.3,0.7 10.5,2.4 14.7,5.9 8.2,7 9.6,18.7 9.7,28.8 -0.1,20 -5.1,42.3 -16.3,59.1 -2.5,3.8 -6,8.1 -10.3,10.3 z m -26.8,-99 c 3.9,-3 8.7,-4.4 13.6,-5.1 -3,6 -3.5,15.4 -3.8,19.6 -1.6,23.4 -0.1,47.7 3.3,70.8 0.5,3.7 0.9,9.1 2.4,13.5 -5.5,-2.9 -9.6,-9.2 -12.4,-14.2 -10.1,-17.8 -15.2,-40.9 -13.6,-61.3 0.8,-8.6 3.4,-17.8 10.5,-23.3 z m 38.7,95.1 c 5.7,-6.9 9.4,-15.7 12.3,-23.9 4.7,-13.3 7.3,-27.5 7.4,-41.7 -0.1,-10.4 -1.6,-21.6 -8.6,-29.7 -0.9,-1.1 -1.9,-2.1 -3,-3 3.7,0.9 7.4,2.2 10.7,4.1 11,5.9 15.4,16.5 15.6,28.6 -0.2,22.2 -10.9,46.3 -27.8,60.8 -2,1.8 -4.2,3.4 -6.6,4.8 z m -42.2,-98.2 c -4,3.1 -7.2,7.4 -9.2,13 -4,11.1 -3.3,23.7 -1.8,35.2 1.7,12.3 5,24.4 10.1,35.7 2.2,4.9 5.5,10.4 9.4,14.9 -5.8,-3.3 -10.8,-8 -15.1,-13 -13.7,-16.3 -24.9,-42.9 -18.9,-64.4 3.6,-12.6 13.9,-18.6 25.5,-21.4 z m 97.6,32.7 c -0.3,25.7 -20,50.4 -41.7,62.3 -0.8,0.5 -1.7,0.9 -2.5,1.3 17.7,-15.3 28.1,-41.5 28.3,-63.7 -0.1,-11.1 -3.4,-22 -12.4,-29.2 -1.1,-0.9 -2.3,-1.7 -3.5,-2.5 17,4.1 31.6,12.7 31.8,31.8 z m -142,17.6 c -3.7,-10.4 -5.4,-22.9 0.6,-32.7 5.8,-9.4 16.9,-13.7 27.2,-16.2 -3.8,2.5 -7.1,5.7 -9.6,9.7 -13.1,20.6 -2.1,51.4 10,69.8 3.8,5.8 8.4,11.2 13.7,15.6 -7.2,-3.4 -14,-8 -20.1,-13.8 -9.6,-8.9 -17.5,-20.1 -21.8,-32.4 z m 83.2,159.7 c 5,0 7.7,2.5 7.7,7.6 0,5 1.7,14.2 -5.5,14.7 -7.1,0 -14.3,0 -21.4,0 -3.7,0 -7.5,0.2 -11.2,0 -4.8,-0.2 -6.8,-3 -6.8,-7.6 0,-3.6 -1.2,-10.3 1.6,-13.1 2.3,-2.3 6.5,-1.6 9.4,-1.6 8.7,0 17.5,0 26.2,0 z m -57.5,-75.2 c -0.6,0.6 -1.3,0 0,0 l 0,0 z m 0.5,-0.8 c 0,0.1 -0.1,0.2 -0.1,0.3 0,-0.1 0,-0.2 0.1,-0.3 z m -2,3.5 c 0.4,-0.8 1.1,-1.8 1.6,-2.7 0.9,0 1.9,-0.4 2.8,-0.5 12.3,-2.4 24.4,-3.6 36.9,-3.7 0,0.7 0,1.4 0,2.1 0,3.2 5,3.2 5,0 0,-0.7 0,-1.4 0,-2.1 17.2,0.2 34.3,2.3 51.4,4.1 -1.8,3.1 -3.5,6.2 -5.3,9.4 -1.1,-0.1 -2.3,-0.3 -3.4,-0.4 -0.3,-0.1 -0.6,-0.1 -0.8,-0.1 -15.4,-1.8 -30.8,-3.5 -46.3,-3.4 -15.1,0.1 -30.1,1.8 -45.1,3.6 1.1,-2.2 2.2,-4.2 3.2,-6.3 z m 44.1,52.8 c -10.3,-14.5 -20.7,-28.9 -31,-43.4 9.6,-1 19.2,-1.7 28.8,-1.8 13.9,-0.1 27.7,1.3 41.4,2.9 -13.1,14.1 -26.1,28.2 -39.2,42.3 z M 336,367.1 c 6.8,9.5 13.6,19 20.4,28.5 -9.9,-9.1 -19.8,-18.3 -29.7,-27.4 3,-0.4 6.2,-0.8 9.3,-1.1 z"
       id="path5"
       inkscape:connector-curvature="0" /><path
       style="fill:#a0d7c3"
       d="m 368.1,448.9 c 4.6,0.2 8,-3.3 8.6,-7.6 0.1,-0.2 0.1,-0.5 0.1,-0.7 0,-0.3 0,-0.5 -0.1,-0.7 -0.6,-4.2 -3.8,-7.6 -8.3,-7.6 -4.5,0 -8.3,3.8 -8.3,8.3 0,4.4 3.6,8.1 8,8.3 z m 3.7,-8.4 c -0.2,4.3 -6.7,4.3 -6.7,0 0,-4.3 6.4,-4.2 6.7,0 z"
       id="path7"
       inkscape:connector-curvature="0" /></g></svg>