<?xml version="1.0" encoding="utf-8"?>
<!-- Generator: Adobe Illustrator 18.1.1, SVG Export Plug-In . SVG Version: 6.00 Build 0)  -->
<svg version="1.1" id="Layer_1" xmlns="http://www.w3.org/2000/svg" xmlns:xlink="http://www.w3.org/1999/xlink" x="0px" y="0px"
	 viewBox="0 0 1240 1240" style="enable-background:new 0 0 1240 1240;" xml:space="preserve">
<g>
	<path style="fill:#F0F0F0;" d="M602.5,0h35.1c47,1.5,93.8,7.9,139.3,19.8c75.8,19.7,147.8,54.1,210.8,100.6
		c96.9,71.2,172.4,171.1,214.1,283.9c-387.8-0.1-775.6,0-1163.3-0.1C80.2,291,156.1,190.9,253.5,119.7
		c62.5-45.9,133.7-80,208.7-99.6C508,8,555.2,1.6,602.5,0z"/>
</g>
<g>
	<path style="fill:#0052B4;" d="M38.4,404.2c387.8,0.1,775.6-0.1,1163.3,0.1c23,61.8,35.7,127.3,38.2,193.1v45.3
		c-2.5,65.8-15.2,131.3-38.2,193c-387.8,0-775.6,0-1163.5,0C14.8,772.4,2.1,705.1,0,637.6v-35.1C2.1,534.9,14.8,467.6,38.4,404.2z"
		/>
</g>
<g>
	<path style="fill:#D80027;" d="M38.4,835.8c387.8-0.1,775.6,0,1163.5,0c-41,111-114.8,209.6-209.5,280.5
		c-63.2,47.6-135.7,82.9-212.2,103.2c-44.8,12-91,18.6-137.4,20.5h-45.2c-48.5-2-96.8-9.1-143.5-22.2c-78.2-21.6-151.9-59-215.8-109
		C148.1,1038.6,77.9,943,38.4,835.8z"/>
</g>
</svg>
