<?xml version="1.0" encoding="UTF-8" standalone="no"?>
<!-- Generator: Adobe Illustrator 18.1.1, SVG Export Plug-In . SVG Version: 6.00 Build 0)  -->

<svg
   xmlns:dc="http://purl.org/dc/elements/1.1/"
   xmlns:cc="http://creativecommons.org/ns#"
   xmlns:rdf="http://www.w3.org/1999/02/22-rdf-syntax-ns#"
   xmlns:svg="http://www.w3.org/2000/svg"
   xmlns="http://www.w3.org/2000/svg"
   xmlns:sodipodi="http://sodipodi.sourceforge.net/DTD/sodipodi-0.dtd"
   xmlns:inkscape="http://www.inkscape.org/namespaces/inkscape"
   version="1.1"
   id="Layer_1"
   x="0px"
   y="0px"
   viewBox="0 0 128.07793 127.76035"
   xml:space="preserve"
   inkscape:version="0.91 r13725"
   sodipodi:docname="spanish_flag.svg"
   width="128.07793"
   height="127.76035"><metadata
     id="metadata17"><rdf:RDF><cc:Work
         rdf:about=""><dc:format>image/svg+xml</dc:format><dc:type
           rdf:resource="http://purl.org/dc/dcmitype/StillImage" /><dc:title></dc:title></cc:Work></rdf:RDF></metadata><defs
     id="defs15" /><sodipodi:namedview
     pagecolor="#ffffff"
     bordercolor="#666666"
     borderopacity="1"
     objecttolerance="10"
     gridtolerance="10"
     guidetolerance="10"
     inkscape:pageopacity="0"
     inkscape:pageshadow="2"
     inkscape:window-width="640"
     inkscape:window-height="480"
     id="namedview13"
     showgrid="false"
     fit-margin-top="0"
     fit-margin-left="0"
     fit-margin-right="0"
     fit-margin-bottom="0"
     inkscape:zoom="0.41843972"
     inkscape:cx="-135.95867"
     inkscape:cy="63.866388"
     inkscape:window-x="0"
     inkscape:window-y="0"
     inkscape:window-maximized="0"
     inkscape:current-layer="Layer_1" /><g
     id="g3"
     transform="translate(-435.95867,-218.10603)"><path
       style="fill:#d80027"
       d="m 458.4,233.5 c 12.2,-10.6 28.5,-16.2 44.6,-15.3 14.3,0.6 28.2,6.3 38.9,15.7 8.1,6.9 14,16 18,25.8 -1.7,0 -3.4,0.1 -5.1,0.1 -36.6,-0.1 -73.2,-0.1 -109.8,0 -1.7,0 -3.4,-0.1 -5.1,-0.1 4.1,-10 10.2,-19.2 18.5,-26.2 z"
       id="path5"
       inkscape:connector-curvature="0" /><path
       style="fill:#d80027"
       d="m 445.1,304.2 c 36.6,0.1 73.1,0.1 109.7,0 1.7,0 3.4,0 5.2,0.1 -5.2,13.1 -14.4,24.9 -26.6,32.1 -14.6,9.1 -33,11.8 -49.5,7.4 -20,-4.9 -36.6,-20.4 -43.9,-39.5 1.7,-0.1 3.4,-0.1 5.1,-0.1 z"
       id="path7"
       inkscape:connector-curvature="0" /></g><g
     id="g9"
     transform="translate(-435.95867,-218.10603)"><path
       style="fill:#ffda44"
       d="m 436.1,278.9 c 0.1,-6.5 2.1,-12.7 3.8,-19 1.7,0 3.4,-0.1 5.2,-0.1 36.6,-0.1 73.2,-0.1 109.8,0 1.7,0 3.5,0.1 5.2,0.2 2.4,8.1 4.5,16.5 3.8,25.1 -0.1,6.5 -2.1,12.8 -3.8,19 -1.8,0 -3.5,0.1 -5.2,0.2 -36.6,0.1 -73.2,0.1 -109.7,0 -1.8,-0.1 -3.5,-0.1 -5.3,-0.2 -2.5,-8.2 -4.5,-16.6 -3.8,-25.2 z"
       id="path11"
       inkscape:connector-curvature="0" /></g></svg>