<?xml version="1.0" encoding="UTF-8" standalone="no"?>
<!-- Generator: Adobe Illustrator 18.1.1, SVG Export Plug-In . SVG Version: 6.00 Build 0)  -->

<svg
   xmlns:dc="http://purl.org/dc/elements/1.1/"
   xmlns:cc="http://creativecommons.org/ns#"
   xmlns:rdf="http://www.w3.org/1999/02/22-rdf-syntax-ns#"
   xmlns:svg="http://www.w3.org/2000/svg"
   xmlns="http://www.w3.org/2000/svg"
   xmlns:sodipodi="http://sodipodi.sourceforge.net/DTD/sodipodi-0.dtd"
   xmlns:inkscape="http://www.inkscape.org/namespaces/inkscape"
   version="1.1"
   id="Layer_1"
   x="0px"
   y="0px"
   viewBox="0 0 128.1787 128.29295"
   xml:space="preserve"
   inkscape:version="0.91 r13725"
   sodipodi:docname="us_flag.svg"
   width="128.1787"
   height="128.29295"><metadata
     id="metadata49"><rdf:RDF><cc:Work
         rdf:about=""><dc:format>image/svg+xml</dc:format><dc:type
           rdf:resource="http://purl.org/dc/dcmitype/StillImage" /><dc:title></dc:title></cc:Work></rdf:RDF></metadata><defs
     id="defs47" /><sodipodi:namedview
     pagecolor="#ffffff"
     bordercolor="#666666"
     borderopacity="1"
     objecttolerance="10"
     gridtolerance="10"
     guidetolerance="10"
     inkscape:pageopacity="0"
     inkscape:pageshadow="2"
     inkscape:window-width="640"
     inkscape:window-height="480"
     id="namedview45"
     showgrid="false"
     fit-margin-top="0"
     fit-margin-left="0"
     fit-margin-right="0"
     fit-margin-bottom="0"
     inkscape:zoom="0.41843972"
     inkscape:cx="64.1"
     inkscape:cy="-123.75"
     inkscape:window-x="0"
     inkscape:window-y="0"
     inkscape:window-maximized="0"
     inkscape:current-layer="Layer_1" /><g
     id="g3"
     transform="translate(-235.9,-29.95704)"><path
       style="fill:#f0f0f0"
       d="m 300,30 c 14.3,0.1 28.6,5 39.8,13.9 -13.3,0 -26.5,0 -39.8,0 0,-4.6 0,-9.3 0,-13.9 z"
       id="path5"
       inkscape:connector-curvature="0" /><path
       style="fill:#f0f0f0"
       d="m 285.5,33.8 c 0.8,2 1.5,4.1 2.2,6.2 2.2,0 4.4,0 6.6,0.1 -1.8,1.3 -3.6,2.6 -5.3,3.9 0.7,2 1.4,4.1 2,6.1 -1.8,-1.2 -3.6,-2.4 -5.3,-3.7 -1.8,1.3 -3.6,2.5 -5.5,3.7 0.7,-2.1 1.3,-4.1 2,-6.2 -1.8,-1.3 -3.5,-2.6 -5.3,-3.9 2.2,-0.1 4.4,-0.1 6.7,-0.2 0.7,-2 1.3,-4 1.9,-6 z"
       id="path7"
       inkscape:connector-curvature="0" /><path
       style="fill:#f0f0f0"
       d="m 258.8,44.9 c 2.4,-1.7 4.7,-3.5 7.1,-5.2 1.8,0.1 3.6,0.3 5.4,0.4 -1.8,1.3 -3.5,2.5 -5.3,3.8 0.7,2.1 1.4,4.2 2,6.2 -1.8,-1.2 -3.6,-2.5 -5.3,-3.8 -1.8,1.2 -3.5,2.5 -5.3,3.7 0.5,-1.6 1,-3.3 1.4,-5.1 z"
       id="path9"
       inkscape:connector-curvature="0" /><path
       style="fill:#f0f0f0"
       d="m 262.5,52.5 c 0.9,2 1.6,4 2.2,6 2.1,0 4.2,0.1 6.3,0.1 -1.6,1.4 -3.2,2.7 -4.9,3.8 0.6,2.1 1.2,4.3 1.7,6.4 -1.7,-1.3 -3.4,-2.6 -5.1,-3.9 -1.8,1.3 -3.6,2.6 -5.5,3.9 0.6,-2 1.3,-4.1 2,-6.1 -1.7,-1.4 -3.4,-2.7 -5.1,-4.1 2.1,0 4.3,0 6.4,0 0.8,-2 1.4,-4 2,-6.1 z"
       id="path11"
       inkscape:connector-curvature="0" /><path
       style="fill:#f0f0f0"
       d="m 285.5,52.7 c 0.9,1.9 1.6,3.9 2.2,5.9 2.1,0 4.3,0.1 6.4,0.1 -1.6,1.3 -3.2,2.6 -5,3.7 0.6,2.1 1.2,4.3 1.8,6.5 -1.7,-1.3 -3.4,-2.6 -5.1,-3.9 -1.9,1.3 -3.7,2.6 -5.5,3.8 0.6,-2.1 1.3,-4.1 2.1,-6.1 -1.7,-1.4 -3.5,-2.7 -5.2,-4.1 2.1,0 4.3,0 6.4,0 0.6,-2 1.3,-4 1.9,-5.9 z"
       id="path13"
       inkscape:connector-curvature="0" /><path
       style="fill:#f0f0f0"
       d="m 300,60.6 c 18.2,0 36.4,0.1 54.6,0 3,5.3 5.7,10.9 7.1,16.8 -20.6,-0.2 -41.1,0 -61.7,-0.1 0,-5.6 0,-11.1 0,-16.7 z"
       id="path15"
       inkscape:connector-curvature="0" /><path
       style="fill:#f0f0f0"
       d="m 241.4,67.8 c 0.9,-1.4 1.7,-3 2.3,-4.6 0.3,1.9 0.8,3.8 1.4,5.6 -1.2,-0.5 -2.4,-2.4 -3.7,-1 z"
       id="path17"
       inkscape:connector-curvature="0" /><path
       style="fill:#f0f0f0"
       d="m 236,92.1 c 0,-6.9 1.7,-13.8 4,-20.4 0.5,1.9 1.2,3.7 1.8,5.5 2.2,0 4.4,0 6.5,0 -1.7,1.3 -3.5,2.6 -5.3,4 0.7,2.1 1.3,4.1 1.9,6.2 -1.8,-1.2 -3.5,-2.5 -5.2,-3.8 -1.1,0.7 -2.2,1.5 -3.2,2.2 -0.1,2.2 -0.3,4.3 -0.5,6.3 z"
       id="path19"
       inkscape:connector-curvature="0" /><path
       style="fill:#f0f0f0"
       d="m 262.6,71.1 c 0.8,2.1 1.5,4.1 2.2,6.2 2.1,0 4.2,0 6.4,0 -1.7,1.4 -3.4,2.7 -5.1,3.9 0.6,2 1.3,4 1.9,6 -1.8,-1.1 -3.5,-2.3 -5.2,-3.6 -1.9,1.3 -3.7,2.6 -5.5,3.9 0.7,-2.1 1.4,-4.3 2,-6.5 -1.8,-1.2 -3.6,-2.5 -5.3,-3.8 2.3,0 4.5,0 6.8,-0.1 0.5,-1.9 1.1,-4 1.8,-6 z"
       id="path21"
       inkscape:connector-curvature="0" /><path
       style="fill:#f0f0f0"
       d="m 285.6,71.1 c 0.8,2.1 1.5,4.1 2.2,6.2 2.2,0 4.3,0 6.5,0 -1.7,1.4 -3.5,2.7 -5.3,4 0.7,2 1.3,4 1.9,6 -1.8,-1.1 -3.6,-2.3 -5.3,-3.6 -1.7,1.3 -3.5,2.4 -5.3,3.5 0.6,-2 1.3,-4 1.9,-6 -1.8,-1.3 -3.6,-2.5 -5.3,-3.8 2.2,-0.2 4.6,0.4 6.7,-0.4 0.8,-2 1.4,-4 2,-5.9 z"
       id="path23"
       inkscape:connector-curvature="0" /><path
       style="fill:#f0f0f0"
       d="m 235.9,94 c 21.4,0 42.7,0 64.1,0 21.3,0 42.7,0 64,0 -0.1,6.5 -1.1,12.9 -2.8,19.1 0.1,-0.6 0.3,-1.8 0.4,-2.5 -41.1,0 -82.2,0 -123.3,0 0.1,0.6 0.3,1.8 0.4,2.4 -1.6,-6.2 -2.5,-12.6 -2.8,-19 z"
       id="path25"
       inkscape:connector-curvature="0" /><path
       style="fill:#f0f0f0"
       d="m 245.3,127.4 c 36.5,0.1 73,0.1 109.5,0 -4.1,6.3 -9.1,11.9 -14.8,16.8 l -0.6,0.2 c -2.4,-0.3 -4.9,-0.4 -7.4,-0.3 -19.7,0 -39.4,0 -59.1,0 -4.1,0 -8.2,-0.2 -12.3,0.3 -6,-4.7 -11.1,-10.6 -15.3,-17 z"
       id="path27"
       inkscape:connector-curvature="0" /></g><g
     id="g29"
     transform="translate(-235.9,-29.95704)"><path
       style="fill:#d80027"
       d="m 300,43.9 c 13.3,0 26.5,0 39.8,0 l 0.4,0 c 5.5,4.9 10.7,10.2 14.4,16.7 -18.2,0.1 -36.4,0 -54.6,0 0,-5.6 0,-11.1 0,-16.7 z"
       id="path31"
       inkscape:connector-curvature="0" /><path
       style="fill:#d80027"
       d="m 300,77.3 c 20.6,0.1 41.1,-0.1 61.7,0.1 l 0.4,0 c 1.1,5.5 2.3,11 1.9,16.6 -21.3,0 -42.7,0 -64,0 0,-5.6 0,-11.1 0,-16.7 z"
       id="path33"
       inkscape:connector-curvature="0" /><path
       style="fill:#d80027"
       d="m 238.4,110.7 c 41.1,0 82.2,0 123.3,0 -0.1,0.6 -0.3,1.8 -0.4,2.5 l -0.2,1 c -0.3,0.4 -0.8,1.4 -1,1.8 -0.7,4.2 -3.2,7.8 -5.2,11.5 -36.5,0.1 -73,0.1 -109.5,0 -2,-3.7 -4.5,-7.3 -5.3,-11.5 -0.3,-0.4 -0.8,-1.4 -1,-1.8 l -0.2,-1 c -0.2,-0.7 -0.4,-1.9 -0.5,-2.5 z"
       id="path35"
       inkscape:connector-curvature="0" /><path
       style="fill:#d80027"
       d="m 260.6,144.4 c 4.1,-0.6 8.2,-0.3 12.3,-0.3 19.7,0 39.4,0 59.1,0 2.5,-0.1 4.9,0 7.4,0.3 -5.9,4.9 -13,8.9 -20.5,10.7 -1,0 -2,0.3 -2.8,0.9 -10.3,3 -21.7,3 -32,0 -0.9,-0.6 -1.8,-0.9 -2.8,-0.9 -7.7,-1.8 -14.7,-5.8 -20.7,-10.7 z"
       id="path37"
       inkscape:connector-curvature="0" /></g><g
     id="g39"
     transform="translate(-235.9,-29.95704)"><g
       id="g41"><path
         style="fill:#0052b4"
         d="m 280,33 c 6.4,-2 13.2,-3.3 20,-3 0,4.6 0,9.3 0,13.9 0,5.6 0,11.1 0,16.7 0,5.6 0,11.1 0,16.7 0,5.6 0,11.1 0,16.7 -21.4,0 -42.7,0 -64.1,0 0,-0.5 0.1,-1.4 0.1,-1.8 0.2,-2.1 0.4,-4.2 0.6,-6.3 1.1,-0.7 2.1,-1.5 3.2,-2.2 1.7,1.3 3.5,2.5 5.2,3.8 -0.6,-2.1 -1.3,-4.1 -1.9,-6.2 1.8,-1.3 3.5,-2.6 5.3,-4 -2.2,0 -4.4,0 -6.5,0 -0.6,-1.8 -1.3,-3.7 -1.8,-5.5 0,-1.4 0.8,-2.7 1.4,-3.9 1.3,-1.4 2.5,0.5 3.7,1 -0.6,-1.8 -1.1,-3.7 -1.4,-5.6 3.9,-6.9 8.9,-13.3 15.1,-18.3 -0.5,1.7 -0.9,3.5 -1.4,5.2 1.8,-1.2 3.5,-2.5 5.3,-3.7 1.8,1.3 3.5,2.5 5.3,3.8 -0.7,-2.1 -1.3,-4.2 -2,-6.2 1.8,-1.3 3.5,-2.6 5.3,-3.8 -1.8,-0.1 -3.6,-0.3 -5.4,-0.4 3.8,-2.4 7.8,-4.8 12.2,-5.8 0.4,-0.4 1.3,-0.9 1.8,-1.1 z m 5.5,0.8 c -0.6,2 -1.3,4 -1.8,6.1 -2.2,0.1 -4.4,0.1 -6.7,0.2 1.7,1.3 3.5,2.6 5.3,3.9 -0.7,2 -1.4,4.1 -2,6.2 1.8,-1.2 3.6,-2.5 5.5,-3.7 1.7,1.3 3.5,2.5 5.3,3.7 -0.6,-2.1 -1.3,-4.1 -2,-6.1 1.8,-1.3 3.6,-2.6 5.3,-3.9 -2.2,-0.1 -4.4,-0.1 -6.6,-0.1 -0.7,-2.2 -1.4,-4.3 -2.3,-6.3 z m -23,18.7 c -0.6,2 -1.3,4.1 -1.9,6.1 -2.1,0 -4.3,0 -6.4,0 1.7,1.4 3.4,2.7 5.1,4.1 -0.7,2 -1.4,4.1 -2,6.1 1.8,-1.3 3.6,-2.6 5.5,-3.9 1.7,1.3 3.4,2.6 5.1,3.9 -0.5,-2.2 -1.1,-4.3 -1.7,-6.4 1.7,-1.1 3.4,-2.4 4.9,-3.8 -2.1,0 -4.2,-0.1 -6.3,-0.1 -0.7,-2 -1.4,-4 -2.3,-6 z m 23,0.2 c -0.7,2 -1.3,4 -1.9,6 -2.1,0 -4.3,0 -6.4,0 1.7,1.4 3.4,2.7 5.2,4.1 -0.7,2 -1.4,4 -2.1,6.1 1.8,-1.3 3.7,-2.6 5.5,-3.8 1.7,1.3 3.4,2.6 5.1,3.9 -0.6,-2.2 -1.2,-4.3 -1.8,-6.5 1.8,-1.1 3.4,-2.4 5,-3.7 -2.1,-0.1 -4.3,-0.1 -6.4,-0.1 -0.6,-2.2 -1.3,-4.1 -2.2,-6 z m -22.9,18.4 c -0.6,2 -1.3,4.1 -1.9,6.1 -2.3,0.1 -4.5,0.1 -6.8,0.1 1.8,1.3 3.5,2.6 5.3,3.8 -0.6,2.2 -1.3,4.3 -2,6.5 1.8,-1.3 3.6,-2.7 5.5,-3.9 1.7,1.3 3.4,2.5 5.2,3.6 -0.6,-2 -1.3,-4 -1.9,-6 1.8,-1.3 3.5,-2.6 5.1,-3.9 -2.1,0 -4.2,0 -6.4,0 -0.6,-2.2 -1.3,-4.3 -2.1,-6.3 z m 23,0 c -0.6,2 -1.1,4 -1.9,5.9 -2.1,0.8 -4.5,0.2 -6.7,0.4 1.8,1.3 3.5,2.6 5.3,3.8 -0.6,2 -1.3,4 -1.9,6 1.9,-1.1 3.6,-2.2 5.3,-3.5 1.7,1.3 3.4,2.5 5.3,3.6 -0.6,-2 -1.3,-4 -1.9,-6 1.8,-1.3 3.5,-2.6 5.3,-4 -2.2,0 -4.3,0 -6.5,0 -0.8,-2.1 -1.5,-4.2 -2.3,-6.2 z"
         id="path43"
         inkscape:connector-curvature="0" /></g></g></svg>