<?xml version="1.0" encoding="UTF-8" ?>
<!DOCTYPE svg PUBLIC "-//W3C//DTD SVG 1.1//EN" "http://www.w3.org/Graphics/SVG/1.1/DTD/svg11.dtd">
<svg width="1474pt" height="350pt" viewBox="0 0 1474 350" version="1.1" xmlns="http://www.w3.org/2000/svg">
<g id="#ffffffff">
<path fill="#ffffff" opacity="1.00" d=" M 0.00 1.38 C 42.66 0.21 85.34 1.75 128.00 0.89 C 141.09 0.84 154.16 1.85 167.25 1.89 C 183.09 1.07 198.96 0.64 214.81 1.28 C 215.00 12.33 214.98 23.38 214.73 34.43 C 202.32 34.78 189.90 34.78 177.49 34.59 C 129.41 35.63 81.31 34.17 33.22 35.28 C 32.86 55.85 33.08 76.43 32.70 97.01 C 32.47 105.27 32.47 113.54 33.14 121.79 C 93.70 122.76 154.27 121.40 214.83 122.28 C 215.02 133.35 214.89 144.43 214.36 155.50 C 166.50 154.24 118.61 155.62 70.74 154.70 C 47.16 155.02 23.57 155.43 0.00 154.45 L 0.00 1.38 M 163.15 3.40 C 162.30 7.38 167.14 2.59 163.15 3.40 M 156.13 4.95 C 155.92 5.23 155.52 5.80 155.31 6.08 C 156.16 9.22 159.48 4.42 156.13 4.95 M 180.80 5.17 C 180.35 6.59 182.74 7.10 183.20 5.83 C 183.65 4.41 181.25 3.90 180.80 5.17 M 161.14 7.11 C 159.82 7.80 159.81 8.47 161.11 9.14 C 162.43 8.46 162.44 7.78 161.14 7.11 M 122.13 24.37 C 120.93 25.19 122.29 27.31 123.45 26.22 C 124.65 25.38 123.32 23.32 122.13 24.37 M 173.15 24.40 C 172.30 28.38 177.14 23.59 173.15 24.40 M 16.13 75.95 C 15.92 76.23 15.52 76.80 15.31 77.08 C 16.16 80.22 19.48 75.42 16.13 75.95 M 29.15 82.40 C 28.30 86.38 33.14 81.59 29.15 82.40 M 25.04 95.51 C 23.81 95.60 23.23 97.43 24.23 98.18 C 25.89 99.08 27.01 95.60 25.04 95.51 M 24.15 103.40 C 23.30 107.38 28.14 102.59 24.15 103.40 M 128.20 135.52 C 126.34 136.41 127.98 139.11 129.70 138.16 C 131.56 137.40 129.77 134.65 128.20 135.52 Z" />
<path fill="#ffffff" opacity="1.00" d=" M 249.35 1.84 C 277.20 0.13 305.12 1.37 333.00 1.00 C 376.90 1.37 420.79 0.77 464.68 1.23 C 465.29 33.48 465.14 65.75 464.57 98.01 C 464.65 117.21 465.85 136.45 464.40 155.63 C 408.21 154.04 351.98 155.71 295.78 154.75 C 280.43 155.08 265.05 154.62 249.71 155.48 C 248.39 135.01 249.16 114.49 249.01 94.00 C 249.14 63.28 248.63 32.55 249.35 1.84 M 387.13 1.95 C 386.92 2.23 386.52 2.80 386.31 3.08 C 387.16 6.22 390.47 1.42 387.13 1.95 M 316.53 6.12 C 316.67 6.44 316.96 7.08 317.10 7.41 C 319.70 8.02 317.95 3.94 316.53 6.12 M 354.15 19.40 C 353.30 23.38 358.14 18.59 354.15 19.40 M 359.23 24.37 C 357.17 25.35 359.98 28.02 361.29 26.60 C 362.07 25.41 360.42 23.92 359.23 24.37 M 366.27 27.54 C 365.12 28.41 366.59 30.38 367.73 29.46 C 368.87 28.58 367.40 26.62 366.27 27.54 M 283.24 35.31 C 282.78 59.31 283.14 83.33 282.46 107.32 C 281.94 111.92 281.93 116.56 283.01 121.09 C 306.06 121.99 329.13 120.37 352.16 121.75 C 378.34 119.17 404.62 123.30 430.78 120.54 C 431.17 92.12 431.21 63.68 430.69 35.27 C 410.81 34.06 390.90 35.58 371.03 34.33 C 341.77 35.22 312.50 34.75 283.24 35.31 M 277.15 53.40 C 276.30 57.38 281.14 52.59 277.15 53.40 M 447.15 56.40 C 446.30 60.38 451.14 55.59 447.15 56.40 M 274.16 96.16 C 273.24 100.16 278.16 95.25 274.16 96.16 M 460.14 96.11 C 458.81 96.80 458.81 97.47 460.11 98.14 C 461.43 97.46 461.43 96.78 460.14 96.11 M 274.15 103.40 C 273.30 107.38 278.14 102.59 274.15 103.40 M 394.09 126.24 C 392.91 125.51 390.77 127.33 392.38 128.24 C 393.61 129.12 395.70 127.15 394.09 126.24 M 284.54 143.27 C 283.62 144.41 285.58 145.87 286.46 144.73 C 287.38 143.59 285.41 142.13 284.54 143.27 M 273.17 144.17 C 272.65 145.80 273.20 146.35 274.83 145.83 C 275.35 144.20 274.79 143.65 273.17 144.17 M 281.15 144.40 C 280.30 148.38 285.14 143.59 281.15 144.40 Z" />
<path fill="#ffffff" opacity="1.00" d=" M 499.24 1.32 C 552.09 0.51 604.95 1.46 657.81 1.03 C 657.64 1.45 657.30 2.30 657.12 2.72 C 660.65 1.96 664.20 1.30 667.78 0.72 C 667.61 1.18 667.27 2.11 667.10 2.58 C 682.49 0.05 698.16 0.85 713.69 1.24 C 714.02 12.16 714.04 23.07 714.01 33.99 C 653.49 34.21 592.97 33.61 532.46 34.28 C 532.58 43.04 532.58 51.79 532.61 60.55 C 540.93 61.56 549.31 61.68 557.68 61.52 C 585.04 61.81 612.41 60.89 639.77 61.61 C 647.37 61.84 654.98 61.34 662.59 61.63 C 664.98 61.71 667.02 63.14 669.05 64.27 C 669.23 63.37 669.42 62.48 669.62 61.58 C 684.49 62.41 699.47 60.15 714.24 62.31 C 713.18 91.20 714.32 120.10 713.98 149.00 C 716.84 157.41 707.10 154.34 703.02 155.09 C 657.68 154.76 612.34 155.41 567.00 154.65 C 544.44 154.58 521.87 155.53 499.30 154.76 C 498.98 144.16 498.95 133.56 498.98 122.97 C 559.66 123.33 620.35 123.03 681.04 122.98 C 681.02 113.83 680.98 104.67 680.77 95.52 C 674.52 94.89 668.26 93.78 661.96 94.56 C 637.31 95.04 612.65 94.42 587.99 94.81 C 559.36 95.61 530.72 93.49 502.11 94.90 C 497.06 93.81 499.75 86.50 498.90 83.03 C 500.23 55.80 498.14 28.56 499.24 1.32 M 663.15 3.40 C 662.29 7.38 667.14 2.59 663.15 3.40 M 656.13 4.95 C 655.92 5.23 655.52 5.80 655.31 6.08 C 656.16 9.22 659.47 4.42 656.13 4.95 M 680.80 5.17 C 680.34 6.59 682.73 7.10 683.20 5.83 C 683.64 4.41 681.25 3.90 680.80 5.17 M 661.14 7.11 C 659.81 7.80 659.80 8.47 661.11 9.14 C 662.42 8.46 662.43 7.78 661.14 7.11 M 622.13 24.37 C 620.92 25.19 622.28 27.31 623.45 26.22 C 624.65 25.38 623.31 23.32 622.13 24.37 M 673.15 24.40 C 672.29 28.38 677.14 23.59 673.15 24.40 M 690.15 63.40 C 689.29 67.38 694.14 62.59 690.15 63.40 M 695.14 65.12 C 693.64 65.51 694.45 67.84 695.87 67.28 C 697.36 66.91 696.51 64.57 695.14 65.12 M 516.13 75.95 C 515.92 76.23 515.52 76.80 515.31 77.08 C 516.16 80.22 519.47 75.42 516.13 75.95 M 529.15 82.40 C 528.30 86.38 533.14 81.59 529.15 82.40 M 710.14 96.11 C 708.81 96.80 708.80 97.47 710.11 98.14 C 711.42 97.46 711.43 96.78 710.14 96.11 M 628.20 135.52 C 626.34 136.41 627.98 139.11 629.70 138.16 C 631.56 137.40 629.77 134.65 628.20 135.52 Z" />
<path fill="#ffffff" opacity="1.00" d=" M 1248.15 1.05 C 1319.10 0.95 1390.06 1.01 1461.02 1.01 C 1461.05 11.91 1461.03 22.80 1460.77 33.69 C 1429.64 34.30 1398.49 34.22 1367.39 33.13 C 1338.38 35.03 1309.31 33.31 1280.29 34.27 C 1279.96 42.80 1279.70 51.33 1280.06 59.86 C 1284.99 61.91 1290.74 60.66 1295.98 61.30 C 1350.88 60.84 1405.80 60.79 1460.71 61.27 C 1461.18 73.26 1461.13 85.28 1460.35 97.26 C 1461.11 116.39 1461.34 135.56 1460.70 154.71 C 1424.31 154.33 1387.92 155.01 1351.53 154.63 C 1317.02 155.41 1282.52 153.88 1248.02 154.89 C 1247.97 143.93 1247.97 132.97 1248.01 122.01 C 1308.04 121.50 1368.12 123.07 1428.13 121.35 C 1428.16 112.22 1427.74 103.10 1427.26 93.99 C 1406.56 93.93 1385.85 94.40 1365.18 93.33 C 1326.13 95.12 1287.07 93.01 1248.02 94.04 C 1247.93 63.04 1247.99 32.04 1248.15 1.05 M 1387.13 1.95 C 1386.92 2.23 1386.52 2.80 1386.31 3.08 C 1387.15 6.22 1390.47 1.42 1387.13 1.95 M 1316.53 6.12 C 1316.67 6.44 1316.96 7.08 1317.10 7.41 C 1319.69 8.02 1317.93 3.94 1316.53 6.12 M 1354.15 19.40 C 1353.29 23.38 1358.13 18.59 1354.15 19.40 M 1359.23 24.37 C 1357.16 25.35 1359.97 28.02 1361.29 26.60 C 1362.06 25.41 1360.41 23.92 1359.23 24.37 M 1366.27 27.54 C 1365.11 28.41 1366.57 30.38 1367.73 29.46 C 1368.85 28.58 1367.39 26.62 1366.27 27.54 M 1277.15 53.40 C 1276.29 57.38 1281.13 52.59 1277.15 53.40 M 1290.15 64.40 C 1289.29 68.38 1294.13 63.59 1290.15 64.40 M 1297.54 66.27 C 1296.60 67.41 1298.57 68.87 1299.46 67.73 C 1300.36 66.59 1298.40 65.13 1297.54 66.27 M 1387.17 72.17 C 1386.63 73.80 1387.19 74.35 1388.83 73.83 C 1389.33 72.20 1388.78 71.65 1387.17 72.17 M 1311.15 84.40 C 1310.29 88.38 1315.13 83.59 1311.15 84.40 M 1394.09 126.24 C 1392.89 125.51 1390.77 127.33 1392.38 128.24 C 1393.59 129.12 1395.69 127.15 1394.09 126.24 M 1284.54 143.27 C 1283.60 144.41 1285.57 145.87 1286.46 144.73 C 1287.36 143.59 1285.40 142.13 1284.54 143.27 M 1273.17 144.17 C 1272.63 145.80 1273.19 146.35 1274.83 145.83 C 1275.34 144.20 1274.78 143.65 1273.17 144.17 M 1281.15 144.40 C 1280.29 148.38 1285.13 143.59 1281.15 144.40 Z" />
<path fill="#ffffff" opacity="1.00" d=" M 750.01 1.98 C 761.24 2.18 772.47 2.32 783.71 2.15 C 807.22 33.60 831.88 64.18 856.24 94.97 C 880.43 63.90 905.08 33.19 929.21 2.07 C 940.69 1.96 952.19 1.82 963.68 2.23 C 964.60 28.82 963.43 55.41 963.92 82.00 C 963.16 106.52 965.12 131.09 963.29 155.58 C 952.42 154.95 941.52 154.96 930.67 155.60 C 929.88 122.66 930.11 89.70 929.87 56.76 C 907.10 83.87 886.16 112.46 863.88 139.97 C 858.62 139.99 853.37 139.97 848.13 139.93 C 829.94 117.08 812.20 93.86 794.11 70.93 C 791.04 65.20 786.39 60.65 781.99 55.95 C 781.63 67.92 781.81 79.89 781.81 91.87 C 780.82 112.80 782.38 133.74 781.74 154.69 C 771.14 155.01 760.55 155.04 749.97 155.02 C 750.44 104.02 749.69 53.00 750.01 1.98 M 777.15 53.40 C 776.29 57.38 781.14 52.59 777.15 53.40 M 947.15 56.40 C 946.29 60.38 951.14 55.59 947.15 56.40 M 797.54 66.27 C 796.61 67.41 798.57 68.87 799.46 67.73 C 800.37 66.59 798.40 65.13 797.54 66.27 M 887.17 72.17 C 886.64 73.80 887.19 74.35 888.83 73.83 C 889.34 72.20 888.79 71.65 887.17 72.17 M 811.15 84.40 C 810.29 88.38 815.14 83.59 811.15 84.40 M 865.14 92.11 C 863.81 92.80 863.80 93.47 865.11 94.14 C 866.42 93.46 866.43 92.78 865.14 92.11 M 774.16 96.16 C 773.24 100.16 778.16 95.25 774.16 96.16 M 960.14 96.11 C 958.81 96.80 958.80 97.47 960.11 98.14 C 961.42 97.46 961.43 96.78 960.14 96.11 M 774.15 103.40 C 773.29 107.38 778.14 102.59 774.15 103.40 M 852.40 106.15 C 851.96 107.55 852.44 108.03 853.85 107.60 C 854.28 106.20 853.79 105.71 852.40 106.15 M 859.60 108.41 C 858.48 109.44 860.14 111.57 861.40 110.59 C 862.50 109.56 860.84 107.43 859.60 108.41 M 856.03 110.92 C 857.38 112.35 858.66 113.84 859.97 115.30 C 859.38 113.09 858.76 110.89 858.12 108.70 C 857.40 109.43 856.72 110.17 856.03 110.92 M 851.15 111.40 C 850.29 115.38 855.14 110.59 851.15 111.40 M 850.53 117.12 C 850.67 117.44 850.96 118.08 851.10 118.41 C 853.69 119.02 851.94 114.94 850.53 117.12 M 773.17 144.17 C 772.64 145.80 773.19 146.35 774.83 145.83 C 775.34 144.20 774.79 143.65 773.17 144.17 Z" />
<path fill="#ffffff" opacity="1.00" d=" M 998.01 2.01 C 1069.67 1.51 1141.34 2.78 1212.99 1.99 C 1213.00 12.93 1213.03 23.87 1212.97 34.82 C 1212.57 34.64 1211.76 34.30 1211.36 34.13 C 1213.01 42.77 1213.86 51.95 1210.67 60.38 C 1211.43 59.56 1212.20 58.75 1212.99 57.94 C 1212.87 90.19 1213.32 122.44 1212.73 154.69 C 1141.39 155.90 1070.03 153.77 998.71 155.48 C 997.08 104.36 998.43 53.16 998.01 2.01 M 1163.15 3.40 C 1162.29 7.38 1167.13 2.59 1163.15 3.40 M 1156.13 4.95 C 1155.92 5.23 1155.52 5.80 1155.31 6.08 C 1156.15 9.22 1159.47 4.42 1156.13 4.95 M 1180.80 5.17 C 1180.33 6.59 1182.73 7.10 1183.20 5.83 C 1183.64 4.41 1181.24 3.90 1180.80 5.17 M 1161.14 7.11 C 1159.81 7.80 1159.80 8.47 1161.11 9.14 C 1162.42 8.46 1162.43 7.78 1161.14 7.11 M 1122.13 24.37 C 1120.91 25.19 1122.27 27.31 1123.45 26.22 C 1124.64 25.38 1123.30 23.32 1122.13 24.37 M 1173.15 24.40 C 1172.29 28.38 1177.13 23.59 1173.15 24.40 M 1031.24 35.31 C 1030.81 51.14 1031.06 66.97 1030.95 82.79 C 1030.59 82.61 1029.87 82.25 1029.51 82.08 C 1032.04 95.18 1030.04 108.67 1031.05 121.92 C 1053.38 123.47 1075.79 121.25 1098.12 122.77 C 1102.25 123.13 1106.45 123.25 1110.60 122.85 C 1124.94 121.95 1139.31 122.45 1153.67 122.48 C 1162.38 122.35 1171.40 123.07 1179.85 120.84 C 1180.21 92.31 1180.16 63.77 1179.69 35.24 C 1130.21 34.87 1080.71 34.75 1031.24 35.31 M 1186.19 49.67 C 1184.76 49.76 1184.30 52.41 1185.96 52.49 C 1187.44 52.46 1187.83 49.73 1186.19 49.67 M 1210.14 52.11 C 1208.81 52.80 1208.80 53.47 1210.11 54.14 C 1211.42 53.46 1211.43 52.78 1210.14 52.11 M 1181.15 53.40 C 1180.29 57.38 1185.13 52.59 1181.15 53.40 M 1190.15 63.40 C 1189.29 67.38 1194.13 62.59 1190.15 63.40 M 1195.14 65.11 C 1193.81 65.80 1193.80 66.47 1195.11 67.14 C 1196.42 66.46 1196.43 65.78 1195.14 65.11 M 1016.13 75.95 C 1015.92 76.23 1015.52 76.80 1015.31 77.08 C 1016.15 80.22 1019.47 75.42 1016.13 75.95 M 1024.13 96.37 C 1022.92 97.19 1024.28 99.31 1025.45 98.22 C 1026.64 97.38 1025.31 95.32 1024.13 96.37 M 1210.14 96.11 C 1208.81 96.80 1208.80 97.47 1210.11 98.14 C 1211.42 97.46 1211.43 96.78 1210.14 96.11 M 1024.15 103.40 C 1023.29 107.38 1028.13 102.59 1024.15 103.40 M 1128.20 135.52 C 1126.33 136.41 1127.97 139.11 1129.70 138.16 C 1131.55 137.40 1129.76 134.65 1128.20 135.52 Z" />
<path fill="#ffffff" opacity="1.00" d=" M 0.00 188.71 C 7.00 188.50 14.00 188.21 21.00 188.26 C 85.59 189.01 150.19 187.06 214.78 188.52 C 215.12 239.61 215.22 290.71 214.72 341.79 C 203.86 341.97 193.01 341.97 182.16 341.77 C 182.48 322.85 183.00 303.95 181.17 285.07 C 168.87 285.33 156.56 285.53 144.25 285.39 C 107.61 284.96 70.97 285.86 34.32 285.34 C 33.92 304.10 33.99 322.86 33.67 341.62 C 22.45 341.81 11.22 341.80 0.00 341.49 L 0.00 188.71 M 34.01 222.01 C 33.99 232.34 33.99 242.66 34.00 252.99 C 83.27 252.82 132.53 253.87 181.79 252.67 C 182.15 242.55 182.01 232.42 181.71 222.30 C 155.41 221.00 129.09 222.62 102.79 221.67 C 79.86 221.63 56.94 222.22 34.01 222.01 M 190.35 233.66 C 189.26 234.81 191.19 236.74 192.34 235.65 C 193.36 234.52 191.47 232.64 190.35 233.66 M 29.15 332.40 C 28.30 336.38 33.14 331.58 29.15 332.40 M 202.14 336.27 C 200.52 336.22 200.38 338.95 202.06 338.93 C 203.68 339.01 203.81 336.23 202.14 336.27 Z" />
<path fill="#ffffff" opacity="1.00" d=" M 251.28 188.12 C 253.92 188.09 259.18 188.03 261.82 188.00 C 261.65 188.40 261.30 189.19 261.13 189.59 C 283.59 186.30 306.39 188.69 329.00 187.98 C 367.33 188.69 405.66 187.76 444.00 188.00 C 459.62 188.11 475.38 187.05 490.89 189.52 C 490.72 189.24 490.39 188.67 490.22 188.39 C 504.81 188.00 519.41 187.84 534.00 188.47 C 593.90 188.19 653.80 187.82 713.70 188.18 C 714.07 199.36 714.11 210.55 713.77 221.73 C 647.18 221.61 580.60 222.07 514.01 221.73 C 437.00 222.46 360.01 221.10 283.01 222.01 C 282.92 241.68 283.33 261.37 282.47 281.04 C 283.05 290.30 281.33 299.64 282.97 308.84 C 293.64 308.84 304.36 308.80 314.92 310.55 C 314.74 310.18 314.38 309.43 314.21 309.06 C 353.30 308.73 392.40 309.40 431.50 308.74 C 431.48 300.96 431.52 293.19 431.50 285.41 C 410.11 283.26 388.55 285.97 367.10 284.97 C 359.96 274.26 350.84 264.96 344.37 253.82 C 384.44 252.11 424.61 253.18 464.71 253.23 C 464.57 278.02 465.33 302.84 464.38 327.62 C 464.54 331.21 464.86 338.39 465.03 341.98 C 445.00 341.90 424.98 342.14 404.96 342.09 C 401.21 342.53 397.60 341.60 394.25 340.08 C 394.35 340.56 394.55 341.50 394.65 341.97 C 346.44 342.38 298.24 341.13 250.03 342.01 C 247.38 291.45 250.17 240.81 249.18 190.22 C 249.88 189.52 250.58 188.82 251.28 188.12 M 265.08 278.31 C 263.66 278.23 263.39 280.68 264.92 280.69 C 266.33 280.76 266.60 278.31 265.08 278.31 M 455.15 280.40 C 454.30 284.38 459.14 279.58 455.15 280.40 M 270.29 286.53 C 269.42 287.76 271.53 289.04 272.33 287.85 C 273.14 286.65 271.07 285.38 270.29 286.53 M 269.15 321.40 C 268.30 325.38 273.14 320.58 269.15 321.40 M 350.23 326.37 C 348.17 327.35 350.98 330.01 352.29 328.60 C 353.07 327.41 351.42 325.92 350.23 326.37 M 395.19 328.44 C 393.08 329.08 394.67 331.73 396.42 331.09 C 398.64 330.72 396.82 327.74 395.19 328.44 M 326.20 330.31 C 324.73 330.29 324.73 332.70 326.20 332.69 C 327.67 332.74 327.67 330.25 326.20 330.31 M 322.25 336.15 C 320.20 336.76 321.43 339.72 323.30 338.65 C 325.46 338.14 324.06 335.14 322.25 336.15 Z" />
<path fill="#ffffff" opacity="1.00" d=" M 1001.22 188.28 C 1019.82 187.62 1038.42 189.01 1057.03 188.15 C 1075.68 188.98 1094.33 187.78 1113.00 187.97 C 1147.23 188.19 1181.47 187.66 1215.70 188.24 C 1216.07 199.40 1216.10 210.57 1215.77 221.74 C 1170.60 221.20 1125.41 222.10 1080.23 221.52 C 1064.92 221.98 1049.61 221.94 1034.32 222.23 C 1033.85 251.04 1033.37 279.87 1034.24 308.68 C 1094.37 309.64 1154.53 308.38 1214.65 309.26 C 1214.90 309.54 1215.39 310.09 1215.63 310.37 C 1215.96 320.80 1215.70 331.24 1215.77 341.68 C 1144.65 342.39 1073.51 341.89 1002.40 341.68 C 1002.09 341.45 1001.48 340.98 1001.18 340.75 C 1001.30 289.93 1000.53 239.10 1001.22 188.28 M 1181.23 314.37 C 1179.17 315.35 1181.97 318.01 1183.29 316.60 C 1184.06 315.41 1182.41 313.92 1181.23 314.37 M 1102.16 316.16 C 1101.24 320.16 1106.16 315.24 1102.16 316.16 M 1029.15 332.40 C 1028.29 336.38 1033.13 331.58 1029.15 332.40 M 1202.14 336.27 C 1200.51 336.22 1200.37 338.95 1202.06 338.93 C 1203.67 339.01 1203.79 336.23 1202.14 336.27 Z" />
<path fill="#ffffff" opacity="1.00" d=" M 1249.20 189.02 C 1253.38 188.57 1257.55 188.19 1261.81 187.85 C 1261.64 188.29 1261.30 189.16 1261.13 189.60 C 1273.13 187.90 1285.60 186.67 1297.63 188.50 C 1309.37 196.77 1319.28 207.46 1330.36 216.62 C 1340.23 224.94 1349.76 233.67 1359.70 241.91 C 1380.55 224.43 1400.39 205.70 1421.55 188.61 C 1437.61 187.25 1453.79 188.03 1469.91 188.20 C 1468.76 191.94 1465.94 194.62 1463.21 197.20 C 1434.84 221.49 1406.77 246.16 1378.44 270.49 C 1375.92 272.50 1376.42 276.22 1376.63 279.00 C 1377.21 295.07 1377.06 311.15 1376.38 327.22 C 1376.10 332.09 1377.55 337.16 1375.92 341.88 C 1365.04 342.37 1354.17 342.09 1343.32 341.75 C 1343.00 319.48 1343.18 297.20 1342.97 274.94 C 1342.19 270.06 1337.16 267.30 1333.90 264.07 C 1309.77 243.59 1286.11 222.55 1262.13 201.89 C 1257.45 198.00 1252.32 194.37 1249.20 189.02 M 1350.23 326.37 C 1348.16 327.35 1350.97 330.01 1352.29 328.60 C 1353.06 327.41 1351.41 325.92 1350.23 326.37 Z" />
<path fill="#ffffff" opacity="1.00" d=" M 751.24 189.36 C 761.32 189.25 771.42 188.62 781.49 189.58 C 796.16 199.67 809.94 211.07 823.96 222.05 C 860.29 247.98 895.74 275.10 931.92 301.22 C 932.28 263.91 931.58 226.60 932.27 189.30 C 943.40 188.91 954.54 188.89 965.69 189.23 C 966.44 207.81 965.68 226.40 965.80 244.98 C 965.50 270.78 966.87 296.60 965.38 322.37 C 965.30 328.90 965.27 335.44 965.84 341.95 C 953.97 341.92 942.06 342.66 930.25 341.58 C 921.62 336.92 914.36 330.23 906.42 324.55 C 865.88 294.77 825.57 264.67 785.05 234.86 C 785.22 256.52 784.43 278.18 784.98 299.83 C 784.57 299.66 783.75 299.32 783.34 299.14 C 786.68 313.14 784.26 327.77 784.99 342.01 C 773.76 342.04 762.53 342.10 751.32 341.77 C 750.33 319.24 751.55 296.69 751.16 274.16 C 751.50 274.35 752.19 274.72 752.53 274.91 C 750.19 262.06 751.51 248.98 751.22 236.01 C 751.33 220.46 750.65 204.91 751.24 189.36 M 959.17 266.17 C 958.64 267.79 959.19 268.35 960.83 267.83 C 961.34 266.20 960.78 265.65 959.17 266.17 M 765.08 278.31 C 763.65 278.23 763.39 280.68 764.92 280.69 C 766.32 280.76 766.59 278.31 765.08 278.31 M 955.15 280.40 C 954.29 284.38 959.14 279.58 955.15 280.40 M 769.15 321.40 C 768.29 325.38 773.14 320.58 769.15 321.40 Z" />
<path fill="#ffffff" opacity="1.00" d=" M 499.23 253.32 C 544.72 252.50 590.23 253.39 635.72 253.15 C 633.10 261.20 626.55 267.06 622.05 274.01 C 618.51 277.75 616.77 284.40 610.60 284.50 C 584.50 284.96 558.36 284.11 532.26 285.27 C 532.09 293.07 532.06 300.88 532.19 308.69 C 567.83 309.54 603.49 308.47 639.13 309.33 C 663.91 308.86 688.69 309.00 713.48 308.96 C 713.94 319.96 713.54 330.97 714.00 341.98 C 642.33 342.31 570.67 341.50 499.01 342.01 C 499.12 312.45 498.69 282.88 499.23 253.32 M 681.23 314.37 C 679.17 315.35 681.97 318.01 683.29 316.60 C 684.07 315.41 682.41 313.92 681.23 314.37 M 602.16 316.16 C 601.24 320.16 606.16 315.24 602.16 316.16 M 529.15 332.40 C 528.30 336.38 533.14 331.58 529.15 332.40 M 561.15 334.40 C 560.30 338.38 565.14 333.58 561.15 334.40 M 702.14 336.27 C 700.52 336.22 700.37 338.95 702.06 338.93 C 703.67 339.01 703.80 336.23 702.14 336.27 Z" />
</g>
</svg>
