<?xml version="1.0" encoding="utf-8"?>
<!-- Generator: Adobe Illustrator 18.1.1, SVG Export Plug-In . SVG Version: 6.00 Build 0)  -->
<svg version="1.1" id="Layer_1" xmlns="http://www.w3.org/2000/svg" xmlns:xlink="http://www.w3.org/1999/xlink" x="0px" y="0px"
	 viewBox="-169 419.9 257 3" enable-background="new -169 419.9 257 3" xml:space="preserve">
<g id="_x23_8e61ffff">
	<path fill="#8E61FF" d="M-169,421.2h18.5c0,0.4,0,1.3,0,1.7H-169V421.2z"/>
	<path fill="#8E61FF" d="M-146.6,421.2h18.5c0,0.4,0,1.3,0,1.7h-18.5C-146.6,422.5-146.6,421.6-146.6,421.2z"/>
	<path fill="#8E61FF" d="M-124.2,421.2h18.5c0,0.4,0,1.3,0,1.7h-18.5C-124.2,422.5-124.2,421.6-124.2,421.2z"/>
	<path fill="#8E61FF" d="M-101.8,421.2h18.5c0,0.4,0,1.3,0,1.7h-18.5C-101.8,422.5-101.8,421.6-101.8,421.2z"/>
	<path fill="#8E61FF" d="M-79.4,421.2h18.5c0,0.4,0,1.3,0,1.7h-18.5C-79.4,422.5-79.4,421.6-79.4,421.2z"/>
	<path fill="#8E61FF" d="M-56.9,421.2h18.5c0,0.4,0,1.3,0,1.7h-18.5C-56.9,422.5-56.9,421.6-56.9,421.2z"/>
	<path fill="#8E61FF" d="M-34.5,421.2h9.5v1.7h-9.5C-34.5,422.5-34.5,421.6-34.5,421.2z"/>
</g>
<g id="_x23_ffffffff">
</g>
<g id="_x23_8e61ffff_1_">
	<path fill="#8E61FF" d="M-34.5,421.2H-16c0,0.4,0,1.3,0,1.7h-18.5V421.2z"/>
	<path fill="#8E61FF" d="M-12.1,421.2H6.4c0,0.4,0,1.3,0,1.7h-18.5C-12.1,422.5-12.1,421.6-12.1,421.2z"/>
	<path fill="#8E61FF" d="M10.3,421.2h18.5c0,0.4,0,1.3,0,1.7H10.3C10.3,422.5,10.3,421.6,10.3,421.2z"/>
	<path fill="#8E61FF" d="M32.7,421.2h18.5c0,0.4,0,1.3,0,1.7H32.7C32.7,422.5,32.7,421.6,32.7,421.2z"/>
	<path fill="#8E61FF" d="M55.1,421.2h18.5c0,0.4,0,1.3,0,1.7H55.1C55.1,422.5,55.1,421.6,55.1,421.2z"/>
	<path fill="#8E61FF" d="M77.5,421.2H88c0,0.4,0,1.3,0,1.7H77.5C77.5,422.5,77.5,421.6,77.5,421.2z"/>
</g>
<g id="_x23_ffffffff_1_">
</g>
</svg>
