<?xml version="1.0" encoding="UTF-8" ?>
<!DOCTYPE svg PUBLIC "-//W3C//DTD SVG 1.1//EN" "http://www.w3.org/Graphics/SVG/1.1/DTD/svg11.dtd">
<svg width="257pt" height="3pt" viewBox="0 0 257 3" version="1.1" xmlns="http://www.w3.org/2000/svg">
<g id="#8e61ffff">
<path fill="#8e61ff" opacity="1.00" d=" M 0.00 0.00 L 32.98 0.00 C 32.99 0.75 33.00 2.25 33.00 3.00 L 0.00 3.00 L 0.00 0.00 Z" />
<path fill="#8e61ff" opacity="1.00" d=" M 40.01 0.00 L 72.99 0.00 C 73.00 0.75 73.00 2.25 73.00 3.00 L 39.97 3.00 C 39.98 2.25 40.00 0.75 40.01 0.00 Z" />
<path fill="#8e61ff" opacity="1.00" d=" M 80.01 0.00 L 113.01 0.00 C 113.00 0.75 113.00 2.25 113.00 3.00 L 79.97 3.00 C 79.98 2.25 80.00 0.75 80.01 0.00 Z" />
<path fill="#8e61ff" opacity="1.00" d=" M 119.99 0.00 L 153.01 0.00 C 153.01 0.75 153.00 2.25 153.00 3.00 L 120.03 3.00 C 120.02 2.25 120.00 0.75 119.99 0.00 Z" />
<path fill="#8e61ff" opacity="1.00" d=" M 160.00 0.00 L 193.03 0.00 C 193.02 0.75 193.00 2.25 192.99 3.00 L 159.99 3.00 C 159.99 2.25 160.00 0.75 160.00 0.00 Z" />
<path fill="#8e61ff" opacity="1.00" d=" M 199.99 0.00 L 233.03 0.00 C 233.02 0.75 233.00 2.25 232.99 3.00 L 200.02 3.00 C 200.01 2.25 200.00 0.75 199.99 0.00 Z" />
<path fill="#8e61ff" opacity="1.00" d=" M 240.00 0.00 L 257.00 0.00 L 257.00 3.00 L 240.02 3.00 C 240.01 2.25 240.01 0.75 240.00 0.00 Z" />
</g>
<g id="#ffffffff">
</g>
</svg>
