<?xml version="1.0" encoding="UTF-8" standalone="no"?>
<!-- Generator: Adobe Illustrator 18.1.1, SVG Export Plug-In . SVG Version: 6.00 Build 0)  -->

<svg
   xmlns:dc="http://purl.org/dc/elements/1.1/"
   xmlns:cc="http://creativecommons.org/ns#"
   xmlns:rdf="http://www.w3.org/1999/02/22-rdf-syntax-ns#"
   xmlns:svg="http://www.w3.org/2000/svg"
   xmlns="http://www.w3.org/2000/svg"
   xmlns:sodipodi="http://sodipodi.sourceforge.net/DTD/sodipodi-0.dtd"
   xmlns:inkscape="http://www.inkscape.org/namespaces/inkscape"
   version="1.1"
   id="Layer_1"
   x="0px"
   y="0px"
   viewBox="0 0 565.3 568.29997"
   enable-background="new 0 0 595.3 841.9"
   xml:space="preserve"
   inkscape:version="0.91 r13725"
   sodipodi:docname="iss_mks.svg"
   width="565.29999"
   height="568.29999"><metadata
     id="metadata21"><rdf:RDF><cc:Work
         rdf:about=""><dc:format>image/svg+xml</dc:format><dc:type
           rdf:resource="http://purl.org/dc/dcmitype/StillImage" /><dc:title></dc:title></cc:Work></rdf:RDF></metadata><defs
     id="defs19" /><sodipodi:namedview
     pagecolor="#ffffff"
     bordercolor="#666666"
     borderopacity="1"
     objecttolerance="10"
     gridtolerance="10"
     guidetolerance="10"
     inkscape:pageopacity="0"
     inkscape:pageshadow="2"
     inkscape:window-width="640"
     inkscape:window-height="480"
     id="namedview17"
     showgrid="false"
     fit-margin-top="0"
     fit-margin-left="0"
     fit-margin-right="0"
     fit-margin-bottom="0"
     inkscape:zoom="0.28031832"
     inkscape:cx="285.24999"
     inkscape:cy="299.64999"
     inkscape:window-x="0"
     inkscape:window-y="0"
     inkscape:window-maximized="0"
     inkscape:current-layer="Layer_1" /><g
     id="g3"
     transform="translate(-12.4,-152.3)"><g
       id="g5"><path
         d="m 279.1,710.6 c -8.2,0 -14.8,-6.6 -14.8,-14.8 l 0,-19.8 c 0,-2.1 0.4,-4.1 1.3,-6.1 0.1,-0.2 0.2,-0.3 0.2,-0.5 l 5,-10.1 c -1.8,-1.3 -3.4,-2.8 -4.6,-4.6 -2.2,1.3 -4.7,2 -7.4,2 l -99.7,0 c -8.2,0 -14.8,-6.6 -14.8,-14.8 l 0,-6.3 -28.3,0 c -3.5,0 -6.6,-1.2 -9.2,-3.2 -2.5,1.9 -5.6,3.1 -9,3.1 l -60.6,0 c -8.2,0 -14.8,-6.6 -14.8,-14.8 l 0,-173.2 c 0,-8.2 6.6,-14.8 14.8,-14.8 l 4,0 0,-6.2 c 0,-7 4.8,-12.8 11.3,-14.4 l 0,-26.9 C 46,383.6 41.2,377.8 41.2,370.8 l 0,-5.6 -4,0 c -8.2,0 -14.8,-6.6 -14.8,-14.8 l 0,-173.1 c 0,-8.2 6.6,-14.8 14.8,-14.8 l 60.6,0 c 3.3,0 6.4,1.1 8.9,3 2.5,-2 5.7,-3.2 9.1,-3.2 l 60.7,0 c 8.2,0 14.8,6.6 14.8,14.8 l 0,51.3 c 3.6,-0.8 7.3,-1.2 11,-1.2 13.8,0.1 26.7,5.5 36.3,15.3 0.1,0.1 0.2,0.2 0.3,0.3 0.4,0.4 0.8,0.9 1.2,1.4 l 20.9,0 c -0.2,-0.9 -0.3,-1.9 -0.3,-2.9 l 0,-16.9 c 0,-8.2 6.6,-14.8 14.8,-14.8 l 37.5,0 c 8.2,0 14.8,6.6 14.8,14.8 l 0,16.9 c 0,1 -0.1,2 -0.3,2.9 l 51.8,0 c 4.3,0 8.4,1.5 11.6,4.1 l 7.7,-7.8 0,-63.1 c 0,-8.2 6.6,-14.8 14.8,-14.8 l 60.7,0 c 3.4,0 6.5,1.2 9,3.1 2.5,-1.9 5.6,-3.1 9,-3.1 l 60.7,0 c 8.2,0 14.8,6.6 14.8,14.8 l 0,173.3 c 0,8.2 -6.6,14.8 -14.8,14.8 l -4.7,0 0,5.6 c 0,6.7 -4.4,12.3 -10.5,14.2 l 0,27.1 c 0,0.1 0,0.2 0,0.3 6,1.9 10.4,7.5 10.4,14.1 l 0,6.1 4.7,0 c 8.2,0 14.8,6.6 14.8,14.8 l 0,173.1 c 0,8.2 -6.6,14.8 -14.8,14.8 l -60.6,0 c -3.2,0 -6.4,-1.1 -8.9,-3 -2.5,1.9 -5.6,3 -8.9,3 l -28.5,0 0,6.3 c 0,8.2 -6.6,14.8 -14.8,14.8 l -99.7,0 c -2.7,0 -5.2,-0.7 -7.4,-2 -1.1,1.6 -2.5,3.1 -4.1,4.3 l 5.3,10 c 1.2,2.2 1.8,4.6 1.8,7.1 l 0,19.8 c 0,8.2 -6.6,14.8 -14.8,14.8 l -33,0 z M 293.7,639 c 0.2,0.1 0.7,0.2 1.4,0.2 0.7,0 1.2,-0.2 1.5,-0.3 0.3,-0.4 0.5,-0.7 0.8,-1 l 0,-10.4 c 0,-3.1 1,-6 2.6,-8.3 -1.5,-2.3 -2.4,-5.1 -2.4,-8 l 0,-6.9 c -0.3,-0.4 -0.6,-0.7 -0.9,-1.1 -0.4,-0.5 -0.7,-0.9 -0.9,-1.3 0,0 0,0 0,0 -0.5,0.4 -1.1,0.7 -1.7,1 0,0.1 -0.1,0.1 -0.1,0.2 -0.3,0.5 -0.7,1 -1.1,1.4 l 0,7 c 0,3 -0.9,5.8 -2.5,8.1 1.5,2.3 2.5,5.1 2.5,8.1 l 0,10.3 c 0.2,0.3 0.5,0.7 0.8,1 z m 244.4,-33.1 0,-12.5 -31,0 0,12.5 31,0 z m -78.8,0 0,-12.4 -14.1,0 c 0.3,1.1 0.4,2.2 0.4,3.4 l 0,9 13.7,0 z m -376.3,0 0,-12.5 -31,0 0,12.5 31,0 z m 61.2,-0.1 0,-9 c 0,-1.2 0.1,-2.4 0.4,-3.5 l -13.8,0 0,12.5 13.4,0 z m 114.2,-23.6 c 3.5,0 6.7,1.2 9.3,3.3 1.3,-1.3 2.8,-2.5 4.4,-3.4 l 0,-15.2 c -1.2,-0.9 -2.4,-1.9 -3.4,-3 -8.3,-2.4 -15.9,-8.6 -15.9,-18.1 l 0,-60.5 c 0,-9.6 7.7,-15.8 16.2,-18.2 0.3,-0.2 0.5,-0.5 0.8,-0.7 -4.9,-5.8 -7.6,-13.1 -7.6,-20.7 0,-2.7 0.3,-5.3 1,-7.8 -4.3,0.8 -7.6,0.8 -8.3,0.8 l -10,0 c -3.1,0 -6,-1 -8.4,-2.6 -2.2,1.3 -4.8,2.1 -7.6,2.1 l -29.7,0 c -7,0 -12.9,-4.9 -14.4,-11.5 l -13.2,0 0,6.1 4.7,0 c 8.2,0 14.8,6.6 14.8,14.8 l 0,134.6 67.3,0 z m 60,0.2 c 1.3,0.8 2.5,1.8 3.5,2.9 2.5,-2 5.8,-3.3 9.3,-3.3 l 67.5,0 0,-27.8 c -0.1,0.1 -0.1,0.1 -0.2,0.2 -2.8,2.4 -6.2,3.8 -9.9,3.8 -4.2,0 -8.2,-1.8 -11,-4.9 l -14.1,-15.6 c -2.5,-2.8 -3.8,-6.3 -3.8,-10.1 0,-0.1 0,-0.2 0,-0.4 l 0.1,-3.8 -1.5,-1.5 c 0,0 -1,0 -1.1,0 -6.1,-0.2 -12,-2.9 -16.3,-7.5 -1.7,-1.8 -3,-3.9 -4.1,-6 l 0,37.2 c 0,8.3 -6.1,15.2 -15.7,18.1 -0.9,0.9 -1.8,1.8 -2.8,2.6 l 0,16.1 z m 219.7,-18.7 0,-12.8 -31,0 0,12.8 31,0 z m -78.8,0 0,-12.8 -31,0 0,12.8 31,0 z m -297.5,0 0,-12.8 -31,0 0,12.8 31,0 z m -78.8,0 0,-12.8 -31,0 0,12.8 31,0 z m 199.7,-27.2 c 2.5,1.1 4.7,2.9 6.3,5.2 0.9,1.3 1.5,1.5 2.2,1.7 0.1,0 0.2,0 0.2,0.1 1.4,0.4 2.8,1.1 4,1.9 1.3,-0.9 2.8,-1.6 4.4,-2 0,0 0.1,0 0.1,0 0.2,-0.2 0.5,-0.6 1.3,-1.7 1.6,-2.3 3.8,-4.1 6.2,-5.2 l 0,-42.2 c -2.5,-1.1 -4.7,-2.9 -6.3,-5.2 -0.1,-0.2 -0.9,-0.9 -2.3,-1.5 -0.1,0 -0.2,-0.1 -0.2,-0.1 -1.3,-0.6 -2.5,-1.3 -3.5,-2.2 -1.2,1 -2.5,1.8 -4,2.4 -1.4,0.5 -2,1.2 -2.2,1.5 -1.6,2.3 -3.8,4 -6.3,5.1 l 0,42.2 z m 255.4,-15.3 0,-12.8 -31,0 0,12.8 31,0 z m -78.8,0 0,-12.8 -31,0 0,12.8 31,0 z m -297.5,0 0,-12.8 -31,0 0,12.8 31,0 z m -78.8,0 0,-12.8 -31,0 0,12.8 31,0 z m 304.6,-18.9 c 3.6,0.3 6.9,1.8 9.6,4.5 0.1,0.1 0.2,0.2 0.3,0.4 l 1.2,1.3 0,-37.5 c -2.4,1.4 -5,2.4 -7.8,3 l -10.7,17.4 c 0.9,2.7 1.3,5.5 1.2,8.4 0,0.1 0,0.1 0,0.2 0,0.7 -0.1,1.3 -0.2,2 0.1,-0.1 6.3,0.3 6.4,0.3 z M 320.7,467 c 8.5,2.4 16.2,8.6 16.2,18.2 l 0,3.9 c 3.3,-7.3 10.2,-12.5 18.4,-13.5 l 7.1,-11.5 -40.5,-0.9 c -0.7,1 -1.4,2 -2.2,2.9 0.3,0.3 0.7,0.6 1,0.9 z m 217.4,11.8 0,-16.4 -31,0 0,16.4 31,0 z m -78.8,0 0,-16.4 -31,0 0,16.4 31,0 z m -297.5,0 0,-16.4 -31,0 0,16.4 31,0 z m -78.8,0 0,-16.4 -31,0 0,16.4 31,0 z m 211.8,-35.9 c -1.4,0 -2.6,1.2 -2.6,2.6 0,1.4 1.2,2.6 2.6,2.6 1.4,0 2.6,-1.2 2.6,-2.6 0,-1.4 -1.2,-2.6 -2.6,-2.6 z m -197,-10.1 c 3.4,0 6.6,1.2 9.1,3.1 2.5,-2 5.7,-3.1 9.1,-3.1 l 3.2,0 0,-6.1 -25.4,0 0,6.1 4,0 z m 304,0.5 c 0.9,0.8 1.8,1.6 2.6,2.6 2.5,-2 5.7,-3.2 9.2,-3.2 l 4,0 0,-5.5 -12.4,0 c -0.7,2.3 -1.9,4.4 -3.4,6.1 z m 72.6,-0.5 c 3.4,0 6.5,1.1 8.9,3 2.5,-1.9 5.6,-3 9,-3 l 3.2,0 0,-5.5 -25.1,0 0,5.5 4,0 z M 228.9,408.6 c 3.1,0 6,1 8.4,2.6 2.2,-1.3 4.8,-2.1 7.6,-2.1 l 10,0 c 2.1,0 5.8,-0.7 7.1,-1.5 9.5,-11 22.2,-11 29.1,-11 0.8,0 1.7,0 2.5,0 l 3.7,0 c 7.6,0 20.3,0 29.8,10.9 1.3,0.7 5,1.5 7.2,1.5 l 10,0 c 2.5,0 4.8,0.6 6.9,1.7 2.3,-1.4 4.9,-2.2 7.7,-2.2 l 17,0 0,-19 -161.8,0 0,19 14.8,0 z m 188.5,-37.3 c 0,-0.1 0,-0.3 0,-0.4 l 0,-5.6 -4,0 c -8.2,0 -14.8,-6.6 -14.8,-14.8 l 0,-34.3 -7.6,-7.2 c -3.3,2.6 -7.4,4.2 -11.8,4.2 l -51.5,0 0,46.6 63,0 c 7,0 12.9,4.9 14.4,11.5 l 12.3,0 z m 78,-0.1 c 0,-0.1 0,-0.3 0,-0.4 l 0,-5.6 -3.2,0 c -3.4,0 -6.5,-1.2 -9,-3.1 -2.5,1.9 -5.6,3.1 -9,3.1 l -4,0 0,5.6 c 0,0.1 0,0.3 0,0.4 l 25.2,0 z m -310.3,-0.4 c 1.7,-6.3 7.5,-11 14.3,-11 l 61.2,0 0,-46.6 -20.6,0 c -9.8,10.7 -23.4,16.8 -37.9,16.8 0,0 -0.3,0 -0.4,0 -3.5,-0.1 -7,-0.5 -10.4,-1.2 l 0,21.6 c 0,8.2 -6.6,14.8 -14.8,14.8 l -4.7,0 0,5.6 13.3,0 z m -66.1,-0.2 0,-5.6 -3.2,0 c -3.4,0 -6.5,-1.1 -9,-3.1 -2.5,1.9 -5.6,3.1 -9,3.1 l -4,0 0,5.6 25.2,0 z m 419.1,-35 0,-16.4 -31,0 0,16.4 31,0 z m -78.9,0 0,-16.3 -19.2,0 c -2.6,2.3 -6,3.6 -9.6,3.6 l -2.1,0 0,12.7 30.9,0 z m -297.4,0 0,-16.4 -31,0 0,16.4 31,0 z m -78.8,0 0,-16.4 -31,0 0,16.4 31,0 z m 205.1,-57 c 1.4,2.3 2.3,5 2.3,7.8 l 0,40.2 c 1.3,-0.4 2.6,-0.5 4,-0.5 1.3,0 2.6,0.2 3.8,0.5 l 0,-40.1 c 0,-2.9 0.8,-5.6 2.3,-7.9 -1.3,-2 -2.1,-4.3 -2.2,-6.8 -1.5,-0.8 -2.8,-1.9 -3.9,-3.2 -1.1,1.3 -2.4,2.4 -3.9,3.2 -0.3,2.6 -1.1,4.9 -2.4,6.8 z m -107.7,0.1 c 0,11.9 9.7,21.7 21.7,21.7 l 0,0 c 11.9,0 21.6,-9.7 21.7,-21.6 0,-5.8 -2.2,-11.3 -6.3,-15.4 -4.1,-4.2 -9.5,-6.5 -15.2,-6.5 -11.9,0.1 -21.7,9.8 -21.9,21.8 z m 235.2,12.7 0,-26 -10.6,10.8 c 0,1 0,2 -0.1,3.1 0,0.7 0,1.3 -0.1,2 l 10.8,10.1 z m 122.5,-1.8 0,-12.8 -31,0 0,12.8 31,0 z m -78.8,0 0,-12.8 -14,0 0,12.8 14,0 z m -307.3,0 c -0.8,-3.6 -1.2,-7.3 -1.2,-11.1 0,-0.6 0,-1.2 0,-1.8 l -20.1,0 0,12.9 21.3,0 z m -69,-0.1 0,-12.8 -31,0 0,12.8 31,0 z m 289.6,-5.9 c 0.5,-0.5 1.1,-1 1.7,-1.5 0,0 0.1,-0.1 0.1,-0.1 0.3,-0.3 1,-1.5 1,-3.3 0,-1.7 -0.6,-2.9 -0.8,-3.2 -0.1,-0.1 -0.2,-0.1 -0.3,-0.2 -0.6,-0.5 -1.2,-1 -1.7,-1.5 l -40.1,0 c -0.6,0.6 -1.3,1.2 -2,1.7 -0.1,0.1 -0.3,0.3 -0.4,0.8 -0.1,0.1 -0.1,0.3 -0.2,0.4 -0.3,0.7 -0.7,1.4 -1.1,2 0.5,0.8 0.9,1.6 1.3,2.5 0.2,0.5 0.4,0.7 0.5,0.8 0.1,0.1 0.2,0.1 0.2,0.2 0.6,0.5 1.2,1 1.7,1.5 l 40.1,0 z m -116.4,-0.1 c 0.5,-0.5 1.1,-1 1.7,-1.5 0.1,-0.1 0.2,-0.2 0.3,-0.2 0.1,-0.1 0.2,-0.4 0.4,-0.7 0.1,-0.1 0.1,-0.3 0.2,-0.4 0.3,-0.7 0.7,-1.3 1.1,-2 -0.4,-0.7 -0.8,-1.4 -1.1,-2.2 -0.3,-0.6 -0.5,-0.9 -0.6,-1.1 -0.7,-0.5 -1.4,-1.1 -2,-1.7 l -2.7,0 c 0.2,1.7 0.3,3.4 0.3,5.1 0,1.6 -0.1,3.1 -0.2,4.7 l 2.6,0 z m 281.9,-36.4 0,-12.8 -31,0 0,12.8 31,0 z m -78.8,0 0,-12.8 -24.3,0 c 5.6,1.8 9.7,6.8 10.2,12.8 l 14.1,0 z m -376.3,0 0,-12.8 -31,0 0,12.8 31,0 z m 78.8,-0.1 0,-12.7 -31,0 0,12.7 31,0 z m 376.3,-42.4 0,-12.5 -31,0 0,12.5 31,0 z m -78.8,0 0,-12.5 -31,0 0,12.5 31,0 z m -297.5,0 0,-12.5 -31,0 0,12.5 31,0 z m -78.8,0 0,-12.5 -31,0 0,12.5 31,0 z"
         id="path7"
         inkscape:connector-curvature="0"
         style="fill:#423e52" /><path
         d="m 176.5,172.3 c 2.6,0 4.8,2.1 4.8,4.8 l 0,65.7 2.2,-1.1 c 6,-3 12.3,-4.5 18.8,-4.5 11.1,0.1 21.4,4.4 29.2,12.3 1.1,1.2 2.2,2.4 3.4,4 l 0.5,0.6 27.5,0 c 2.8,0 5.4,1.3 7,3.6 l 1.2,1.7 1.2,-1.7 c 1.1,-1.6 2.9,-2.8 4.8,-3.3 l 1.1,-0.3 0,-8.1 -2.7,0 c -2.6,0 -4.8,-2.1 -4.8,-4.8 l 0,-16.9 c 0,-2.6 2.1,-4.8 4.8,-4.8 l 37.5,0 c 2.6,0 4.8,2.1 4.8,4.8 l 0,16.9 c 0,2.6 -2.1,4.8 -4.8,4.8 l -2.7,0 0,8.1 1.1,0.3 c 1.9,0.5 3.6,1.7 4.8,3.3 l 1.2,1.7 1.2,-1.7 c 1.6,-2.3 4.2,-3.6 7,-3.6 l 53.7,0 c 3.9,0 7.3,2.6 8.3,6.3 l 0.1,0.4 0.3,0.3 c 0.2,0.2 0.3,0.3 0.4,0.5 0.2,0.2 0.3,0.4 0.5,0.6 l 1.1,1.2 18,-18.3 0.6,-0.3 0,-67.5 c 0,-2.6 2.1,-4.8 4.8,-4.8 l 60.7,0 c 2.6,0 4.8,2.1 4.8,4.8 l 0,173.1 c 0,2.6 -2.1,4.8 -4.8,4.8 l -14,0 0,15.6 c 0,2.6 -2.1,4.8 -4.8,4.8 l -6.5,0 0,5.6 69.1,0 0,-5.6 -7.7,0 c -2.6,0 -4.8,-2.1 -4.8,-4.8 l 0,-15.6 -13.2,0 c -2.6,0 -4.8,-2.1 -4.8,-4.8 l 0,-173.1 c 0,-2.6 2.1,-4.8 4.8,-4.8 l 60.7,0 c 2.6,0 4.8,2.1 4.8,4.8 l 0,173.3 c 0,2.6 -2.1,4.8 -4.8,4.8 l -14.7,0 0,15.6 c 0,2.6 -2.1,4.8 -4.8,4.8 l -5.7,0 0,10.3 c 0,0.1 0,0.2 0,0.3 l 0,25.9 c -0.1,0.1 -0.1,0.2 -0.1,0.4 l 0,9.2 5.7,0 c 2.6,0 4.8,2.1 4.8,4.8 l 0,16.1 14.7,0 c 2.6,0 4.8,2.1 4.8,4.8 l 0,173.1 c 0,2.6 -2.1,4.8 -4.8,4.8 l -60.6,0 c -2.6,0 -4.8,-2.1 -4.7,-4.8 l 0,-173.1 c 0,-2.6 2.1,-4.8 4.8,-4.8 l 13.2,0 0,-16.1 c 0,-2.6 2.1,-4.8 4.8,-4.8 l 7.7,0 0,-4.6 -68.9,0 0,4.6 6.5,0 c 2.6,0 4.8,2.1 4.8,4.8 l 0,16.1 14,0 c 2.6,0 4.8,2.1 4.8,4.8 l 0,173.1 c 0,2.6 -2.1,4.8 -4.8,4.8 l -38.5,0 0,16.3 c 0,2.6 -2.1,4.8 -4.8,4.8 l -99.7,0 c -2.6,0 -4.8,-2.1 -4.8,-4.8 l 0,-9.4 -9.4,0 0,12.1 c 0,3.5 -2.4,6.7 -5.8,7.7 l -0.4,0.1 -0.3,0.3 c -0.7,0.8 -1.5,1.5 -2.7,2.3 l -1.1,0.8 9.6,18 c 0.4,0.7 0.6,1.5 0.6,2.3 l 0,19.8 c 0,2.6 -2.1,4.8 -4.8,4.8 l -33.2,0 c -2.6,0 -4.8,-2.1 -4.8,-4.8 l 0,-19.8 c 0,-0.8 0.2,-1.5 0.5,-2.2 l 8.9,-17.9 -1.1,-0.7 c -1.1,-0.8 -2.2,-1.7 -3.1,-2.7 l -0.3,-0.3 -0.4,-0.1 c -3.5,-1.1 -5.7,-4.1 -5.7,-7.6 l 0,-12.1 -9.5,0 0,9.4 c 0,2.6 -2.1,4.8 -4.8,4.8 l -99.7,0 c -2.6,0 -4.8,-2.1 -4.8,-4.8 l 0,-16.3 -38.3,0 c -2.6,0 -4.8,-2.1 -4.8,-4.8 l 0,-173.1 c 0,-2.6 2.1,-4.8 4.8,-4.8 l 13.2,0 0,-16.2 c 0,-2.6 2.1,-4.8 4.8,-4.8 l 7.2,0 0,-5.1 -69.1,0 0,5.1 6.9,0 c 2.6,0 4.8,2.1 4.8,4.8 l 0,16.2 14,0 c 2.6,0 4.8,2.1 4.8,4.8 l 0,173 c 0,2.6 -2.1,4.8 -4.8,4.8 l -60.6,0 c -2.6,0 -4.8,-2.1 -4.8,-4.8 l 0,-173.1 c 0,-2.6 2.1,-4.8 4.8,-4.8 l 14,0 0,-16.2 c 0,-2.6 2.1,-4.8 4.8,-4.8 l 6.5,0 0,-9.7 c 0,-0.2 0,-0.3 0,-0.4 l 0,-25.8 c 0,-0.1 0,-0.2 0,-0.4 l 0,-9.8 -6.5,0 c -2.6,0 -4.8,-2.1 -4.8,-4.8 l 0,-15.6 -14,0 c -2.6,0 -4.8,-2.1 -4.8,-4.8 l 0,-173.1 c 0,-2.6 2.1,-4.8 4.8,-4.8 l 60.6,0 c 2.6,0 4.8,2.1 4.8,4.8 l 0,172.9 c 0,2.6 -2.1,4.8 -4.8,4.8 l -14,0 0,15.6 c 0,2.6 -2.1,4.8 -4.8,4.8 l -6.9,0 0,5.2 68.9,0 0,-5.2 -7.2,0 c -2.6,0 -4.8,-2.1 -4.8,-4.8 l 0,-15.6 -13.2,0 c -2.6,0 -4.8,-2.1 -4.8,-4.8 l 0,-173.1 c 0,-2.6 2.1,-4.8 4.8,-4.8 l 60.7,0 m 320.6,42.3 51,0 0,-32.5 -51,0 0,0 0,32.5 m -78.8,0 51,0 0,-32.5 -51,0 0,32.5 m -297.5,0 51,0 0,-32.5 -51,0 0,32.5 m -78.8,0 51,0 0,-32.5 -51,0 0,32.5 m 455.1,42.5 51,0 0,-32.8 -51,0 0,0 0,32.8 m -78.7,-32.8 -0.1,0 0.1,0 0,19.3 12.1,0 c 2.6,0 4.8,2.1 4.8,4.8 l 0,8.7 34,0 0,-32.8 -50.9,0 m -297.6,32.7 46.3,0 0.4,-0.7 c 1.1,-1.7 2.4,-3.5 3.9,-5.1 l 0.4,-0.4 0,-0.6 c 0,-0.1 0,-0.1 0,-0.2 l 0,-25.7 -51,0 0,32.7 m -78.8,0.1 51,0 0,-32.8 -51,0 0,32.8 m 238.4,-20.7 2.7,0 c 2.6,0 4.8,2.1 4.8,4.8 l 0,17.8 c 0,2.6 -2.1,4.8 -4.8,4.8 l -2.7,0 0,7 c 0,2.6 -2.1,4.8 -4.8,4.8 l -3.2,0 c -2,0 -3.8,-1.2 -4.5,-3 -1,-2.3 -2.4,-4.2 -4,-5.3 -0.9,-0.6 -1.6,-1.5 -1.9,-2.5 l -0.3,-1 0,-0.1 -20.8,0 0.6,2 c 1.4,4.3 2.1,8.7 2.1,13.1 0,4.3 -0.7,8.6 -2.1,12.7 l -0.6,2 20.9,0 0.3,-1 c 0.3,-1 1,-1.9 1.8,-2.5 1.7,-1.1 3.1,-3 4,-5.3 0.8,-1.8 2.5,-3 4.5,-3 l 3.2,0 c 2.6,0 4.8,2.1 4.8,4.8 l 0,83.3 9.2,0 0,-28.8 c 0,-2.6 2.2,-4.8 4.8,-4.8 2.6,0 4.8,2.1 4.8,4.8 l 0,28.8 9,0 0,-83.2 c 0,-2.6 2.1,-4.8 4.8,-4.8 l 3.2,0 c 2,0 3.8,1.2 4.5,3 0.9,2.3 2.3,4.1 4,5.3 0.8,0.6 1.5,1.5 1.8,2.5 l 0.3,1 51.4,0 0.3,-1 c 0.3,-1 1,-1.9 1.8,-2.5 3.1,-2.2 5.1,-6.7 5.1,-11.4 0,-4.8 -2,-9.3 -5.1,-11.4 -0.8,-0.6 -1.5,-1.5 -1.8,-2.5 l -0.3,-1 -51.4,0 -0.3,1 c -0.3,1 -0.9,1.9 -1.8,2.5 -1.7,1.2 -3.1,3 -4,5.3 -0.8,1.8 -2.5,3 -4.5,3 l -3.2,0 c -2.6,0 -4.8,-2.1 -4.8,-4.8 l 0,-7 -2.7,0 c -2.6,0 -4.8,-2.1 -4.8,-4.8 l 0,-17.8 c 0,-2.6 2.1,-4.8 4.8,-4.8 l 2.7,0 0,-7.2 -27.8,0 0,7.2 m -78.4,74 0.1,0 c 17.4,0 31.6,-14.1 31.7,-31.5 0,-8.5 -3.2,-16.5 -9.2,-22.5 -5.9,-6 -13.9,-9.4 -22.3,-9.4 -17.4,0 -31.7,14.2 -31.9,31.6 0,17.4 14.1,31.7 31.6,31.8 m 211.5,-7.2 12.1,0 0,-50 -12,0 -18,18.2 -0.1,0.1 c -0.2,0.1 -0.4,0.2 -0.5,0.3 l -0.7,0.6 0.2,0.9 c 0.4,1.9 0.6,3.6 0.4,5.4 0,1.8 -0.2,3.6 -0.6,5.6 l -0.2,0.9 0.8,0.6 c 0.1,0.1 0.3,0.2 0.5,0.3 l 18.1,17.1 m -292.8,-3.6 45.7,0 -1.1,-2.2 c -3,-5.9 -4.5,-12.3 -4.5,-18.9 0,-3.2 0.4,-6.5 1.3,-9.9 l 0.5,-1.9 -41.8,0 -0.1,0 0,32.9 m -78.7,-0.1 51,0 0,-32.8 -51,0 0,32.8 m 455.1,0.1 51,0 0,-32.8 -51,0 0,0 0,32.8 m -61.8,0 34,0 0,-32.8 -34,0 0,32.8 m -109.8,3.6 c -2,0 -3.9,-0.7 -5.4,-1.9 l -2.4,-2 0,70.5 73,0 c 2.6,0 4.8,2.1 4.8,4.8 l 0,6.7 43.6,0 0,-5.6 -6.9,0 c -2.6,0 -4.8,-2.1 -4.8,-4.8 l 0,-15.6 -14,0 c -2.6,0 -4.8,-2.1 -4.8,-4.8 l 0,-38.6 -18.8,-17.8 -1,1.1 c -0.2,0.2 -0.4,0.4 -0.5,0.6 -0.1,0.1 -0.2,0.3 -0.3,0.4 l -0.3,0.3 -0.1,0.4 c -1,3.7 -4.4,6.3 -8.4,6.3 l -53.7,0 M 201.9,320 c -6.4,-0.1 -12.6,-1.6 -18.4,-4.5 l -2.2,-1.1 0,36 c 0,2.6 -2.1,4.8 -4.8,4.8 l -14.7,0 0,15.6 c 0,2.6 -2.1,4.8 -4.8,4.8 l -6.2,0 0,5.2 43.8,0 0,-6.2 c 0,-2.6 2.1,-4.8 4.8,-4.8 l 71.2,0 0,-70.5 -2.4,2 c -1.6,1.2 -3.4,1.9 -5.4,1.9 l -27.4,0 -0.5,0.6 c -8,10.3 -19.9,16.2 -32.8,16.2 l -0.2,0 m 295.2,25.6 51,0 0,-36.4 -51,0 0,36.4 m -376.3,0 51,0 0,-36.4 -51,0 0,36.4 m -78.8,0 51,0 0,-36.4 -51,0 0,36.4 m 376.3,0 51,0 -0.1,0 0,-36.3 -34.1,0 -0.4,0.8 c -0.8,1.7 -2.5,2.8 -4.3,2.8 l -12.1,0 0,32.7 m 96.8,20.4 13.4,0 0,-10.6 -13.4,0 0,10.6 m -78,0 13.4,0 0,-10.6 -13.4,0 0,10.6 m -298.3,0 13.4,0 0,-10.6 -13.4,0 0,10.6 m -78,0 13.4,0 0,-10.6 -13.4,0 0,10.6 m 143.3,52.6 24.8,0 c 2.6,0 4.8,2.2 4.8,4.8 0,2.6 -2.1,4.8 -4.8,4.8 l -29.7,0 c -2.6,0 -4.8,-2.1 -4.8,-4.8 l 0,-6.7 -43.8,0 0,5.1 6.2,0 c 2.6,0 4.8,2.1 4.8,4.8 l 0,16.2 14.7,0 c 2.6,0 4.8,2.1 4.8,4.8 l 0,144.6 77.3,0 c 2.6,0 4.8,2.1 4.8,4.8 l 0,9.6 9.5,0 0,-8.7 c 0,-3.5 2.3,-6.6 5.6,-7.7 l 0.4,-0.1 0.3,-0.3 c 0.8,-1 1.6,-1.8 2.5,-2.5 l 0.6,-0.5 0,-25.6 -0.8,-0.4 c -2.7,-1.3 -5,-3.1 -7,-5.5 l -0.3,-0.4 -0.5,-0.1 c -4,-0.7 -10.7,-3.4 -10.7,-9 l 0,-60.5 c 0,-5.6 6.8,-8.3 10.8,-9 l 0.5,-0.1 0.3,-0.4 c 1.5,-1.6 3.3,-3.1 5.4,-4.3 l 0.7,-0.4 0,-8.2 -0.5,-0.4 c -5,-4.3 -7.8,-10.4 -7.8,-16.8 0,-4.8 1.6,-9.4 4.6,-13.4 l 0.3,-0.4 0,-11.3 -2.5,2 c -7.3,6 -19.2,6.1 -19.7,6.1 l -10,0 c -2.6,0 -4.8,-2.2 -4.8,-4.8 0,-2.6 2.1,-4.8 4.8,-4.8 l 10,0 c 2.8,0 11.3,-0.9 14.5,-4.7 5.9,-7 13.6,-7.7 21.7,-7.7 0.8,0 1.7,0 2.5,0 l 3.8,0 c 8.8,0 16.5,0.6 22.5,7.7 3,3.5 11.1,4.7 14.5,4.7 l 10,0 c 2.6,0 4.8,2.1 4.8,4.8 0,2.6 -2.1,4.8 -4.8,4.8 l -10,0 c -0.5,0 -10.9,-0.1 -18.3,-5.1 l -2.3,-1.6 0,12.6 0.2,0.3 c 1.2,2.3 2,4.7 2.4,7.2 l 0.2,1.2 57.5,1.3 0.8,0 0.5,-0.7 c 2.4,-3.9 6.6,-6.2 11.2,-6.2 0.1,0 0.6,0 0.7,0 7.4,0.4 13,6.7 12.7,14 -0.4,7.1 -6.2,12.7 -13.3,12.7 -0.1,0 -0.6,0 -0.7,0 l -0.9,0 -16.2,26.4 0.5,0.8 c 1.5,2.4 2.2,5.1 2.1,7.8 -0.1,1.8 -0.6,3.6 -1.4,5.3 l -0.5,1 6.3,6.1 0.6,0 c 0.3,0 0.4,-0.1 0.6,-0.1 l 9.7,0.6 c 1.3,0.1 2.4,0.7 3.3,1.6 l 14.1,15.6 c 0.8,1 1.3,2.2 1.2,3.5 -0.1,1.2 -0.6,2.4 -1.6,3.3 -0.9,0.8 -2,1.2 -3.2,1.2 -1.4,0 -2.7,-0.6 -3.6,-1.6 l -12.8,-14.1 -4.6,-0.3 -0.2,4.6 12.8,14.1 c 0.8,1 1.3,2.2 1.2,3.5 -0.1,1.2 -0.6,2.4 -1.6,3.3 -0.9,0.8 -2,1.2 -3.2,1.2 -1.4,0 -2.7,-0.6 -3.6,-1.6 L 370.9,531 c -0.8,-0.9 -1.2,-2.1 -1.2,-3.4 l 0.3,-8.2 -8.1,-7.9 -0.8,0.2 c -1.1,0.2 -2,0.3 -2.9,0.3 -0.1,0 -0.6,0 -0.7,0 -3.5,-0.1 -6.8,-1.7 -9.2,-4.3 -2.4,-2.6 -3.7,-6 -3.5,-9.6 0.4,-7.1 6.3,-12.7 13.4,-12.7 0.1,0 0.6,0 0.7,0 0.1,0 0.3,0.1 0.4,0.1 0.1,0 0.3,0.1 0.5,0.1 l 1,0.1 15.9,-25.9 -0.6,-0.8 c -0.8,-1.2 -1.5,-2.5 -1.9,-3.7 l -0.3,-1 -58.1,-1.3 -0.4,1 c -1.2,3 -3.2,5.7 -5.7,8 l -0.5,0.4 0,8.6 0.7,0.4 c 2.1,1.2 3.9,2.7 5.4,4.3 l 0.3,0.4 0.5,0.1 c 4,0.7 10.8,3.4 10.8,9 l 0,60.5 c 0,5.5 -6.7,8.2 -10.6,9 l -0.6,0.1 -0.3,0.4 c -1.9,2.4 -3.9,4.1 -6.2,5.4 l -0.8,0.4 0,25.7 0.5,0.4 c 1,0.9 1.6,1.8 2.1,2.5 l 0.3,0.4 0.4,0.2 c 3.2,1.2 5.3,4.2 5.3,7.5 l 0,8.7 9.4,0 0,-9.6 c 0,-2.6 2.1,-4.8 4.8,-4.8 l 77.6,0 -0.1,-1.6 c 0,-0.2 0,-0.3 0,-0.4 l 0,-142.5 c 0,-2.6 2.1,-4.8 4.8,-4.8 l 14,0 0,-16.1 c 0,-2.6 2.1,-4.8 4.8,-4.8 l 6.9,0 0,-4.6 -43.6,0 0,6.2 c 0,2.6 -2.1,4.8 -4.8,4.8 l -31.8,0 c -2.6,0 -4.8,-2.2 -4.8,-4.8 0,-2.6 2.1,-4.8 4.8,-4.8 l 27,0 0,-39 -181.9,0 0,39 m -26.6,-15.9 9.5,-12.2 -19,0 9.5,12.2 m -36.8,0 9.5,-12.2 -4,0 c -0.1,0 -0.1,0 -0.2,0 -0.1,0 -0.1,0 -0.2,0 l -14.6,0 9.5,12.2 m -36.6,0 9.5,-12.2 -19.1,0 9.6,12.2 m -32,-6.1 4.6,-6.1 -3,0 -1.6,0.1 0,6 m 432.4,6.5 9.5,-12.1 -19,0 9.5,12.1 m -36.7,0.1 9.5,-12.2 -19.1,0 9.6,12.2 m -36.8,0 9.5,-12.2 -19.1,0 9.6,12.2 m -35.1,-2.2 7.9,-10 -7.9,0 0,10 m -246.4,6 19.1,0 -9.6,-12.2 -9.5,12.2 m -73.4,0 19,0 -9.5,-12.2 -9.5,12.2 m 36.7,0 19,0 -9.5,-12.1 -9.5,12.1 m 363.8,0.5 19,0 -9.5,-12.2 -9.5,12.2 m -73.6,0 19.1,0 -9.5,-12.2 -9.6,12.2 m 36.7,0.1 3.7,-0.5 c 0.1,0 0.3,-0.1 0.5,-0.1 l 0.1,0 c 0.7,0 1.3,0.1 1.9,0.4 l 0.3,0.1 12.7,0 -9.5,-12.2 -9.7,12.3 m -253.4,-0.6 7.9,0 0,-10.1 -7.9,10.1 m 326.9,0.6 4.7,0 0,-5.7 -2.6,3.1 -2.1,2.5 0,0.1 m -226.1,17 1.9,-0.3 c 2.2,-0.6 4,-0.9 5.8,-0.9 2.5,0 5,0.4 7.6,1.4 l 2,0.7 0,-9 -1.4,-0.1 c -1.5,-0.1 -3.1,-0.1 -5.4,-0.1 -0.5,0 -1,0 -1.6,0 l -2.3,0 c -1,-0.1 -1.9,-0.1 -2.7,-0.1 -0.8,0 -1.7,0 -2.4,0.1 l -1.4,0 0,8.3 m 227.9,17.4 13.4,0 0,-10.6 -13.4,0 0,10.6 m -78,0 13.4,0 0,-10.6 -13.4,0 0,10.6 m -298.3,0 13.4,0 0,-10.6 -13.4,0 0,10.6 m -78,0 13.4,0 0,-10.6 -13.4,0 0,10.6 m 234,16.1 c 6.9,0 12.6,-5.7 12.6,-12.6 0,-6.9 -5.6,-12.6 -12.6,-12.6 -7,0 -12.6,5.7 -12.6,12.6 0,6.9 5.6,12.6 12.6,12.6 m 91.9,-3.4 0.2,0 c 2,0 3.6,-1.5 3.7,-3.5 0.1,-2 -1.5,-3.7 -3.6,-3.8 -2,0 -3.7,1.5 -3.8,3.5 0,1.3 0.6,2.2 1,2.6 0.6,0.7 1.5,1.2 2.5,1.2 m 110.4,34.1 51,0 0,-36.4 -51,0 0,0 0,36.4 m -78.8,0 51,0 0,-36.4 -51,0 0,36.4 m -297.5,0 51,0 0,-36.4 -51,0 0,36.4 m -78.8,0 51,0 0,-36.4 -51,0 0,36.4 m 252.7,-21.2 c -0.6,0 -1.1,0 -1.7,-0.1 -0.3,0 -0.5,-0.1 -0.8,-0.1 l -1.7,-0.2 0,6.7 c 0,2 -1.2,3.8 -3,4.5 -2.9,1.1 -5.2,2.9 -6.7,5 -0.9,1.3 -2.4,2.1 -4,2.1 l -0.8,0 c -0.9,0.1 -2,0.5 -2.3,0.6 l -1,0.4 0,57.8 1,0.4 c 0.6,0.3 1.6,0.6 2.3,0.6 l 0.1,0 0.7,0 c 1.6,0 3.1,0.8 4,2.1 2.1,3 4.5,4.8 7.8,5.7 2,0.6 3.5,2.5 3.5,4.7 l 0,31.8 c 0,2 -1.2,3.8 -3,4.5 -1.4,0.5 -2,1.3 -3.4,3.2 -0.5,0.8 -1.2,1.3 -2,1.7 l -0.9,0.4 0,12 c 0,2.6 -2.1,4.8 -4.8,4.8 l -14.3,0 0,6.7 14.3,0 c 2.6,0 4.8,2.1 4.8,4.8 l 0,15.5 0.9,0.4 c 0.9,0.3 1.6,0.9 2,1.5 1.8,2.6 5.4,4.2 9.4,4.2 3.9,0 7.6,-1.7 9.4,-4.2 0.5,-0.8 1.2,-1.3 2,-1.7 l 0.9,-0.4 0,-15.4 c 0,-2.6 2.1,-4.8 4.8,-4.8 l 14.2,0 0.2,0 0,-6.8 -14.2,0 c -2.6,0 -4.8,-2.1 -4.8,-4.8 0,0 0,-0.1 0,-0.2 l 0,-11.9 -0.9,-0.4 c -0.9,-0.4 -1.6,-0.9 -2,-1.5 -0.4,-0.5 -0.7,-1 -1,-1.5 -0.5,-0.9 -0.7,-1.1 -0.9,-1.3 l -0.2,-0.2 -0.3,-0.1 c -1.9,-0.8 -3.2,-2.7 -3.2,-4.6 l 0,-31.8 c 0,-2.2 1.4,-4.1 3.5,-4.7 3.1,-0.9 4.7,-2.5 6.9,-5.7 0.9,-1.3 2.4,-2.1 4,-2.1 l 0.8,0 c 0.8,0 2,-0.5 2.3,-0.6 l 0.9,-0.4 0,-57.7 -1,-0.4 c -0.6,-0.3 -1.6,-0.6 -2.3,-0.6 l -0.1,0 -0.7,0 c -1.6,0 -3.1,-0.8 -4,-2.1 -1.4,-2 -3.8,-3.8 -6.7,-5 -1.8,-0.8 -3,-2.5 -3,-4.5 l 0,-6.8 -2.2,0.3 c -1,0.1 -1.9,0.2 -2.8,0.2 m 63.5,34.8 0.2,0 c 2,0 3.6,-1.6 3.7,-3.5 0,-2 -1.5,-3.8 -3.6,-3.9 l -0.1,0 c -2,0 -3.7,1.6 -3.8,3.6 0,0.9 0.3,1.8 1,2.6 0.7,0.7 1.5,1.2 2.6,1.2 m 138.9,28.8 51,0 0,-32.8 -51,0 0,0 0,32.8 m -78.8,0 51,0 0,-32.8 -51,0 0,32.8 m -297.5,0 51,0 0,-32.8 -51,0 0,32.8 m -78.8,0 51,0 0,-32.8 -51,0 0,32.8 m 455.1,42.5 51,0 0,-32.8 -51,0 0,32.8 m -78.8,0 51,0 0,-32.8 -51,0 0,32.8 m -297.5,0 51,0 0,-32.8 -51,0 0,32.8 m -78.8,0 51,0 0,-32.8 -51,0 0,32.8 m 78.8,42.1 33.4,0 0,-19 c 0,-2.6 2.2,-4.8 4.8,-4.9 l 12.8,0 0,-8.6 -51,0 0,32.5 m 376.3,0.1 51,0 0,-32.5 -51,0 0,32.5 m -455.1,0 51,0 0,-32.5 -51,0 0,32.5 m 376.1,-23.8 12.7,0 c 2.6,0 4.8,2.1 4.8,4.8 l 0,19 33.7,0 0,-32.4 -51,0 0,6.6 c -0.1,0.1 -0.1,0.2 -0.1,0.4 l -0.1,1.6 m -7.2,22.6 15.1,0 0,-13.1 -15.1,0 0,13.1 m -24.8,0 15.1,0 0,-13.1 -15.1,0 0,13.1 m -24.7,0 15.1,0 0,-13.1 -15.1,0 0,13.1 m -25.4,0 15.8,0 0,-13.1 -15.8,0 0,9.5 c 0,0.1 0,0.2 0,0.3 l 0,3.3 m -97.3,0 15.2,0 0,-13.1 -15.2,0 0,13.1 m -24.6,0 15,0 0,-13.1 -15,0 0,13.1 m -24.8,0 15.1,0 0,-13.1 -15.1,0 0,13.1 m -25.5,0 15.8,0 0,-13.1 -15.8,0 0,13.1 m 247.1,22.3 15.1,0 0,-12.6 -15.1,0 0,12.6 m -24.8,0 15.1,0 0,-12.6 -15.1,0 0,12.6 m -24.7,0 15.1,0 0,-12.6 -15.1,0 0,12.6 m -25.4,0 15.8,0 -0.1,0 0,-12.6 -15.7,0 0,12.6 m -97.3,0 15.2,0 0,-12.6 -15.2,0 0,12.6 m -24.6,0 15,0 0,-12.6 -15,0 0,12.6 m -24.8,0 15.1,0 0,-12.6 -15.1,0 0,12.6 m -25.5,0 15.8,0 0,-12.6 -15.8,0 0,12.6 M 295,658.8 c -0.1,0 -0.2,0 -0.4,0 -0.2,-0.1 -0.4,-0.1 -0.6,-0.1 l -1,0 -6.2,12.5 0,0 0,0.1 0,-0.1 17.4,0 -6.7,-12.6 -1,0.1 c -0.3,0 -0.5,0.1 -0.8,0.1 -0.3,0 -0.5,0 -0.7,0 m -11.2,32.2 23.5,0 0,-10 -23.5,0 0,10 m -107.3,-538.7 -60.7,0 c -3.3,0 -6.4,0.6 -9.3,1.8 -2.7,-1 -5.7,-1.6 -8.7,-1.6 l -60.6,0 c -13.7,0 -24.8,11.1 -24.8,24.8 l 0,173.1 c 0,11.7 8.2,21.5 19.1,24.1 1.1,7.1 5.2,13.3 11,17.1 l 0,14.1 c -6,3.9 -10.2,10.3 -11.1,17.7 -10.9,2.6 -19,12.4 -19,24.1 l 0,173.1 c 0,13.7 11.1,24.8 24.8,24.8 l 60.6,0 c 3.2,0 6.2,-0.6 9,-1.7 2.9,1.1 6,1.8 9.2,1.8 l 18.6,0 c 1.8,11.9 12.1,21.1 24.5,21.1 l 97,0 c -1.2,3.1 -1.8,6.2 -1.8,9.4 l 0,19.8 c 0,13.7 11.1,24.8 24.8,24.8 l 33.2,0 c 13.7,0 24.8,-11.1 24.8,-24.8 l 0,-19.8 c 0,-3.2 -0.6,-6.4 -1.9,-9.4 l 95.9,0 c 12.4,0 22.7,-9.2 24.5,-21.1 l 18.8,0 c 3.1,0 6.1,-0.6 8.9,-1.7 2.8,1.1 5.8,1.7 8.9,1.7 l 60.6,0 c 13.7,0 24.8,-11.1 24.8,-24.8 l 0,-173.1 c 0,-11.9 -8.5,-21.9 -19.7,-24.3 -0.9,-6.9 -4.7,-12.9 -10.2,-16.8 l 0,-15.3 c 5.3,-3.8 9.1,-9.6 10.2,-16.4 11.3,-2.3 19.8,-12.3 19.8,-24.3 l 0,-173.2 c 0,-13.7 -11.1,-24.8 -24.8,-24.8 l -60.7,0 c -3.2,0 -6.2,0.6 -9,1.7 -2.8,-1.1 -5.9,-1.7 -9,-1.7 l -60.7,0 c -13.7,0 -24.8,11.1 -24.8,24.8 l 0,58.4 c -2.9,-1 -6.1,-1.6 -9.3,-1.6 l -41.5,0 0,-9.8 c 0,-13.7 -11.1,-24.8 -24.8,-24.8 l -37.5,0 c -13.7,0 -24.8,11.1 -24.8,24.8 l 0,9.8 -6.3,0 c -11.3,-10.8 -26.1,-16.8 -41.9,-16.9 -0.1,0 -0.1,0 -0.2,0 -0.3,0 -0.7,0 -1,0 l 0,-40.1 c -0.1,-13.7 -11.2,-24.8 -24.9,-24.8 l 0,0 z m 13.9,126.4 c 0.1,-6.4 5.6,-11.7 11.9,-11.7 3,0 5.9,1.2 8,3.4 0,0 0.1,0.1 0.1,0.1 2.2,2.2 3.3,5 3.3,8.3 -0.1,6.4 -5.3,11.6 -11.7,11.6 l 0,0 c -6.3,-0.1 -11.5,-5.3 -11.6,-11.7 l 0,0 z m 147.3,44.5 41.5,0 c 3.3,0 6.4,-0.6 9.4,-1.6 l 0,28.2 -50.9,0 0,-26.6 0,0 z m -93.5,0 6.4,0 0,26.6 -49.3,0 0,-9.8 c 0.1,0 0.2,0 0.3,0 0.1,0 0.2,0 0.3,0 l 0.2,0 c 15.8,0 30.8,-6 42.1,-16.8 l 0,0 z m 105.2,76.4 2.6,0 c -0.4,0.1 -0.8,0.2 -1.1,0.4 -0.5,-0.2 -1,-0.3 -1.5,-0.4 l 0,0 z m -113.5,0 4,0 c -0.8,0.2 -1.5,0.4 -2.3,0.6 -0.5,-0.2 -1.1,-0.4 -1.7,-0.6 l 0,0 z m -34.8,48.6 27.8,0 c 2.5,0 5,-0.4 7.3,-1.1 2.7,1 5.7,1.6 8.7,1.6 l 7.4,0 c 0.3,4.7 1.5,9.3 3.3,13.6 0,0 0,0 0,0 -8.2,5.4 -12.8,13.8 -12.8,23 l 0,60.5 c 0,9.2 4.6,17.5 12.7,22.9 2.2,1.5 4.5,2.6 6.6,3.5 l 0,0.3 c -1.2,-0.2 -2.4,-0.3 -3.7,-0.3 l -57.3,0 0,-124 0,0 z m 91.6,51.5 c 0.8,-0.7 1.6,-1.5 2.4,-2.3 0.8,0.8 1.6,1.6 2.4,2.3 l 0,31.3 c -0.8,0.7 -1.6,1.5 -2.4,2.3 -0.8,-0.8 -1.6,-1.6 -2.4,-2.3 l 0,-31.3 0,0 z m 35.7,72 c 11.3,-5 18.5,-14.7 18.5,-26 l 0,-15.6 c 1,0.4 2,0.7 3,0.9 0.7,5 2.7,9.6 6,13.3 0,0 0.1,0.1 0.1,0.1 l 14.1,15.6 c 4.7,5.2 11.4,8.2 18.4,8.2 0,0 0.1,0 0.1,0 l 0,3.8 -57.5,0 c -0.9,0 -1.9,0.1 -2.8,0.2 l 0,-0.5 0.1,0 z"
         id="path9"
         inkscape:connector-curvature="0"
         style="fill:#0f0d17" /></g><g
       id="g11"><path
         d="m 201.6,309.8 c -2.3,0 -4.4,-0.8 -6.2,-2.1 -13.4,-2.8 -23.5,-14.8 -23.5,-29.1 0,-16.3 13.3,-29.5 29.7,-29.5 7.9,0 15.3,3.1 21,8.7 5.6,5.6 8.6,13 8.6,21 0,14.1 -10,25.9 -23.4,28.8 -1.5,1.2 -3.5,2 -5.6,2.2 -0.2,0 -0.4,0 -0.6,0 z"
         id="path13"
         inkscape:connector-curvature="0"
         style="fill:#423e52" /><path
         d="m 201.6,259.1 c 5.3,0 10.2,2.1 13.9,5.8 3.7,3.7 5.7,8.7 5.7,13.9 0,10.7 -8.8,19.5 -19.7,19.5 l 0.1,1.5 -0.1,-1.5 c -10.9,0 -19.6,-8.9 -19.6,-19.7 0,-10.7 8.9,-19.5 19.7,-19.5 m -0.1,29.6 c 5.5,0 10,-4.4 10,-9.9 0,-2.7 -1,-5.2 -2.9,-7.1 -1.8,-1.9 -4.3,-3 -7,-3 -5.5,0 -10,4.5 -10.1,10 0,5.5 4.4,10 10,10 m 0.1,-49.6 c -21.9,0 -39.7,17.7 -39.7,39.5 0,18.4 12.5,33.9 29.5,38.4 3,1.8 6.5,2.8 10.2,2.8 0.4,0 0.9,0 1.4,0 3.3,-0.2 6.4,-1.2 9,-2.8 16.8,-4.6 29.2,-19.9 29.2,-38.1 0,-10.6 -4.1,-20.6 -11.6,-28 -7.5,-7.7 -17.4,-11.8 -28,-11.8 l 0,0 z"
         id="path15"
         inkscape:connector-curvature="0"
         style="fill:#0f0d17" /></g></g></svg>