<?xml version="1.0" encoding="UTF-8" standalone="no"?>
<!-- Generator: Adobe Illustrator 18.1.1, SVG Export Plug-In . SVG Version: 6.00 Build 0)  -->

<svg
   xmlns:dc="http://purl.org/dc/elements/1.1/"
   xmlns:cc="http://creativecommons.org/ns#"
   xmlns:rdf="http://www.w3.org/1999/02/22-rdf-syntax-ns#"
   xmlns:svg="http://www.w3.org/2000/svg"
   xmlns="http://www.w3.org/2000/svg"
   xmlns:sodipodi="http://sodipodi.sourceforge.net/DTD/sodipodi-0.dtd"
   xmlns:inkscape="http://www.inkscape.org/namespaces/inkscape"
   version="1.1"
   id="Layer_1"
   x="0px"
   y="0px"
   viewBox="0 0 525.3 528.29997"
   xml:space="preserve"
   inkscape:version="0.91 r13725"
   sodipodi:docname="iss_mks.svg"
   width="525.29999"
   height="528.29999"><metadata
     id="metadata13"><rdf:RDF><cc:Work
         rdf:about=""><dc:format>image/svg+xml</dc:format><dc:type
           rdf:resource="http://purl.org/dc/dcmitype/StillImage" /><dc:title></dc:title></cc:Work></rdf:RDF></metadata><defs
     id="defs11" /><sodipodi:namedview
     pagecolor="#ffffff"
     bordercolor="#666666"
     borderopacity="1"
     objecttolerance="10"
     gridtolerance="10"
     guidetolerance="10"
     inkscape:pageopacity="0"
     inkscape:pageshadow="2"
     inkscape:window-width="640"
     inkscape:window-height="480"
     id="namedview9"
     showgrid="false"
     fit-margin-top="0"
     fit-margin-left="0"
     fit-margin-right="0"
     fit-margin-bottom="0"
     inkscape:zoom="0.28031832"
     inkscape:cx="265.24999"
     inkscape:cy="279.64999"
     inkscape:window-x="0"
     inkscape:window-y="0"
     inkscape:window-maximized="0"
     inkscape:current-layer="Layer_1" /><g
     id="g3"
     transform="translate(-32.4,-172.3)"><path
       style="fill:#423e52"
       d="m 492.2,625.5 60.6,0 c 2.7,0 4.8,-2.2 4.8,-4.8 l 0,-173.1 c 0,-2.7 -2.2,-4.8 -4.8,-4.8 l -14.7,0 0,-16.1 c 0,-2.7 -2.2,-4.8 -4.8,-4.8 l -5.7,0 0,-9.2 c 0,-0.2 0,-0.3 0.1,-0.4 l 0,-25.9 c 0,-0.1 0,-0.2 0,-0.3 l 0,-10.3 5.7,0 c 2.7,0 4.8,-2.2 4.8,-4.8 l 0,-15.6 14.7,0 c 2.7,0 4.8,-2.2 4.8,-4.8 l 0,-173.3 c 0,-2.7 -2.2,-4.8 -4.8,-4.8 l -60.7,0 c -2.7,0 -4.8,2.2 -4.8,4.8 l 0,173.1 c 0,2.7 2.2,4.8 4.8,4.8 l 13.2,0 0,15.6 c 0,2.7 2.2,4.8 4.8,4.8 l 7.7,0 0,5.6 -69.1,0 0,-5.6 6.5,0 c 2.7,0 4.8,-2.2 4.8,-4.8 l 0,-15.6 14,0 c 2.7,0 4.8,-2.2 4.8,-4.8 l 0,-173.1 c 0,-2.7 -2.2,-4.8 -4.8,-4.8 l -60.7,0 c -2.7,0 -4.8,2.2 -4.8,4.8 l 0,67.5 -0.6,0.3 -18,18.3 -1.1,-1.2 c -0.2,-0.2 -0.3,-0.4 -0.5,-0.6 -0.1,-0.2 -0.2,-0.3 -0.4,-0.5 l -0.3,-0.3 -0.1,-0.4 c -1,-3.7 -4.4,-6.3 -8.3,-6.3 l -53.7,0 c -2.8,0 -5.4,1.3 -7,3.6 l -1.2,1.7 -1.2,-1.7 c -1.2,-1.6 -2.9,-2.8 -4.8,-3.3 l -1.1,-0.3 0,-8.1 2.7,0 c 2.7,0 4.8,-2.2 4.8,-4.8 l 0,-16.9 c 0,-2.7 -2.2,-4.8 -4.8,-4.8 l -37.5,0 c -2.7,0 -4.8,2.2 -4.8,4.8 l 0,16.9 c 0,2.7 2.2,4.8 4.8,4.8 l 2.7,0 0,8.1 -1.1,0.3 c -1.9,0.5 -3.7,1.7 -4.8,3.3 l -1.2,1.7 -1.2,-1.7 c -1.6,-2.3 -4.2,-3.6 -7,-3.6 l -27.5,0 -0.5,-0.6 c -1.2,-1.6 -2.3,-2.8 -3.4,-4 -7.8,-7.9 -18.1,-12.2 -29.2,-12.3 -6.5,0 -12.8,1.5 -18.8,4.5 l -2.2,1.1 0,-65.7 c 0,-2.7 -2.2,-4.8 -4.8,-4.8 l -60.7,0 c -2.7,0 -4.8,2.2 -4.8,4.8 l 0,173.1 c 0,2.7 2.2,4.8 4.8,4.8 l 13.2,0 0,15.6 c 0,2.7 2.2,4.8 4.8,4.8 l 7.2,0 0,5.2 -68.9,0 0,-5.2 6.9,0 c 2.7,0 4.8,-2.2 4.8,-4.8 l 0,-15.6 14,0 c 2.7,0 4.8,-2.2 4.8,-4.8 l 0,-172.9 c 0,-2.7 -2.2,-4.8 -4.8,-4.8 l -60.6,0 c -2.7,0 -4.8,2.2 -4.8,4.8 l 0,173.1 c 0,2.7 2.2,4.8 4.8,4.8 l 14,0 0,15.6 c 0,2.7 2.2,4.8 4.8,4.8 l 6.5,0 0,9.8 c 0,0.2 0,0.3 0,0.4 l 0,25.8 c 0,0.1 0,0.2 0,0.4 l 0,9.7 -6.5,0 c -2.7,0 -4.8,2.2 -4.8,4.8 l 0,16.2 -14,0 c -2.7,0 -4.8,2.2 -4.8,4.8 l 0,173.1 c 0,2.7 2.2,4.8 4.8,4.8 l 60.6,0 c 2.7,0 4.8,-2.2 4.8,-4.8 l 0,-173 c 0,-2.7 -2.2,-4.8 -4.8,-4.8 l -14,0 0,-16.2 c 0,-2.7 -2.2,-4.8 -4.8,-4.8 l -6.9,0 0,-5.1 69.1,0 0,5.1 -7.2,0 c -2.7,0 -4.8,2.2 -4.8,4.8 l 0,16.2 -13.2,0 c -2.7,0 -4.8,2.2 -4.8,4.8 l 0,173.1 c 0,2.7 2.2,4.8 4.8,4.8 l 38.3,0 0,16.3 c 0,2.7 2.2,4.8 4.8,4.8 l 99.7,0 c 2.7,0 4.8,-2.2 4.8,-4.8 l 0,-9.4 9.5,0 0,12.1 c 0,3.5 2.2,6.5 5.7,7.6 l 0.4,0.1 0.3,0.3 c 0.9,1 2,1.9 3.1,2.7 l 1.1,0.7 -8.9,17.9 c -0.3,0.7 -0.5,1.4 -0.5,2.2 l 0,19.8 c 0,2.7 2.2,4.8 4.8,4.8 l 33.2,0 c 2.7,0 4.8,-2.2 4.8,-4.8 l 0,-19.8 c 0,-0.8 -0.2,-1.6 -0.6,-2.3 l -9.6,-18 1.1,-0.8 c 1.2,-0.8 2,-1.5 2.7,-2.3 l 0.3,-0.3 0.4,-0.1 c 3.4,-1 5.8,-4.2 5.8,-7.7 l 0,-12.1 9.4,0 0,9.4 c 0,2.7 2.2,4.8 4.8,4.8 l 99.7,0 c 2.7,0 4.8,-2.2 4.8,-4.8 l 0,-16.3 38.5,0 c 2.7,0 4.8,-2.2 4.8,-4.8 l 0,-173.1 c 0,-2.7 -2.2,-4.8 -4.8,-4.8 l -14,0 0,-16.1 c 0,-2.7 -2.2,-4.8 -4.8,-4.8 l -6.5,0 0,-4.6 68.9,0 0,4.6 -7.7,0 c -2.7,0 -4.8,2.2 -4.8,4.8 l 0,16.1 -13.2,0 c -2.7,0 -4.8,2.2 -4.8,4.8 l 0,173.1 c -0.1,2.7 2.1,4.8 4.7,4.8 z m 55.9,-9.6 -51,0 0,-32.5 51,0 0,32.5 z m 0,-42.2 -51,0 0,-32.8 51,0 0,32.8 z m -51,-391.6 51,0 0,32.5 -51,0 0,-32.5 z m 0,42.2 51,0 0,32.8 -51,0 0,-32.8 z m 0,42.5 51,0 0,32.8 -51,0 0,-32.8 z m 0,78.8 0,-36.4 51,0 0,36.4 -51,0 z m 18,20.4 0,-10.6 13.4,0 0,10.6 -13.4,0 z m -64.6,0 -13.4,0 0,-10.6 13.4,0 0,10.6 z m -37.9,29.3 9.5,12.2 -19.1,0 9.6,-12.2 z m -16.7,5.7 0,-10 7.9,0 -7.9,10 z m 25.5,-10 19.1,0 -9.5,12.2 -9.6,-12.2 z m 47.9,-45.4 -51,0 0,-32.7 12.1,0 c 1.8,0 3.5,-1.1 4.3,-2.8 l 0.4,-0.8 34.1,0 0,36.3 z m 0,-46 -34,0 0,-32.8 34,0 0,32.8 z m -51,-117.5 51,0 0,32.5 -51,0 0,-32.5 z m 0,42.2 51,0 0,32.8 -34,0 0,-8.7 c 0,-2.7 -2.2,-4.8 -4.8,-4.8 l -12.1,0 0,-19.3 z m -23.8,49 -0.2,-0.9 0.7,-0.6 c 0.1,-0.1 0.3,-0.2 0.5,-0.3 l 0.1,-0.1 18,-18.2 12,0 0,50 -12.1,0 -18.1,-17.1 c -0.2,-0.1 -0.4,-0.2 -0.5,-0.3 l -0.8,-0.6 0.2,-0.9 c 0.4,-2 0.6,-3.8 0.6,-5.6 0.2,-1.8 0,-3.5 -0.4,-5.4 z m -6.9,23.6 0.1,-0.4 0.3,-0.3 c 0.1,-0.1 0.2,-0.3 0.3,-0.4 0.1,-0.2 0.3,-0.4 0.5,-0.6 l 1,-1.1 18.8,17.8 0,38.6 c 0,2.7 2.2,4.8 4.8,4.8 l 14,0 0,15.6 c 0,2.7 2.2,4.8 4.8,4.8 l 6.9,0 0,5.6 -43.6,0 0,-6.7 c 0,-2.7 -2.2,-4.8 -4.8,-4.8 l -73,0 0,-70.5 2.4,2 c 1.5,1.2 3.4,1.9 5.4,1.9 l 53.7,0 c 4,0 7.4,-2.6 8.4,-6.3 z m -125.9,-33.1 0.3,1 c 0.3,1 1,1.9 1.9,2.5 1.6,1.1 3,3 4,5.3 0.7,1.8 2.5,3 4.5,3 l 3.2,0 c 2.7,0 4.8,-2.2 4.8,-4.8 l 0,-7 2.7,0 c 2.7,0 4.8,-2.2 4.8,-4.8 l 0,-17.8 c 0,-2.7 -2.2,-4.8 -4.8,-4.8 l -2.7,0 0,-7.2 27.8,0 0,7.2 -2.7,0 c -2.7,0 -4.8,2.2 -4.8,4.8 l 0,17.8 c 0,2.7 2.2,4.8 4.8,4.8 l 2.7,0 0,7 c 0,2.7 2.2,4.8 4.8,4.8 l 3.2,0 c 2,0 3.7,-1.2 4.5,-3 0.9,-2.3 2.3,-4.1 4,-5.3 0.9,-0.6 1.5,-1.5 1.8,-2.5 l 0.3,-1 51.4,0 0.3,1 c 0.3,1 1,1.9 1.8,2.5 3.1,2.1 5.1,6.6 5.1,11.4 0,4.7 -2,9.2 -5.1,11.4 -0.8,0.6 -1.5,1.5 -1.8,2.5 l -0.3,1 -51.4,0 -0.3,-1 c -0.3,-1 -1,-1.9 -1.8,-2.5 -1.7,-1.2 -3.1,-3 -4,-5.3 -0.7,-1.8 -2.5,-3 -4.5,-3 l -3.2,0 c -2.7,0 -4.8,2.2 -4.8,4.8 l 0,83.2 -9,0 0,-28.8 c 0,-2.7 -2.2,-4.8 -4.8,-4.8 -2.6,0 -4.8,2.2 -4.8,4.8 l 0,28.8 -9.2,0 0,-83.3 c 0,-2.7 -2.2,-4.8 -4.8,-4.8 l -3.2,0 c -2,0 -3.7,1.2 -4.5,3 -0.9,2.3 -2.3,4.2 -4,5.3 -0.8,0.6 -1.5,1.5 -1.8,2.5 l -0.3,1 -20.9,0 0.6,-2 c 1.4,-4.1 2.1,-8.4 2.1,-12.7 0,-4.4 -0.7,-8.8 -2.1,-13.1 l -0.6,-2 20.8,0 z m -26.3,39.4 27.4,0 c 2,0 3.8,-0.7 5.4,-1.9 l 2.4,-2 0,70.5 -71.2,0 c -2.7,0 -4.8,2.2 -4.8,4.8 l 0,6.2 -43.8,0 0,-5.2 6.2,0 c 2.7,0 4.8,-2.2 4.8,-4.8 l 0,-15.6 14.7,0 c 2.7,0 4.8,-2.2 4.8,-4.8 l 0,-36 2.2,1.1 c 5.8,2.9 12,4.4 18.4,4.5 l 0.2,0 c 12.9,0 24.8,-5.9 32.8,-16.2 l 0.5,-0.6 z m -67.4,87.3 19,0 -9.5,12.2 -9.5,-12.2 z m 0.6,16.5 -19.1,0 9.5,-12.2 9.6,12.2 z m 25.6,-10.1 0,10.1 -7.9,0 7.9,-10.1 z m 8.1,-149.9 0,0 c 8.4,0 16.4,3.4 22.3,9.4 6,6 9.2,14 9.2,22.5 -0.1,17.4 -14.3,31.5 -31.7,31.5 l -0.1,0 C 184.5,310.3 170.4,296 170.4,278.6 170.6,261.2 184.9,247 202.3,247 Z m -81.5,-64.9 51,0 0,32.5 -51,0 0,-32.5 z m 0,42.2 51,0 0,25.7 c 0,0.1 0,0.1 0,0.2 l 0,0.6 -0.4,0.4 c -1.5,1.6 -2.8,3.4 -3.9,5.1 l -0.4,0.7 -46.3,0 0,-32.7 z m 0,42.4 41.8,0 -0.5,1.9 c -0.9,3.4 -1.3,6.7 -1.3,9.9 0,6.6 1.5,13 4.5,18.9 l 1.1,2.2 -45.7,0 0,-32.9 z m 0,78.9 0,-36.4 51,0 0,36.4 -51,0 z m 18,20.4 0,-10.6 13.4,0 0,10.6 -13.4,0 z M 42,182.1 l 51,0 0,32.5 -51,0 0,-32.5 z m 0,42.2 51,0 0,32.8 -51,0 0,-32.8 z m 0,42.4 51,0 0,32.8 -51,0 0,-32.8 z m 0,78.9 0,-36.4 51,0 0,36.4 -51,0 z m 51,270.3 -51,0 0,-32.5 51,0 0,32.5 z m 0,-42.2 -51,0 0,-32.8 51,0 0,32.8 z m 0,-42.5 -51,0 0,-32.8 51,0 0,32.8 z m 0,-78.8 0,36.4 -51,0 0,-36.4 51,0 z m -18.8,-21 0,10.6 -13.4,0 0,-10.6 13.4,0 z M 60.8,366 l 0,-10.6 13.4,0 0,10.6 -13.4,0 z m 11.3,24.6 1.6,-0.1 3,0 -4.6,6.1 0,-6 z m 4,16.4 9.5,-12.2 9.5,12.2 -19,0 z m 18.4,-16.5 19.1,0 -9.5,12.2 -9.6,-12.2 z m 18.3,16.5 9.5,-12.1 9.5,12.1 -19,0 z m 27.9,-4.3 -9.5,-12.2 14.6,0 c 0.1,0 0.1,0 0.2,0 0.1,0 0.1,0 0.2,0 l 4,0 -9.5,12.2 z m -1.9,28.7 13.4,0 0,10.6 -13.4,0 0,-10.6 z m -18,21 51,0 0,36.4 -51,0 0,-36.4 z m 0,46 51,0 0,32.8 -51,0 0,-32.8 z m 0,42.5 51,0 0,32.8 -51,0 0,-32.8 z m 33.4,55.9 0,19 -33.4,0 0,-32.5 51,0 0,8.6 -12.8,0 c -2.6,0.1 -4.8,2.3 -4.8,4.9 z m 25.4,40.2 -15.8,0 0,-12.6 15.8,0 0,12.6 z m 0,-22.3 -15.8,0 0,-13.1 15.8,0 0,13.1 z m 24.8,22.3 -15.1,0 0,-12.6 15.1,0 0,12.6 z m 0,-22.3 -15.1,0 0,-13.1 15.1,0 0,13.1 z m 24.7,22.3 -15,0 0,-12.6 15,0 0,12.6 z m 0,-22.3 -15,0 0,-13.1 15,0 0,13.1 z m 24.8,22.3 -15.2,0 0,-12.6 15.2,0 0,12.6 z m 0,-22.3 -15.2,0 0,-13.1 15.2,0 0,13.1 z m 53.4,66.3 0,10 -23.5,0 0,-10 23.5,0 z m -20.6,-9.7 6.3,-12.6 1,0 c 0.2,0 0.4,0 0.6,0.1 0.4,0.1 0.7,0 1.1,0 0.3,0 0.5,-0.1 0.8,-0.1 l 1,-0.1 6.7,12.6 -17.5,0 z m 39.7,-48.5 -14.2,0 c -2.7,0 -4.8,2.2 -4.8,4.8 l 0,15.4 -0.9,0.4 c -0.8,0.4 -1.5,0.9 -2,1.7 -1.8,2.5 -5.5,4.2 -9.4,4.2 -4,0 -7.6,-1.6 -9.4,-4.2 -0.4,-0.6 -1.1,-1.2 -2,-1.5 l -0.9,-0.4 0,-15.5 c 0,-2.7 -2.2,-4.8 -4.8,-4.8 l -14.3,0 0,-6.7 14.3,0 c 2.7,0 4.8,-2.2 4.8,-4.8 l 0,-12 0.9,-0.4 c 0.8,-0.4 1.5,-0.9 2,-1.7 1.4,-1.9 2,-2.7 3.4,-3.2 1.8,-0.7 3,-2.5 3,-4.5 l 0,-31.8 c 0,-2.2 -1.5,-4.1 -3.5,-4.7 -3.3,-0.9 -5.7,-2.7 -7.8,-5.7 -0.9,-1.3 -2.4,-2.1 -4,-2.1 l -0.7,0 -0.1,0 c -0.7,0 -1.7,-0.3 -2.3,-0.6 l -1,-0.4 0,-57.8 1,-0.4 c 0.3,-0.1 1.4,-0.5 2.3,-0.6 l 0.8,0 c 1.6,0 3.1,-0.8 4,-2.1 1.5,-2.1 3.8,-3.9 6.7,-5 1.8,-0.7 3,-2.5 3,-4.5 l 0,-6.7 1.7,0.2 c 0.3,0 0.5,0.1 0.8,0.1 1.6,0.2 2.9,0.1 4.5,-0.1 l 2.2,-0.3 0,6.8 c 0,2 1.2,3.7 3,4.5 2.9,1.2 5.3,3 6.7,5 0.9,1.3 2.4,2.1 4,2.1 l 0.7,0 0.1,0 c 0.7,0 1.7,0.3 2.3,0.6 l 1,0.4 0,57.7 -0.9,0.4 c -0.3,0.1 -1.5,0.6 -2.3,0.6 l -0.8,0 c -1.6,0 -3.1,0.8 -4,2.1 -2.2,3.2 -3.8,4.8 -6.9,5.7 -2.1,0.6 -3.5,2.5 -3.5,4.7 l 0,31.8 c 0,1.9 1.3,3.8 3.2,4.6 l 0.3,0.1 0.2,0.2 c 0.2,0.2 0.4,0.4 0.9,1.3 0.3,0.5 0.6,1 1,1.5 0.4,0.6 1.1,1.1 2,1.5 l 0.9,0.4 0,11.9 c 0,0.1 0,0.2 0,0.2 0,2.7 2.2,4.8 4.8,4.8 l 14.2,0 0,6.8 z M 294.8,432.9 c 7,0 12.6,5.7 12.6,12.6 0,6.9 -5.7,12.6 -12.6,12.6 -7,0 -12.6,-5.7 -12.6,-12.6 0,-6.9 5.6,-12.6 12.6,-12.6 z m -7.7,-8.3 0,-8.3 1.4,0 c 1.5,-0.1 3.3,-0.1 5.2,0 l 2.3,0 c 0.6,0 1.1,0 1.6,0 2.3,0 3.9,0 5.4,0.1 l 1.4,0.1 0,9 -2,-0.7 c -2.6,-1 -5.1,-1.4 -7.6,-1.4 -1.8,0 -3.6,0.3 -5.8,0.9 l -1.9,0.3 z m 64.7,212.4 -15.8,0 0,-12.6 15.7,0 0,12.6 z m 0,-22.3 -15.8,0 0,-3.3 c 0,-0.1 0,-0.2 0,-0.3 l 0,-9.5 15.8,0 0,13.1 z m 24.7,22.3 -15.1,0 0,-12.6 15.1,0 0,12.6 z m 0,-22.3 -15.1,0 0,-13.1 15.1,0 0,13.1 z m 24.7,22.3 -15.1,0 0,-12.6 15.1,0 0,12.6 z m 0,-22.3 -15.1,0 0,-13.1 15.1,0 0,13.1 z m 7.5,-24.3 0.1,1.6 -77.6,0 c -2.7,0 -4.8,2.2 -4.8,4.8 l 0,9.6 -9.4,0 0,-8.7 c 0,-3.3 -2.1,-6.3 -5.3,-7.5 l -0.4,-0.2 -0.3,-0.4 c -0.5,-0.7 -1.1,-1.6 -2.1,-2.5 l -0.5,-0.4 0,-25.7 0.8,-0.4 c 2.3,-1.3 4.3,-3 6.2,-5.4 l 0.3,-0.4 0.6,-0.1 c 3.9,-0.8 10.6,-3.5 10.6,-9 l 0,-60.5 c 0,-5.6 -6.8,-8.3 -10.8,-9 l -0.5,-0.1 -0.3,-0.4 c -1.5,-1.6 -3.3,-3.1 -5.4,-4.3 l -0.7,-0.4 0,-8.6 0.5,-0.4 c 2.5,-2.3 4.5,-5 5.7,-8 l 0.4,-1 58.1,1.3 0.3,1 c 0.4,1.2 1.1,2.5 1.9,3.7 l 0.6,0.8 -15.9,25.9 -1,-0.1 c -0.2,0 -0.4,-0.1 -0.5,-0.1 -0.1,0 -0.3,-0.1 -0.4,-0.1 -0.1,0 -0.6,0 -0.7,0 -7.1,0 -13,5.6 -13.4,12.7 -0.2,3.6 1.1,7 3.5,9.6 2.4,2.6 5.7,4.2 9.2,4.3 0.1,0 0.6,0 0.7,0 0.9,0 1.8,-0.1 2.9,-0.3 l 0.8,-0.2 8.1,7.9 -0.3,8.2 c 0,1.3 0.4,2.5 1.2,3.4 l 14.1,15.6 c 0.9,1 2.2,1.6 3.6,1.6 1.2,0 2.3,-0.4 3.2,-1.2 1,-0.9 1.5,-2.1 1.6,-3.3 0.1,-1.3 -0.4,-2.5 -1.2,-3.5 l -12.8,-14.1 0.2,-4.6 4.6,0.3 12.8,14.1 c 0.9,1 2.2,1.6 3.6,1.6 1.2,0 2.3,-0.4 3.2,-1.2 1,-0.9 1.5,-2.1 1.6,-3.3 0.1,-1.3 -0.4,-2.5 -1.2,-3.5 l -14.1,-15.6 c -0.9,-0.9 -2,-1.5 -3.3,-1.6 l -9.7,-0.6 c -0.2,0 -0.3,0.1 -0.6,0.1 l -0.6,0 -6.3,-6.1 0.5,-1 c 0.8,-1.7 1.3,-3.5 1.4,-5.3 0.1,-2.7 -0.6,-5.4 -2.1,-7.8 l -0.5,-0.8 16.2,-26.4 0.9,0 c 0.1,0 0.6,0 0.7,0 7.1,0 12.9,-5.6 13.3,-12.7 0.3,-7.3 -5.3,-13.6 -12.7,-14 -0.1,0 -0.6,0 -0.7,0 -4.6,0 -8.8,2.3 -11.2,6.2 l -0.5,0.7 -0.8,0 -57.5,-1.3 -0.2,-1.2 c -0.4,-2.5 -1.2,-4.9 -2.4,-7.2 l -0.2,-0.3 0,-12.6 2.3,1.6 c 7.4,5 17.8,5.1 18.3,5.1 l 10,0 c 2.7,0 4.8,-2.2 4.8,-4.8 0,-2.7 -2.2,-4.8 -4.8,-4.8 l -10,0 c -3.4,0 -11.5,-1.2 -14.5,-4.7 -6,-7.1 -13.7,-7.7 -22.5,-7.7 l -3.8,0 c -9,-0.1 -17.7,0 -24.2,7.7 -3.2,3.8 -11.7,4.7 -14.5,4.7 l -10,0 c -2.7,0 -4.8,2.2 -4.8,4.8 0,2.6 2.2,4.8 4.8,4.8 l 10,0 c 0.5,0 12.4,-0.1 19.7,-6.1 l 2.5,-2 0,11.3 -0.3,0.4 c -3,4 -4.6,8.6 -4.6,13.4 0,6.4 2.8,12.5 7.8,16.8 l 0.5,0.4 0,8.2 -0.7,0.4 c -2.1,1.2 -3.9,2.7 -5.4,4.3 l -0.3,0.4 -0.5,0.1 c -4,0.7 -10.8,3.4 -10.8,9 l 0,60.5 c 0,5.6 6.7,8.3 10.7,9 l 0.5,0.1 0.3,0.4 c 2,2.4 4.3,4.2 7,5.5 l 0.8,0.4 0,25.6 -0.6,0.5 c -0.9,0.7 -1.7,1.5 -2.5,2.5 l -0.3,0.3 -0.4,0.1 c -3.3,1.1 -5.6,4.2 -5.6,7.7 l 0,8.7 -9.5,0 0,-9.6 c 0,-2.7 -2.2,-4.8 -4.8,-4.8 l -77.3,0 0,-144.6 c 0,-2.7 -2.2,-4.8 -4.8,-4.8 l -14.7,0 0,-16.2 c 0,-2.7 -2.2,-4.8 -4.8,-4.8 l -6.2,0 0,-5.1 43.8,0 0,6.7 c 0,2.7 2.2,4.8 4.8,4.8 l 29.7,0 c 2.7,0 4.8,-2.2 4.8,-4.8 0,-2.6 -2.2,-4.8 -4.8,-4.8 l -24.8,0 0,-39 181.9,0 0,39 -27,0 c -2.7,0 -4.8,2.2 -4.8,4.8 0,2.6 2.2,4.8 4.8,4.8 l 31.8,0 c 2.7,0 4.8,-2.2 4.8,-4.8 l 0,-6.2 43.6,0 0,4.6 -6.9,0 c -2.7,0 -4.8,2.2 -4.8,4.8 l 0,16.1 -14,0 c -2.7,0 -4.8,2.2 -4.8,4.8 l 0,142.5 c 0,0.1 0,0.2 0,0.4 z m -46.6,-91.5 c -0.1,1.9 -1.7,3.5 -3.7,3.5 l -0.2,0 c -1.1,0 -1.9,-0.5 -2.6,-1.2 -0.7,-0.8 -1,-1.7 -1,-2.6 0.1,-2 1.8,-3.6 3.8,-3.6 l 0.1,0 c 2.1,0.1 3.6,1.9 3.6,3.9 z m 21.1,-48 c 0.1,-2 1.8,-3.5 3.8,-3.5 l 0,0 c 2.1,0.1 3.7,1.8 3.6,3.8 -0.1,2 -1.7,3.5 -3.7,3.5 l -0.2,0 c -1,0 -1.9,-0.5 -2.5,-1.2 -0.4,-0.4 -1,-1.3 -1,-2.6 z m 35.1,90 51,0 0,32.8 -51,0 0,-32.8 z m 7.7,96.1 -15.1,0 0,-12.6 15.1,0 0,12.6 z m 0,-22.3 -15.1,0 0,-13.1 15.1,0 0,13.1 z m 43.3,1.2 -33.7,0 0,-19 c 0,-2.7 -2.2,-4.8 -4.8,-4.8 l -12.7,0 0.1,-1.6 c 0,-0.2 0,-0.3 0.1,-0.4 l 0,-6.6 51,0 0,32.4 z m 0,-84.7 -51,0 0,-32.8 51,0 0,32.8 z m 0,-78.8 0,36.4 -51,0 0,-36.4 51,0 z m -18.8,-21 0,10.6 -13.4,0 0,-10.6 13.4,0 z m -4.3,-23.9 -0.3,-0.1 c -0.6,-0.3 -1.2,-0.4 -1.9,-0.4 0,0 -0.1,0 -0.1,0 -0.2,0 -0.4,0.1 -0.5,0.1 l -3.7,0.5 9.7,-12.3 9.5,12.2 -12.7,0 z m 12,-16.5 19.1,0 -9.5,12.2 -9.6,-12.2 z m 18.4,16.5 9.5,-12.2 9.5,12.2 -19,0 z M 495,391 l 19,0 -9.5,12.1 L 495,391 Z m 18.2,16.5 2.1,-2.5 2.6,-3.1 0,5.7 -4.7,0 z m 1.9,23.9 13.4,0 0,10.6 -13.4,0 0,-10.6 z m -18,21 51,0 0,36.4 -51,0 0,-36.4 z m 0,46 51,0 0,32.8 -51,0 0,-32.8 z"
       id="path5"
       inkscape:connector-curvature="0" /><path
       style="fill:#423e52"
       d="m 201.5,298.3 0.1,1.5 -0.1,-1.5 c 10.9,0 19.7,-8.8 19.7,-19.5 0,-5.2 -2,-10.2 -5.7,-13.9 -3.7,-3.7 -8.6,-5.8 -13.9,-5.8 -10.8,0 -19.7,8.8 -19.7,19.5 0,10.8 8.7,19.7 19.6,19.7 z m 0.1,-29.6 0,0 c 2.7,0 5.2,1.1 7,3 1.9,1.9 2.9,4.4 2.9,7.1 0,5.5 -4.5,9.9 -10,9.9 -5.6,0 -10,-4.5 -10,-10 0.1,-5.5 4.6,-10 10.1,-10 z"
       id="path7"
       inkscape:connector-curvature="0" /></g></svg>