<?xml version="1.0" encoding="UTF-8" ?>
<!DOCTYPE svg PUBLIC "-//W3C//DTD SVG 1.1//EN" "http://www.w3.org/Graphics/SVG/1.1/DTD/svg11.dtd">
<svg width="230pt" height="424pt" viewBox="0 0 230 424" version="1.1" xmlns="http://www.w3.org/2000/svg">
<g id="#e96428ff">
<path fill="#e96428" opacity="1.00" d=" M 21.89 49.00 C 40.18 23.64 68.77 5.66 99.83 1.28 C 120.94 -1.80 142.83 1.78 162.08 10.87 C 190.16 24.02 212.93 48.49 223.23 77.82 C 230.33 97.76 231.20 119.77 226.11 140.29 C 218.13 173.03 195.64 202.15 165.43 217.31 C 161.37 219.49 156.91 220.82 152.94 223.16 C 153.09 281.79 152.93 340.42 153.03 399.05 C 153.25 403.67 151.11 407.97 148.82 411.84 C 143.69 419.99 133.67 423.69 124.41 424.00 L 107.88 424.00 C 93.43 425.18 79.46 414.19 76.71 400.12 C 75.97 394.12 76.55 388.04 76.37 382.00 C 65.21 381.96 54.06 382.05 42.90 381.98 C 37.98 381.97 33.44 379.48 29.88 376.24 C 25.23 371.80 21.26 365.62 22.01 358.92 C 22.45 337.66 22.00 316.39 22.24 295.13 C 22.84 287.35 28.53 280.72 35.21 277.14 C 40.62 274.09 47.02 275.29 52.94 275.08 C 60.81 275.27 68.72 274.64 76.57 275.44 C 75.95 257.72 76.84 239.98 76.12 222.27 C 33.70 207.09 3.24 164.75 0.80 119.97 C -0.82 94.78 7.06 69.34 21.89 49.00 M 80.55 30.52 C 64.35 36.78 50.15 48.06 40.43 62.45 C 21.70 90.21 18.82 128.46 34.83 158.12 C 45.45 178.10 64.30 193.19 85.70 200.24 C 94.54 202.63 101.02 211.84 100.41 220.95 C 100.33 239.97 100.38 258.98 100.39 277.99 C 101.53 289.09 91.04 299.90 79.93 299.10 C 68.68 299.06 57.44 299.07 46.19 299.09 C 46.18 318.72 46.19 338.36 46.18 358.00 C 58.84 358.11 71.51 357.78 84.15 358.16 C 93.12 359.99 100.95 368.66 100.42 378.07 C 100.49 385.24 100.20 392.42 100.48 399.59 C 109.31 399.86 118.16 399.68 127.00 399.71 C 128.72 399.84 129.08 397.61 130.03 396.61 C 129.95 337.74 130.05 278.86 129.98 219.99 C 129.14 211.15 135.89 202.53 144.29 200.23 C 165.22 193.32 183.72 178.75 194.45 159.39 C 213.19 126.06 207.66 81.22 182.08 52.97 C 169.80 39.33 153.02 29.95 135.07 26.25 C 116.99 22.53 97.78 23.80 80.55 30.52 Z" />
<path fill="#e96428" opacity="1.00" d=" M 110.36 61.41 C 123.86 60.21 137.93 63.88 148.45 72.61 C 169.25 88.09 175.43 119.87 161.84 141.98 C 154.22 155.95 139.71 165.24 124.30 168.26 C 112.02 170.67 99.15 167.84 88.39 161.66 C 74.11 153.87 64.32 138.90 61.81 122.96 C 60.21 110.19 63.05 96.80 69.80 85.83 C 78.75 72.21 93.90 62.38 110.36 61.41 M 108.48 85.65 C 102.60 87.28 96.83 90.14 92.88 94.91 C 87.71 101.03 84.06 109.02 85.23 117.18 C 85.83 124.75 89.22 132.02 94.93 137.07 C 101.77 143.95 112.26 146.16 121.56 144.27 C 129.41 143.09 135.96 137.70 140.44 131.39 C 144.85 124.65 146.25 116.07 144.73 108.20 C 142.18 99.37 136.12 91.10 127.42 87.58 C 121.55 84.85 114.77 83.93 108.48 85.65 Z" />
</g>
</svg>
