<?xml version="1.0" encoding="UTF-8" ?>
<!DOCTYPE svg PUBLIC "-//W3C//DTD SVG 1.1//EN" "http://www.w3.org/Graphics/SVG/1.1/DTD/svg11.dtd">
<svg width="117pt" height="320pt" viewBox="0 0 117 320" version="1.1" xmlns="http://www.w3.org/2000/svg">
<g id="#49242bff">
<path fill="#49242b" opacity="1.00" d=" M 11.22 0.57 C 12.46 1.09 13.69 1.61 14.92 2.13 C 14.40 3.36 13.87 4.58 13.34 5.80 C 12.15 5.25 10.95 4.70 9.76 4.15 C 10.25 2.96 10.73 1.76 11.22 0.57 Z" />
</g>
<g id="#6a3137ff">
<path fill="#6a3137" opacity="1.00" d=" M 22.18 5.49 C 23.62 6.22 25.06 6.94 26.50 7.67 C 25.81 8.81 25.12 9.95 24.43 11.09 C 23.09 10.44 21.76 9.79 20.43 9.14 C 21.01 7.92 21.59 6.70 22.18 5.49 Z" />
</g>
<g id="#833b40ff">
<path fill="#833b40" opacity="1.00" d=" M 24.43 11.09 C 25.12 9.95 25.81 8.81 26.50 7.67 C 29.76 9.48 33.00 11.30 36.19 13.22 C 35.49 14.36 34.78 15.51 34.07 16.65 C 30.88 14.76 27.68 12.87 24.43 11.09 Z" />
</g>
<g id="#2b1f4aff">
<path fill="#2b1f4a" opacity="1.00" d=" M 5.64 15.06 C 8.54 15.45 11.16 16.80 13.75 18.10 C 13.17 19.29 12.60 20.49 12.03 21.68 C 9.86 20.70 7.70 19.68 5.58 18.59 C 5.60 17.42 5.62 16.24 5.64 15.06 Z" />
</g>
<g id="#b34e50ff">
<path fill="#b34e50" opacity="1.00" d=" M 40.58 20.90 C 41.37 19.81 42.16 18.71 42.95 17.62 C 44.01 18.37 45.07 19.12 46.12 19.87 C 45.38 20.95 44.65 22.02 43.91 23.10 C 42.80 22.37 41.69 21.64 40.58 20.90 Z" />
</g>
<g id="#3e2c6dff">
<path fill="#3e2c6d" opacity="1.00" d=" M 19.00 25.48 C 19.64 24.19 20.29 22.91 20.93 21.62 C 21.91 22.19 22.87 22.78 23.81 23.41 C 24.23 24.68 22.98 25.83 22.69 27.02 C 21.46 26.52 20.23 26.00 19.00 25.48 Z" />
</g>
<g id="#e05f60ff">
<path fill="#e05f60" opacity="1.00" d=" M 52.44 24.78 C 56.73 27.97 60.70 31.56 64.61 35.19 C 63.70 36.17 62.78 37.14 61.86 38.12 C 58.04 34.59 54.17 31.11 50.11 27.85 C 50.89 26.83 51.66 25.81 52.44 24.78 Z" />
</g>
<g id="#533a94ff">
<path fill="#533a94" opacity="1.00" d=" M 31.16 27.81 C 32.61 28.79 34.06 29.76 35.51 30.74 C 34.79 31.85 34.08 32.96 33.36 34.06 C 31.93 33.15 30.51 32.23 29.08 31.32 C 29.77 30.15 30.47 28.98 31.16 27.81 Z" />
</g>
<g id="#6143adff">
<path fill="#6143ad" opacity="1.00" d=" M 33.36 34.06 C 34.08 32.96 34.79 31.85 35.51 30.74 C 38.42 32.82 41.30 34.95 44.13 37.14 C 43.33 38.21 42.53 39.26 41.73 40.33 C 38.94 38.23 36.18 36.11 33.36 34.06 Z" />
</g>
<g id="#f66868ff">
<path fill="#f66868" opacity="1.00" d=" M 67.33 43.48 C 68.35 42.64 69.36 41.80 70.38 40.97 C 71.23 41.87 72.07 42.77 72.92 43.67 C 71.95 44.64 70.98 45.61 70.01 46.58 C 69.11 45.55 68.22 44.52 67.33 43.48 Z" />
<path fill="#f66868" opacity="1.00" d=" M 75.09 52.46 C 76.20 51.82 77.14 50.05 78.45 50.30 C 81.87 54.20 84.86 58.46 87.78 62.74 C 86.68 63.46 85.58 64.18 84.49 64.90 C 81.50 60.65 78.45 56.43 75.09 52.46 Z" />
<path fill="#f66868" opacity="1.00" d=" M 88.80 71.33 C 89.92 70.70 91.05 70.07 92.18 69.44 C 92.84 70.58 93.50 71.72 94.15 72.86 C 92.97 73.52 91.78 74.18 90.59 74.84 C 89.99 73.67 89.39 72.50 88.80 71.33 Z" />
<path fill="#f66868" opacity="1.00" d=" M 94.47 81.69 C 95.65 81.08 96.83 80.46 98.01 79.85 C 100.40 84.61 102.71 89.42 104.70 94.37 C 103.47 94.87 102.23 95.37 101.00 95.87 C 99.02 91.06 96.84 86.32 94.47 81.69 Z" />
<path fill="#f66868" opacity="1.00" d=" M 103.71 103.15 C 105.00 102.74 106.29 102.33 107.59 101.94 C 107.98 103.17 108.38 104.42 108.78 105.66 C 107.53 106.07 106.28 106.47 105.03 106.89 C 104.59 105.64 104.15 104.39 103.71 103.15 Z" />
<path fill="#f66868" opacity="1.00" d=" M 107.30 114.17 C 108.26 113.98 110.18 113.62 111.14 113.44 C 112.43 118.57 113.62 123.73 114.53 128.95 C 113.54 129.11 111.57 129.44 110.59 129.60 C 109.72 124.40 108.40 119.31 107.30 114.17 Z" />
<path fill="#f66868" opacity="1.00" d=" M 112.15 141.22 C 112.02 139.90 111.89 138.58 111.76 137.26 C 113.09 137.16 114.42 137.07 115.75 136.97 C 115.87 138.26 115.99 139.55 116.12 140.83 C 114.79 140.96 113.47 141.09 112.15 141.22 Z" />
<path fill="#f66868" opacity="1.00" d=" M 112.77 149.03 C 113.77 148.97 115.76 148.86 116.75 148.80 C 116.84 150.30 116.94 151.80 117.00 153.31 L 117.00 165.18 C 115.63 164.89 114.26 164.65 112.87 164.47 C 113.04 159.32 113.01 154.17 112.77 149.03 Z" />
<path fill="#f66868" opacity="1.00" d=" M 112.32 172.37 C 113.88 172.56 115.50 172.53 117.00 173.08 L 117.00 174.56 C 116.78 174.54 116.35 174.51 116.13 174.49 L 115.98 176.72 C 114.68 176.62 113.39 176.53 112.10 176.44 C 112.17 175.08 112.24 173.72 112.32 172.37 Z" />
<path fill="#f66868" opacity="1.00" d=" M 110.96 184.10 C 112.26 184.28 113.57 184.45 114.87 184.63 C 114.18 189.93 112.88 195.12 111.75 200.33 C 110.42 199.98 109.10 199.64 107.78 199.29 C 109.10 194.28 110.09 189.20 110.96 184.10 Z" />
<path fill="#f66868" opacity="1.00" d=" M 105.59 206.98 C 106.90 207.32 108.20 207.68 109.51 208.03 C 109.12 209.29 108.74 210.56 108.35 211.82 C 107.07 211.43 105.79 211.03 104.51 210.63 C 104.87 209.41 105.23 208.19 105.59 206.98 Z" />
<path fill="#f66868" opacity="1.00" d=" M 101.86 217.98 C 103.08 218.41 104.30 218.83 105.52 219.25 C 103.77 224.33 101.46 229.19 99.11 234.01 C 97.91 233.41 96.72 232.82 95.53 232.23 C 97.87 227.58 99.85 222.78 101.86 217.98 Z" />
<path fill="#f66868" opacity="1.00" d=" M 89.89 242.56 C 90.54 241.44 91.16 240.30 91.90 239.24 C 93.05 239.77 94.16 240.40 95.29 241.01 C 94.74 242.22 94.21 243.44 93.68 244.66 C 92.39 244.00 91.15 243.26 89.89 242.56 Z" />
<path fill="#f66868" opacity="1.00" d=" M 76.59 261.84 C 79.79 257.71 82.84 253.45 85.79 249.13 C 86.89 249.86 88.00 250.60 89.11 251.33 C 86.22 255.79 83.00 260.01 79.76 264.22 C 78.70 263.43 77.64 262.63 76.59 261.84 Z" />
<path fill="#f66868" opacity="1.00" d=" M 71.57 267.77 C 72.58 268.66 73.58 269.55 74.58 270.45 C 73.67 271.41 72.76 272.38 71.86 273.35 C 70.88 272.40 69.90 271.45 68.93 270.50 C 69.81 269.59 70.69 268.68 71.57 267.77 Z" />
</g>
<g id="#7651d3ff">
<path fill="#7651d3" opacity="1.00" d=" M 50.26 42.40 C 51.24 43.30 52.22 44.19 53.21 45.09 C 52.26 46.07 51.31 47.05 50.35 48.02 C 49.44 47.11 48.53 46.20 47.61 45.29 C 48.50 44.32 49.38 43.36 50.26 42.40 Z" />
<path fill="#7651d3" opacity="1.00" d=" M 51.15 267.33 C 52.09 266.41 53.03 265.48 53.98 264.57 C 54.93 265.55 55.87 266.55 56.81 267.55 C 55.85 268.43 54.88 269.31 53.92 270.20 C 52.99 269.24 52.07 268.29 51.15 267.33 Z" />
</g>
<g id="#8a5ef7ff">
<path fill="#8a5ef7" opacity="1.00" d=" M 56.00 53.37 C 56.98 52.52 57.97 51.66 58.96 50.81 C 62.61 54.59 65.96 58.64 69.34 62.66 C 68.30 63.54 67.24 64.42 66.19 65.30 C 62.99 61.16 59.52 57.24 56.00 53.37 Z" />
</g>
<g id="#8e61ffff">
<path fill="#8e61ff" opacity="1.00" d=" M 70.82 71.49 C 71.90 70.74 72.99 70.00 74.07 69.26 C 74.84 70.37 75.61 71.49 76.37 72.60 C 75.29 73.28 74.24 74.01 73.11 74.62 C 72.21 73.68 71.53 72.57 70.82 71.49 Z" />
<path fill="#8e61ff" opacity="1.00" d=" M 77.15 81.44 C 78.26 80.72 79.36 80.00 80.47 79.29 C 83.33 83.85 85.76 88.67 87.99 93.57 C 86.76 94.08 85.53 94.60 84.30 95.11 C 82.16 90.43 79.79 85.86 77.15 81.44 Z" />
<path fill="#8e61ff" opacity="1.00" d=" M 87.45 102.33 C 88.66 101.84 89.88 101.35 91.09 100.86 C 91.59 102.12 92.09 103.37 92.59 104.63 C 91.29 105.06 90.00 105.49 88.69 105.91 C 88.28 104.71 87.86 103.52 87.45 102.33 Z" />
<path fill="#8e61ff" opacity="1.00" d=" M 91.37 113.20 C 92.32 112.96 94.21 112.47 95.15 112.23 C 96.67 117.33 98.00 122.48 99.03 127.70 C 97.73 127.95 96.42 128.20 95.12 128.45 C 94.10 123.31 92.69 118.27 91.37 113.20 Z" />
<path fill="#8e61ff" opacity="1.00" d=" M 96.41 136.18 C 97.74 135.97 99.07 135.77 100.40 135.57 C 100.56 136.89 100.73 138.22 100.90 139.55 C 99.58 139.70 98.26 139.85 96.95 140.00 C 96.77 138.72 96.59 137.45 96.41 136.18 Z" />
<path fill="#8e61ff" opacity="1.00" d=" M 97.69 147.75 C 99.01 147.67 100.33 147.59 101.65 147.52 C 101.98 152.83 102.07 158.15 101.92 163.47 C 100.59 163.44 99.25 163.40 97.92 163.37 C 98.06 158.16 97.96 152.95 97.69 147.75 Z" />
<path fill="#8e61ff" opacity="1.00" d=" M 97.42 171.15 C 98.77 171.26 100.12 171.37 101.48 171.49 C 101.28 172.83 101.09 174.18 100.88 175.53 C 99.61 175.34 98.33 175.16 97.06 174.97 C 97.18 173.70 97.30 172.42 97.42 171.15 Z" />
<path fill="#8e61ff" opacity="1.00" d=" M 95.99 182.79 C 96.94 182.90 98.85 183.11 99.81 183.22 C 99.26 188.58 97.80 193.77 96.54 198.99 C 95.25 198.65 93.96 198.30 92.67 197.97 C 94.00 192.96 95.12 187.90 95.99 182.79 Z" />
<path fill="#8e61ff" opacity="1.00" d=" M 90.45 205.39 C 91.71 205.84 92.97 206.30 94.24 206.76 C 93.78 207.99 93.32 209.23 92.86 210.47 C 91.61 209.98 90.36 209.50 89.11 209.02 C 89.56 207.80 90.00 206.59 90.45 205.39 Z" />
<path fill="#8e61ff" opacity="1.00" d=" M 79.57 230.38 C 82.08 225.80 84.23 221.04 86.45 216.31 C 87.63 216.86 88.81 217.40 90.00 217.94 C 87.90 222.83 85.60 227.63 83.05 232.31 C 81.89 231.66 80.73 231.02 79.57 230.38 Z" />
<path fill="#8e61ff" opacity="1.00" d=" M 75.58 237.17 C 76.76 237.85 77.93 238.55 79.11 239.25 C 78.37 240.35 77.65 241.49 76.74 242.48 C 75.62 241.84 74.59 241.06 73.53 240.34 C 74.22 239.28 74.90 238.23 75.58 237.17 Z" />
</g>
<g id="#8d60fcff">
<path fill="#8d60fc" opacity="1.00" d=" M 69.09 246.85 C 70.18 247.62 71.27 248.40 72.36 249.18 C 69.20 253.48 65.83 257.62 62.30 261.62 C 61.31 260.72 60.33 259.83 59.34 258.93 C 62.75 255.03 66.01 251.01 69.09 246.85 Z" />
</g>
<g id="#6949bcff">
<path fill="#6949bc" opacity="1.00" d=" M 37.36 279.01 C 40.08 276.95 42.71 274.78 45.29 272.55 C 46.21 273.56 47.12 274.58 48.04 275.60 C 45.23 277.92 42.40 280.22 39.44 282.35 C 38.75 281.23 38.06 280.12 37.36 279.01 Z" />
</g>
<g id="#e86263ff">
<path fill="#e86263" opacity="1.00" d=" M 51.96 286.52 C 56.05 283.34 59.81 279.77 63.60 276.25 C 64.49 277.19 65.38 278.14 66.27 279.09 C 62.51 282.87 58.50 286.39 54.40 289.79 C 53.58 288.70 52.76 287.62 51.96 286.52 Z" />
</g>
<g id="#5b3fa2ff">
<path fill="#5b3fa2" opacity="1.00" d=" M 33.08 282.14 C 34.51 281.09 35.93 280.04 37.36 279.01 C 38.06 280.12 38.75 281.23 39.44 282.35 L 39.53 282.48 C 38.12 283.43 36.73 284.38 35.33 285.34 C 34.58 284.27 33.83 283.20 33.08 282.14 Z" />
</g>
<g id="#45317aff">
<path fill="#45317a" opacity="1.00" d=" M 23.25 288.28 C 24.37 287.65 25.48 287.02 26.60 286.40 C 27.29 287.52 27.98 288.65 28.67 289.77 C 27.52 290.46 26.36 291.15 25.20 291.85 C 24.55 290.65 23.90 289.46 23.25 288.28 Z" />
</g>
<g id="#ba5053ff">
<path fill="#ba5053" opacity="1.00" d=" M 42.55 293.87 C 43.60 293.06 44.66 292.26 45.72 291.46 C 46.50 292.54 47.29 293.63 48.08 294.72 C 47.02 295.48 45.96 296.25 44.90 297.01 C 44.12 295.96 43.33 294.91 42.55 293.87 Z" />
</g>
<g id="#2c204dff">
<path fill="#2c204d" opacity="1.00" d=" M 2.40 298.59 C 7.14 296.59 11.83 294.50 16.40 292.14 C 17.01 293.34 17.62 294.54 18.23 295.75 C 13.38 298.02 8.65 300.69 3.45 302.09 C 3.19 301.21 2.67 299.46 2.40 298.59 Z" />
</g>
<g id="#873c41ff">
<path fill="#873c41" opacity="1.00" d=" M 27.00 303.47 C 30.09 301.76 33.08 299.91 36.09 298.09 C 36.79 299.24 37.49 300.41 38.18 301.58 C 34.76 303.63 31.34 305.67 27.84 307.58 C 27.56 306.21 27.28 304.84 27.00 303.47 Z" />
</g>
<g id="#72343aff">
<path fill="#72343a" opacity="1.00" d=" M 22.52 305.87 C 24.01 305.06 25.51 304.26 27.00 303.47 C 27.28 304.84 27.56 306.21 27.84 307.58 C 26.66 308.20 25.48 308.81 24.30 309.43 C 23.71 308.24 23.12 307.06 22.52 305.87 Z" />
</g>
<g id="#4e262dff">
<path fill="#4e262d" opacity="1.00" d=" M 11.85 310.93 C 13.06 310.37 14.27 309.81 15.48 309.26 C 16.02 310.46 16.56 311.67 17.10 312.89 C 15.93 313.44 14.76 313.99 13.60 314.55 C 13.01 313.34 12.43 312.14 11.85 310.93 Z" />
</g>
<g id="#351b24fe">
<path fill="#351b24" opacity="1.00" d=" M 1.80 314.83 C 2.79 314.49 3.79 314.16 4.78 313.84 C 5.18 315.09 5.57 316.35 5.96 317.61 C 4.45 318.07 2.93 318.53 1.42 318.99 C 1.55 317.59 1.67 316.21 1.80 314.83 Z" />
</g>
</svg>
