<?xml version="1.0" encoding="UTF-8" standalone="no"?>
<!-- Generator: Adobe Illustrator 18.1.1, SVG Export Plug-In . SVG Version: 6.00 Build 0)  -->

<svg
   xmlns:dc="http://purl.org/dc/elements/1.1/"
   xmlns:cc="http://creativecommons.org/ns#"
   xmlns:rdf="http://www.w3.org/1999/02/22-rdf-syntax-ns#"
   xmlns:svg="http://www.w3.org/2000/svg"
   xmlns="http://www.w3.org/2000/svg"
   xmlns:sodipodi="http://sodipodi.sourceforge.net/DTD/sodipodi-0.dtd"
   xmlns:inkscape="http://www.inkscape.org/namespaces/inkscape"
   version="1.1"
   id="Layer_1"
   x="0px"
   y="0px"
   viewBox="0 0 285.79999 285.79999"
   xml:space="preserve"
   inkscape:version="0.91 r13725"
   sodipodi:docname="moon.svg"
   width="285.79999"
   height="285.79999"><metadata
     id="metadata35"><rdf:RDF><cc:Work
         rdf:about=""><dc:format>image/svg+xml</dc:format><dc:type
           rdf:resource="http://purl.org/dc/dcmitype/StillImage" /><dc:title></dc:title></cc:Work></rdf:RDF></metadata><defs
     id="defs33" /><sodipodi:namedview
     pagecolor="#ffffff"
     bordercolor="#666666"
     borderopacity="1"
     objecttolerance="10"
     gridtolerance="10"
     guidetolerance="10"
     inkscape:pageopacity="0"
     inkscape:pageshadow="2"
     inkscape:window-width="640"
     inkscape:window-height="480"
     id="namedview31"
     showgrid="false"
     fit-margin-top="0"
     fit-margin-left="0"
     fit-margin-right="0"
     fit-margin-bottom="0"
     inkscape:zoom="0.23046875"
     inkscape:cx="-155.4"
     inkscape:cy="509.6"
     inkscape:window-x="0"
     inkscape:window-y="0"
     inkscape:window-maximized="0"
     inkscape:current-layer="Layer_1" /><g
     id="g3"
     transform="translate(-667.4,-735.8)"><path
       style="fill:#423e52"
       d="m 810.3,735.8 c -78.8,0 -142.9,64.1 -142.9,142.9 0,78.8 64.1,142.9 142.9,142.9 78.8,0 142.9,-64.1 142.9,-142.9 0,-78.8 -64.1,-142.9 -142.9,-142.9 z m 0,278.8 c -62.5,0 -115.3,-42.4 -131.1,-99.9 2,1.2 4,2 6.2,2.3 0.9,0.1 1.7,0.2 2.6,0.2 7.3,0 14.6,-4.9 20.9,-13.1 2.6,23.1 13.5,39.9 22.8,50.4 11.6,13.1 23.2,19.3 23.7,19.6 0.5,0.3 1.1,0.4 1.6,0.4 1.3,0 2.5,-0.7 3.1,-1.9 0.9,-1.7 0.3,-3.8 -1.4,-4.7 -0.4,-0.2 -43.6,-23.8 -43.4,-75 0,-1.9 -1.5,-3.5 -3.5,-3.5 0,0 0,0 0,0 -0.9,0 -1.7,0.4 -2.3,0.9 0,0 0,-0.1 0,-0.1 0,0.1 -0.1,0.2 -0.1,0.3 -0.5,0.5 -0.8,1.1 -0.9,1.7 -6.4,11.6 -14,18 -20.4,18 -0.5,0 -1,0 -1.5,-0.1 -3.9,-0.6 -7.5,-3.8 -10.3,-8.9 -1.2,-7.3 -1.9,-14.8 -1.9,-22.5 0,-30.4 10,-58.5 26.9,-81.2 0.5,-0.1 0.9,-0.1 1.4,-0.1 0.5,0 1,0 1.5,0.1 2,0.3 5.6,2.9 8.9,5.7 3.6,3 9,2.4 11.7,-1.4 7.4,-10.4 21.8,-17.5 38.4,-17.5 24,0 43.6,14.9 43.6,33.3 0,10.6 -6.5,20 -16.7,26.1 0,0 -0.1,0 -0.3,0 -3.2,1 -4.2,5 -1.8,7.5 5.1,5.3 8.1,11.8 8.1,18.8 0,12.2 -9.2,22.9 -22.9,28.6 -2.5,1 -3.7,3.9 -2.6,6.4 l 0,0 c 0,0 0,0 0,0 0,0 0,0.1 0.1,0.1 0.2,0.5 0.4,1 0.6,1.6 0,0 0.1,0 0.1,-0.1 1.7,3.5 3.2,7.3 4.4,11.3 3.6,12 4.3,24 1.9,33.8 l 0,0.1 c -0.4,1.7 0.7,3.4 2.4,3.6 3.2,0.5 4.4,-1.9 4.4,-2.1 2.6,-11 1.9,-24.3 -2.1,-37.5 -1.3,-4.2 -2.8,-8.1 -4.6,-11.8 15.1,-7 25.2,-19.7 25.2,-34.2 0,-7.8 -2.9,-15 -8,-21.2 11.4,-7.4 18.7,-18.6 18.7,-31.2 0,-14.8 -10,-27.7 -25,-34.7 2.8,-0.9 4.7,-3.1 4.7,-5.8 0,-3.5 -3.3,-6.3 -7.6,-6.3 -4.3,0 -7.6,2.7 -7.6,6.3 0,0.8 0.2,1.5 0.5,2.2 -4.9,-1.3 -10.1,-2 -15.6,-2 -16.4,0 -30.9,6.2 -40.2,15.8 -2.6,2.7 -6.9,3.2 -9.9,0.9 -2,-1.5 -4.2,-2.6 -6.6,-3.2 25,-29.4 62.2,-48.1 103.7,-48.1 74.9,0 135.9,61 135.9,135.9 0,74.9 -60.7,136.2 -135.7,136.2 z"
       id="path5"
       inkscape:connector-curvature="0" /><path
       style="fill:#423e52"
       d="m 795.3,969 c -3.2,-1 -6.4,-1.5 -9.6,-1.5 -8.6,0 -15.1,3.7 -16.9,9.6 -2.5,8.3 5.2,17.8 17.6,21.5 3.2,1 6.4,1.5 9.6,1.5 8.6,0 15.1,-3.7 16.9,-9.6 2.4,-8.4 -5.3,-17.8 -17.6,-21.5 z m 10.8,19.4 c -0.8,2.8 -5,4.7 -10.2,4.7 -2.5,0 -5,-0.4 -7.6,-1.2 -9,-2.7 -14.1,-8.9 -12.9,-12.8 0.8,-2.8 5,-4.7 10.2,-4.7 2.5,0 5,0.4 7.6,1.2 9.1,2.8 14.1,9 12.9,12.8 z"
       id="path7"
       inkscape:connector-curvature="0" /><path
       style="fill:#423e52"
       d="m 804.2,960.3 c 0.9,0 1.8,-0.3 2.5,-1 0.9,-0.9 21.9,-22.1 31,-65.6 0.4,-1.9 -0.8,-3.7 -2.7,-4.1 -1.9,-0.4 -3.7,0.8 -4.1,2.7 -8.6,41.3 -28.8,61.9 -29.1,62.1 -1.4,1.4 -1.4,3.6 0,4.9 0.6,0.7 1.5,1 2.4,1 z"
       id="path9"
       inkscape:connector-curvature="0" /><path
       style="fill:#423e52"
       d="m 873,936.5 c -30.3,33.4 -51.4,28.1 -51.8,28 -1.8,-0.5 -3.8,0.5 -4.3,2.3 -0.6,1.8 0.5,3.8 2.3,4.4 0.3,0.1 2.4,0.7 6.1,0.7 9.3,0 28.7,-4 52.9,-30.7 1.3,-1.4 1.2,-3.6 -0.2,-4.9 -1.5,-1.4 -3.7,-1.3 -5,0.2 z"
       id="path11"
       inkscape:connector-curvature="0" /><path
       style="fill:#423e52"
       d="m 934,835.3 c -2.8,-8 -9.9,-13.3 -17.7,-13.3 -1.9,0 -3.7,0.3 -5.4,0.9 -9.2,3.2 -13.7,14.1 -10.1,24.2 2.8,8 9.9,13.3 17.7,13.3 1.8,0 3.7,-0.3 5.4,-0.9 9.1,-3.2 13.7,-14.1 10.1,-24.2 z m -12.5,17.6 c -1,0.3 -2,0.5 -3.1,0.5 -4.7,0 -9.3,-3.6 -11.1,-8.7 -2.3,-6.4 0.4,-13.3 5.9,-15.2 1,-0.3 2,-0.5 3.1,-0.5 4.7,0 9.3,3.6 11.1,8.7 2.3,6.4 -0.4,13.2 -5.9,15.2 z"
       id="path13"
       inkscape:connector-curvature="0" /><path
       style="fill:#423e52"
       d="m 880,841.3 c -1.4,-1.1 -2.1,-2.9 -1.9,-4.7 1.8,-12.8 -7.5,-26.5 -22.6,-32.3 -4.6,-1.7 -9.3,-2.6 -14,-2.6 -12.5,0 -23,6.4 -26.7,16.2 -4.9,12.9 2.9,28.1 17.6,35.5 1.5,0.7 2.2,2.4 1.8,3.9 -1,3.2 -1.5,6.6 -1.5,10.2 0,18 13.3,32.7 29.7,32.7 16.4,0 29.7,-14.7 29.7,-32.7 0,-10.7 -4.8,-20.2 -12.1,-26.2 z m -17.6,52 c -12.5,0 -22.7,-11.5 -22.7,-25.7 0,-3.8 0.7,-7.4 2.1,-10.7 1.3,-3.2 -0.2,-6.9 -3.4,-8.4 0,0 0,0 0,0 0,0 0,0 0,0 0,0 0,0 0,0 -13.3,-5.2 -20.8,-17.7 -16.9,-28 2.7,-7.1 10.6,-11.7 20.2,-11.7 3.8,0 7.7,0.7 11.5,2.2 12.3,4.7 19.9,15.6 18.1,25.4 0,0 0,0.1 -0.1,0.2 -1,3.5 0.5,7.2 3.4,9.3 6.4,4.6 10.6,12.6 10.6,21.7 -0.1,14.2 -10.3,25.7 -22.8,25.7 z"
       id="path15"
       inkscape:connector-curvature="0" /><path
       style="fill:#423e52"
       d="m 910,875.2 c -10.1,0 -18.1,10.7 -18.1,24.3 0,13.6 7.9,24.3 18.1,24.3 10.2,0 18.1,-10.7 18.1,-24.3 0,-13.6 -8,-24.3 -18.1,-24.3 z m 0,41.6 c -6,0 -11.1,-7.9 -11.1,-17.3 0,-9.4 5.1,-17.3 11.1,-17.3 6,0 11.1,7.9 11.1,17.3 0,9.4 -5.1,17.3 -11.1,17.3 z"
       id="path17"
       inkscape:connector-curvature="0" /><ellipse
       style="fill:#423e52"
       cx="749.70001"
       cy="871.20001"
       rx="5.8000002"
       ry="5.4000001"
       id="ellipse19" /><path
       style="fill:#423e52"
       d="m 712.6,834.9 c 1,-4.8 -0.7,-8.8 -4.1,-9.5 -0.3,-0.1 -0.7,-0.1 -1,-0.1 -3.1,0 -5.7,2.9 -6.6,7.1 -1,4.8 0.7,8.8 4.1,9.5 0.3,0.1 0.7,0.1 1,0.1 3.1,0 5.7,-2.9 6.6,-7.1 z"
       id="path21"
       inkscape:connector-curvature="0" /><path
       style="fill:#423e52"
       d="m 751.1,855.3 c 0.1,0 0.2,0 0.3,0 1.9,-0.2 3.4,-1.8 3.2,-3.8 0,-0.1 -1.1,-14.9 5.7,-36 0.6,-1.8 -0.4,-3.8 -2.3,-4.4 -1.8,-0.6 -3.8,0.4 -4.4,2.3 -7.1,22.4 -6,38 -6,38.7 0.1,1.8 1.7,3.2 3.5,3.2 z"
       id="path23"
       inkscape:connector-curvature="0" /><path
       style="fill:#423e52"
       d="m 733.9,867.7 c 0,0 -0.1,0 0,0 -3.9,0.1 -15.4,-0.7 -21.9,-4.3 -1.7,-1 -3.8,-0.4 -4.8,1.3 -0.9,1.7 -0.4,3.8 1.3,4.8 8.9,5 23.2,5.2 25.2,5.2 0.1,0 0.2,0 0.2,0 1.9,0 3.5,-1.6 3.5,-3.5 -0.1,-2 -1.6,-3.5 -3.5,-3.5 z"
       id="path25"
       inkscape:connector-curvature="0" /><path
       style="fill:#423e52"
       d="m 787.5,874.5 c 1.9,-0.5 2.9,-2.5 2.4,-4.3 -0.5,-1.9 -2.5,-2.9 -4.3,-2.4 -8.4,2.4 -18.6,0 -18.7,0 -1.9,-0.5 -3.8,0.7 -4.2,2.6 -0.5,1.9 0.7,3.8 2.6,4.2 0.3,0.1 5.4,1.3 11.8,1.3 3.2,-0.1 6.9,-0.4 10.4,-1.4 z"
       id="path27"
       inkscape:connector-curvature="0" /><path
       style="fill:#423e52"
       d="m 752,893.1 c 0.1,-1.9 -1.4,-3.6 -3.4,-3.6 -2,-0.1 -3.6,1.4 -3.6,3.4 0,1.2 -0.9,29.2 13.7,48.1 0.7,0.9 1.7,1.4 2.8,1.4 0.7,0 1.5,-0.2 2.1,-0.7 1.5,-1.2 1.8,-3.4 0.6,-4.9 -13,-17.1 -12.2,-43.5 -12.2,-43.7 z"
       id="path29"
       inkscape:connector-curvature="0" /></g></svg>