<?xml version="1.0" encoding="UTF-8" standalone="no"?>
<!-- Generator: Adobe Illustrator 18.1.1, SVG Export Plug-In . SVG Version: 6.00 Build 0)  -->

<svg
   xmlns:dc="http://purl.org/dc/elements/1.1/"
   xmlns:cc="http://creativecommons.org/ns#"
   xmlns:rdf="http://www.w3.org/1999/02/22-rdf-syntax-ns#"
   xmlns:svg="http://www.w3.org/2000/svg"
   xmlns="http://www.w3.org/2000/svg"
   xmlns:sodipodi="http://sodipodi.sourceforge.net/DTD/sodipodi-0.dtd"
   xmlns:inkscape="http://www.inkscape.org/namespaces/inkscape"
   version="1.1"
   x="0px"
   y="0px"
   viewBox="0 0 181.4 181.39999"
   enable-background="new 0 0 595.3 841.9"
   xml:space="preserve"
   id="svg2"
   inkscape:version="0.91 r13725"
   sodipodi:docname="moon.svg"
   width="181.39999"
   height="181.39999"><metadata
     id="metadata62"><rdf:RDF><cc:Work
         rdf:about=""><dc:format>image/svg+xml</dc:format><dc:type
           rdf:resource="http://purl.org/dc/dcmitype/StillImage" /><dc:title></dc:title></cc:Work></rdf:RDF></metadata><defs
     id="defs60" /><sodipodi:namedview
     pagecolor="#ffffff"
     bordercolor="#666666"
     borderopacity="1"
     objecttolerance="10"
     gridtolerance="10"
     guidetolerance="10"
     inkscape:pageopacity="0"
     inkscape:pageshadow="2"
     inkscape:window-width="640"
     inkscape:window-height="480"
     id="namedview58"
     showgrid="false"
     fit-margin-top="0"
     fit-margin-left="0"
     fit-margin-right="0"
     fit-margin-bottom="0"
     inkscape:zoom="0.28031832"
     inkscape:cx="-86.449997"
     inkscape:cy="301.54997"
     inkscape:window-x="0"
     inkscape:window-y="0"
     inkscape:window-maximized="0"
     inkscape:current-layer="svg2" /><g
     id="Layer_2"
     transform="translate(-384.09999,-541.09999)"><circle
       cx="474.79999"
       cy="631.79999"
       r="87.699997"
       id="circle5"
       style="fill:#0f0d17;stroke:#0f0d17;stroke-width:6" /></g><g
     id="Layer_1"
     transform="translate(-384.09999,-541.09999)"><g
       id="g8"><g
         id="g10"><path
           d="m 474.8,548.7 c -45.8,0 -83.1,37.3 -83.1,83.1 0,45.8 37.3,83.1 83.1,83.1 45.8,0 83.1,-37.3 83.1,-83.1 -0.1,-45.8 -37.3,-83.1 -83.1,-83.1 z m 0,162.1 c -36.3,0 -67,-24.6 -76.2,-58.1 1.2,0.7 2.3,1.2 3.6,1.3 0.5,0.1 1,0.1 1.5,0.1 4.2,0 8.5,-2.8 12.1,-7.6 1.5,13.4 7.8,23.2 13.3,29.3 6.7,7.6 13.5,11.2 13.8,11.4 0.3,0.2 0.6,0.2 0.9,0.2 0.8,0 1.5,-0.4 1.8,-1.1 0.5,-1 0.2,-2.2 -0.8,-2.7 -0.2,-0.1 -25.3,-13.8 -25.2,-43.6 0,-1.1 -0.9,-2 -2,-2 -0.5,0 -1,0.2 -1.3,0.5 l 0,-0.1 c 0,0.1 -0.1,0.1 -0.1,0.2 -0.3,0.3 -0.5,0.6 -0.5,1 -3.7,6.7 -8.1,10.5 -11.9,10.5 -0.3,0 -0.6,0 -0.9,-0.1 -2.3,-0.3 -4.4,-2.2 -6,-5.2 -0.7,-4.2 -1.1,-8.6 -1.1,-13.1 0,-17.7 5.8,-34 15.6,-47.2 0.3,-0.1 0.5,-0.1 0.8,-0.1 0.3,0 0.6,0 0.9,0.1 1.2,0.2 3.3,1.7 5.2,3.3 2.1,1.7 5.2,1.4 6.8,-0.8 4.3,-6 12.7,-10.2 22.3,-10.2 14,0 25.3,8.7 25.3,19.4 0,6.2 -3.8,11.6 -9.7,15.2 0,0 -0.1,0 -0.2,0 -1.9,0.6 -2.4,2.9 -1,4.4 3,3.1 4.7,6.9 4.7,10.9 0,7.1 -5.3,13.3 -13.3,16.6 -1.5,0.6 -2.2,2.3 -1.5,3.7 0,0 0,0.1 0.1,0.1 0.1,0.3 0.2,0.6 0.3,0.9 0,0 0.1,0 0.1,-0.1 1,2 1.9,4.2 2.6,6.6 2.1,7 2.5,14 1.1,19.6 l 0,0.1 c -0.2,1 0.4,2 1.4,2.1 1.9,0.3 2.6,-1.1 2.6,-1.2 1.5,-6.4 1.1,-14.1 -1.2,-21.8 -0.8,-2.4 -1.6,-4.7 -2.7,-6.9 8.8,-4.1 14.6,-11.5 14.6,-19.9 0,-4.5 -1.7,-8.7 -4.7,-12.3 4.5,-2.9 7.9,-6.9 9.6,-11.4 1.9,3.6 5.1,6.9 9.3,9 0.9,0.4 1.3,1.4 1,2.3 -0.6,1.9 -0.9,3.8 -0.9,5.9 0,10.5 7.7,19 17.3,19 9.5,0 17.3,-8.5 17.3,-19 0,-6.2 -2.8,-11.7 -7,-15.2 -0.8,-0.6 -1.2,-1.7 -1.1,-2.7 1,-7.4 -4.4,-15.4 -13.1,-18.8 -2.7,-1 -5.4,-1.5 -8.1,-1.5 -6.4,0 -12,2.9 -14.6,7.6 -2.2,-5.7 -6.9,-10.5 -13.3,-13.4 1.6,-0.5 2.7,-1.8 2.7,-3.4 0,-2 -1.9,-3.7 -4.4,-3.7 -2.5,0 -4.4,1.6 -4.4,3.7 0,0.5 0.1,0.9 0.3,1.3 -2.8,-0.8 -5.9,-1.2 -9.1,-1.2 -9.5,0 -18,3.6 -23.4,9.2 -1.5,1.6 -4,1.9 -5.8,0.5 -1.2,-0.9 -2.4,-1.5 -3.8,-1.9 14.5,-17.1 36.2,-28 60.3,-28 43.5,0 79,35.5 79,79 0,43.7 -35.3,79.3 -78.9,79.3 z m 34.6,-103.2 c 3.7,2.7 6.2,7.3 6.2,12.6 -0.1,8.3 -6,14.9 -13.3,14.9 -7.3,0 -13.2,-6.7 -13.2,-14.9 0,-2.2 0.4,-4.3 1.2,-6.2 0.8,-1.9 -0.1,-4 -2,-4.9 -7.7,-3 -12.1,-10.3 -9.8,-16.3 1.6,-4.1 6.2,-6.8 11.7,-6.8 2.2,0 4.5,0.4 6.7,1.3 7.2,2.7 11.6,9.1 10.5,14.8 0,0 0,0.1 -0.1,0.1 -0.5,2 0.4,4.1 2.1,5.4 z"
           id="path12"
           inkscape:connector-curvature="0"
           style="fill:#423e52" /></g><g
         id="g14"><path
           d="m 462.3,686.6 c -1.9,-0.6 -3.7,-0.9 -5.6,-0.9 -5,0 -8.8,2.2 -9.8,5.6 -1.5,4.8 3,10.3 10.2,12.5 1.9,0.6 3.7,0.9 5.6,0.9 5,0 8.8,-2.2 9.8,-5.6 1.5,-4.9 -3,-10.3 -10.2,-12.5 z m 6.3,11.3 c -0.5,1.6 -2.9,2.7 -5.9,2.7 -1.5,0 -2.9,-0.2 -4.4,-0.7 -5.2,-1.6 -8.2,-5.2 -7.5,-7.4 0.5,-1.6 2.9,-2.7 5.9,-2.7 1.5,0 2.9,0.2 4.4,0.7 5.3,1.6 8.2,5.2 7.5,7.4 z"
           id="path16"
           inkscape:connector-curvature="0"
           style="fill:#423e52" /></g><g
         id="g18"><path
           d="m 467.5,681.6 c 0.5,0 1,-0.2 1.5,-0.6 0.5,-0.5 12.7,-12.8 18,-38.1 0.2,-1.1 -0.5,-2.2 -1.6,-2.4 -1.1,-0.2 -2.2,0.5 -2.4,1.6 -5,24 -16.7,36 -16.9,36.1 -0.8,0.8 -0.8,2.1 0,2.8 0.4,0.4 0.9,0.6 1.4,0.6 z"
           id="path20"
           inkscape:connector-curvature="0"
           style="fill:#423e52" /></g><g
         id="g22"><path
           d="m 507.5,667.7 c -17.6,19.4 -29.9,16.3 -30.1,16.3 -1,-0.3 -2.2,0.3 -2.5,1.3 -0.3,1 0.3,2.2 1.3,2.6 0.2,0.1 1.4,0.4 3.5,0.4 5.4,0 16.7,-2.3 30.8,-17.8 0.8,-0.8 0.7,-2.1 -0.1,-2.8 -0.9,-0.9 -2.1,-0.9 -2.9,0 z"
           id="path24"
           inkscape:connector-curvature="0"
           style="fill:#423e52" /></g><g
         id="g26"><path
           d="m 531.9,623.5 c 1,0 2.2,-0.2 3.1,-0.5 5.3,-1.9 8,-8.2 5.9,-14.1 -1.6,-4.7 -5.8,-7.7 -10.3,-7.7 -1.1,0 -2.2,0.2 -3.1,0.5 -5.3,1.9 -8,8.2 -5.9,14.1 1.7,4.6 5.8,7.7 10.3,7.7 z m -3,-18 c 0.6,-0.2 1.2,-0.3 1.8,-0.3 2.7,0 5.4,2.1 6.5,5.1 1.3,3.7 -0.2,7.7 -3.4,8.8 -0.6,0.2 -1.2,0.3 -1.8,0.3 -2.7,0 -5.4,-2.1 -6.5,-5.1 -1.4,-3.7 0.2,-7.7 3.4,-8.8 z"
           id="path28"
           inkscape:connector-curvature="0"
           style="fill:#423e52" /></g><g
         id="g30"><path
           d="m 529,632.1 c -5.9,0 -10.5,6.2 -10.5,14.1 0,7.9 4.6,14.1 10.5,14.1 5.9,0 10.5,-6.2 10.5,-14.1 0,-7.9 -4.6,-14.1 -10.5,-14.1 z m 0,24.2 c -3.5,0 -6.5,-4.6 -6.5,-10.1 0,-5.5 3,-10.1 6.5,-10.1 3.5,0 6.5,4.6 6.5,10.1 0,5.5 -3,10.1 -6.5,10.1 z"
           id="path32"
           inkscape:connector-curvature="0"
           style="fill:#423e52" /></g><g
         id="g34"><ellipse
           cx="435.79999"
           cy="629.79999"
           rx="3.4000001"
           ry="3.0999999"
           id="ellipse36"
           style="fill:#423e52" /></g><g
         id="g38"><path
           d="m 414.3,608.7 c 0.6,-2.8 -0.4,-5.1 -2.4,-5.5 -0.2,-0.1 -0.4,-0.1 -0.6,-0.1 -1.8,0 -3.3,1.7 -3.8,4.1 -0.6,2.8 0.4,5.1 2.4,5.5 0.2,0.1 0.4,0.1 0.6,0.1 1.7,0 3.2,-1.7 3.8,-4.1 z"
           id="path40"
           inkscape:connector-curvature="0"
           style="fill:#423e52" /></g><g
         id="g42"><path
           d="m 436.6,620.5 c 0.1,0 0.1,0 0.2,0 1.1,-0.1 2,-1 1.9,-2.2 0,-0.1 -0.6,-8.7 3.3,-20.9 0.3,-1 -0.2,-2.2 -1.3,-2.6 -1,-0.3 -2.2,0.2 -2.6,1.3 -4.1,13 -3.5,22.1 -3.5,22.5 0.1,1.1 1,1.9 2,1.9 z"
           id="path44"
           inkscape:connector-curvature="0"
           style="fill:#423e52" /></g><g
         id="g46"><path
           d="m 426.6,627.7 c -2.3,0.1 -9,-0.4 -12.7,-2.5 -1,-0.6 -2.2,-0.2 -2.8,0.8 -0.5,1 -0.2,2.2 0.8,2.8 5.2,2.9 13.5,3 14.6,3 0.1,0 0.1,0 0.1,0 1.1,0 2,-0.9 2,-2 0,-1.2 -0.9,-2.1 -2,-2.1 z"
           id="path48"
           inkscape:connector-curvature="0"
           style="fill:#423e52" /></g><g
         id="g50"><path
           d="m 457.8,631.7 c 1.1,-0.3 1.7,-1.5 1.4,-2.5 -0.3,-1.1 -1.5,-1.7 -2.5,-1.4 -4.9,1.4 -10.8,0 -10.9,0 -1.1,-0.3 -2.2,0.4 -2.4,1.5 -0.3,1.1 0.4,2.2 1.5,2.4 0.2,0.1 3.1,0.8 6.9,0.8 1.8,-0.1 4,-0.2 6,-0.8 z"
           id="path52"
           inkscape:connector-curvature="0"
           style="fill:#423e52" /></g><g
         id="g54"><path
           d="m 437.2,642.5 c 0.1,-1.1 -0.8,-2.1 -2,-2.1 -1.2,-0.1 -2.1,0.8 -2.1,2 0,0.7 -0.5,17 8,28 0.4,0.5 1,0.8 1.6,0.8 0.4,0 0.9,-0.1 1.2,-0.4 0.9,-0.7 1,-2 0.3,-2.8 -7.5,-10 -7,-25.4 -7,-25.5 z"
           id="path56"
           inkscape:connector-curvature="0"
           style="fill:#423e52" /></g></g></g></svg>