<?xml version="1.0" encoding="UTF-8" standalone="no"?>
<!-- Generator: Adobe Illustrator 18.1.1, SVG Export Plug-In . SVG Version: 6.00 Build 0)  -->

<svg
   xmlns:dc="http://purl.org/dc/elements/1.1/"
   xmlns:cc="http://creativecommons.org/ns#"
   xmlns:rdf="http://www.w3.org/1999/02/22-rdf-syntax-ns#"
   xmlns:svg="http://www.w3.org/2000/svg"
   xmlns="http://www.w3.org/2000/svg"
   xmlns:sodipodi="http://sodipodi.sourceforge.net/DTD/sodipodi-0.dtd"
   xmlns:inkscape="http://www.inkscape.org/namespaces/inkscape"
   version="1.1"
   id="Layer_1"
   x="0px"
   y="0px"
   viewBox="0 0 174.2 174.19999"
   enable-background="new 0 0 595.3 841.9"
   xml:space="preserve"
   inkscape:version="0.91 r13725"
   sodipodi:docname="moon.svg"
   width="174.2"
   height="174.2"><metadata
     id="metadata87"><rdf:RDF><cc:Work
         rdf:about=""><dc:format>image/svg+xml</dc:format><dc:type
           rdf:resource="http://purl.org/dc/dcmitype/StillImage" /><dc:title></dc:title></cc:Work></rdf:RDF></metadata><defs
     id="defs85" /><sodipodi:namedview
     pagecolor="#ffffff"
     bordercolor="#666666"
     borderopacity="1"
     objecttolerance="10"
     gridtolerance="10"
     guidetolerance="10"
     inkscape:pageopacity="0"
     inkscape:pageshadow="2"
     inkscape:window-width="640"
     inkscape:window-height="480"
     id="namedview83"
     showgrid="false"
     fit-margin-top="0"
     fit-margin-left="0"
     fit-margin-right="0"
     fit-margin-bottom="0"
     inkscape:zoom="0.28031832"
     inkscape:cx="-86.350006"
     inkscape:cy="300.24999"
     inkscape:window-x="0"
     inkscape:window-y="0"
     inkscape:window-maximized="0"
     inkscape:current-layer="Layer_1" /><g
     id="g3"
     transform="translate(-384,-547)"><g
       id="g5"><path
         d="m 471,719.2 c -46.9,0 -85.1,-38.2 -85.1,-85.1 0,-46.9 38.2,-85.1 85.1,-85.1 46.9,0 85.1,38.2 85.1,85.1 0,46.9 -38.1,85.1 -85.1,85.1 z m -73.1,-60.9 c 10.4,31.3 39.9,52.8 73.1,52.8 42.4,0 76.9,-34.6 76.9,-77.2 0,-42.5 -34.5,-77 -77,-77 -21.7,0 -42.3,9.1 -56.9,25.2 0.6,0.3 1.1,0.7 1.7,1.1 0.5,0.4 1,0.5 1.3,0.5 0.7,0 1.3,-0.3 1.8,-0.8 6,-6.2 15.1,-9.8 24.8,-9.8 2.4,0 4.7,0.2 6.9,0.6 0.6,-2.6 3.2,-4.4 6.3,-4.4 3.6,0 6.4,2.5 6.4,5.7 0,1.1 -0.4,2.2 -1,3.1 8,4.7 12.8,12.4 12.8,20.5 0,7.1 -3.6,13.8 -10,18.6 2.5,3.6 3.8,7.7 3.8,11.9 0,8.3 -5.3,16.1 -14,20.8 0.7,1.7 1.4,3.4 2,5.3 2.4,8 2.9,16.1 1.3,22.9 l 0,0 c -0.3,1.3 -1.8,2.8 -4,2.8 -0.3,0 -0.5,0 -0.8,-0.1 -0.9,-0.1 -1.9,-0.7 -2.5,-1.5 -0.6,-0.8 -0.8,-1.8 -0.6,-2.8 0,-0.1 0,-0.2 0,-0.3 1.3,-5.3 0.9,-11.9 -1.1,-18.6 -0.6,-2 -1.3,-3.9 -2.2,-5.8 -0.2,-0.2 -0.3,-0.4 -0.4,-0.7 -0.1,-0.2 -0.1,-0.4 -0.2,-0.6 0,-0.1 -0.1,-0.2 -0.1,-0.2 l 0,0 c -0.5,-1.2 -0.5,-2.5 -0.1,-3.7 0.5,-1.2 1.4,-2.1 2.6,-2.6 7.4,-3.1 12.1,-8.8 12.1,-14.8 0,-3.4 -1.4,-6.7 -4.1,-9.5 -1.1,-1.2 -1.6,-2.8 -1.2,-4.4 0.4,-1.5 1.5,-2.8 3.1,-3.2 0,0 0.1,0 0.1,0 5.3,-3.3 8.4,-8.1 8.4,-13.2 0,-9.6 -10.5,-17.4 -23.3,-17.4 -8.7,0 -16.6,3.6 -20.7,9.3 -1.2,1.7 -3.2,2.8 -5.4,2.8 -1.6,0 -3.1,-0.6 -4.3,-1.6 -2.5,-2.1 -3.8,-2.8 -4.2,-2.9 -0.1,0 -0.2,0 -0.3,0 -9.6,13.2 -14.7,28.9 -14.7,45.3 0,4 0.3,8.2 1,12.4 1.3,2.3 2.9,3.6 4.4,3.9 0.2,0 0.4,0 0.6,0 2.3,0 6.2,-2.4 10,-9.2 0.1,-0.5 0.4,-0.9 0.7,-1.3 0.2,-0.4 0.6,-0.8 1,-1 0.6,-0.4 1.4,-0.6 2.1,-0.6 2.2,0 4,1.8 4,4 -0.1,28.5 23.9,41.7 24.2,41.8 1,0.5 1.7,1.4 2,2.4 0.3,1 0.2,2.1 -0.3,3 -0.7,1.3 -2,2.2 -3.6,2.2 -0.5,0 -1.3,-0.1 -2,-0.5 -1.8,-1 -8.1,-4.8 -14.2,-11.8 -4.8,-5.5 -10.8,-14.2 -13.1,-26.1 -3.4,3.3 -7.1,5.1 -10.8,5.1 -0.6,0 -1.1,-0.1 -1.6,-0.1 l -0.2,0 c -0.3,-0.2 -0.4,-0.3 -0.5,-0.3 z"
         id="path7"
         inkscape:connector-curvature="0"
         style="fill:#423e52" /><path
         d="m 471.1,551 c 45.8,0 83.1,37.3 83.1,83.1 0,45.8 -37.3,83.1 -83.1,83.1 -45.8,0 -83.1,-37.3 -83.1,-83.1 0,-45.8 37.2,-83.1 83.1,-83.1 M 417,585.6 c 1.2,0 2.4,-0.5 3.2,-1.4 5.4,-5.6 13.8,-9.2 23.4,-9.2 3.2,0 6.2,0.4 9.1,1.2 -0.2,-0.4 -0.3,-0.8 -0.3,-1.3 0,-2.1 1.9,-3.7 4.4,-3.7 2.5,0 4.4,1.6 4.4,3.7 0,1.6 -1.1,2.8 -2.7,3.4 8.7,4.1 14.5,11.6 14.5,20.2 0,7.3 -4.2,13.8 -10.9,18.1 3,3.6 4.7,7.8 4.7,12.3 0,8.4 -5.9,15.8 -14.6,19.9 1,2.2 1.9,4.4 2.7,6.9 2.3,7.7 2.7,15.4 1.2,21.8 0,0.1 -0.6,1.3 -2.1,1.3 -0.2,0 -0.3,0 -0.5,0 -1,-0.1 -1.6,-1.1 -1.4,-2.1 l 0,-0.1 c 1.4,-5.7 1,-12.7 -1.1,-19.6 -0.7,-2.3 -1.6,-4.5 -2.6,-6.6 0,0.1 -0.1,0.1 -0.1,0.1 -0.1,-0.3 -0.2,-0.6 -0.3,-0.9 -0.1,0 -0.1,-0.1 -0.1,-0.1 -0.6,-1.5 0.1,-3.1 1.5,-3.7 8,-3.3 13.3,-9.5 13.3,-16.6 0,-4.1 -1.7,-7.8 -4.7,-10.9 -1.4,-1.5 -0.8,-3.8 1,-4.4 0.1,0 0.2,0 0.2,0 5.9,-3.5 9.7,-9 9.7,-15.2 0,-10.7 -11.4,-19.4 -25.3,-19.4 -9.7,0 -18,4.1 -22.3,10.2 -0.9,1.3 -2.3,1.9 -3.8,1.9 -1.1,0 -2.2,-0.4 -3,-1.1 -1.9,-1.6 -4,-3.1 -5.2,-3.3 -0.3,-0.1 -0.6,-0.1 -0.9,-0.1 -0.3,0 -0.5,0 -0.8,0.1 -9.8,13.2 -15.6,29.5 -15.6,47.2 0,4.5 0.4,8.8 1.1,13.1 1.6,3 3.7,4.8 6,5.2 0.3,0.1 0.6,0.1 0.9,0.1 3.7,0 8.1,-3.7 11.9,-10.5 0.1,-0.3 0.2,-0.7 0.5,-1 0,-0.1 0.1,-0.1 0.1,-0.2 l 0,0.1 c 0.3,-0.3 0.8,-0.5 1.3,-0.5 1.2,0 2,0.9 2,2 -0.1,29.8 25,43.5 25.2,43.6 1,0.5 1.3,1.7 0.8,2.7 -0.3,0.7 -1,1.1 -1.8,1.1 -0.3,0 -0.6,-0.1 -0.9,-0.2 -0.3,-0.2 -7,-3.8 -13.8,-11.4 -5.4,-6.1 -11.7,-15.9 -13.3,-29.3 -3.7,4.8 -7.9,7.6 -12.1,7.6 -0.5,0 -1,-0.1 -1.5,-0.1 -1.3,-0.2 -2.4,-0.6 -3.6,-1.3 9.2,33.4 39.9,58.1 76.2,58.1 43.6,0 78.9,-35.6 78.9,-79.2 0,-43.6 -35.5,-79 -79,-79 -24.1,0 -45.8,10.9 -60.3,28 1.4,0.3 2.7,1 3.8,1.9 0.8,0.3 1.7,0.6 2.6,0.6 M 471.1,547 c -48,0 -87.1,39.1 -87.1,87.1 0,48 39.1,87.1 87.1,87.1 48,0 87.1,-39.1 87.1,-87.1 -0.1,-48 -39.1,-87.1 -87.1,-87.1 l 0,0 z m -52.6,33.4 c 14,-13.7 32.8,-21.4 52.5,-21.4 41.4,0 75,33.6 75,75 0,41.5 -33.6,75.2 -74.9,75.2 -31.4,0 -59.4,-19.7 -70.2,-48.6 3,-0.2 5.9,-1.3 8.8,-3.4 2.8,10.7 8.3,18.6 12.8,23.8 6.2,7 12.4,10.8 14.7,12.2 l 0,0 c 0.9,0.5 1.9,0.8 2.9,0.8 2.3,0 4.3,-1.3 5.4,-3.3 0.7,-1.4 0.9,-3 0.4,-4.5 -0.5,-1.6 -1.5,-2.8 -2.9,-3.6 -0.5,-0.3 -23.2,-13.1 -23.1,-40 0,-3.3 -2.7,-6.1 -6,-6.1 -1,0 -2.1,0.3 -3,0.8 -0.8,0.4 -1.4,1 -1.8,1.7 -0.4,0.5 -0.6,1 -0.8,1.6 -3.6,6.3 -6.9,8 -8.1,8 0,0 -0.1,0 -0.1,0 0,0 -0.1,0 -0.1,0 0,0 0,0 -0.1,0 -0.7,-0.1 -1.7,-0.8 -2.8,-2.6 -0.6,-4 -0.9,-7.9 -0.9,-11.7 0,-15.4 4.6,-30.2 13.4,-42.8 0.6,0.4 1.4,1 2.5,1.9 1.6,1.3 3.6,2.1 5.6,2.1 2.8,0 5.4,-1.3 7,-3.6 3.7,-5.2 11,-8.5 19.1,-8.5 11.8,0 21.3,6.9 21.3,15.4 0,4.3 -2.6,8.5 -7.2,11.4 -2.1,0.7 -3.7,2.4 -4.3,4.6 -0.6,2.3 0,4.6 1.7,6.3 1.6,1.7 3.6,4.5 3.6,8.2 0,5.2 -4.1,10.1 -10.8,12.9 -1.7,0.7 -3,2 -3.7,3.7 -0.7,1.6 -0.7,3.4 0,5.1 0.1,0.2 0.2,0.4 0.3,0.6 0,0.1 0.1,0.2 0.1,0.3 0.1,0.4 0.3,0.8 0.6,1.1 0.8,1.7 1.5,3.5 2,5.3 1.9,6.3 2.3,12.6 1.1,17.5 0,0.2 -0.1,0.3 -0.1,0.5 -0.2,1.5 0.1,3 1,4.2 0.9,1.3 2.3,2.1 3.9,2.3 0.4,0.1 0.7,0.1 1,0.1 3.1,0 5.4,-2.1 6,-4.3 l 0,0 c 1.7,-7.1 1.2,-15.6 -1.3,-23.9 -0.4,-1.4 -0.9,-2.7 -1.4,-3.9 8.4,-5.1 13.5,-13.1 13.5,-21.7 0,-4 -1.1,-7.9 -3.2,-11.4 6,-5.1 9.4,-11.8 9.4,-19 0,-8.3 -4.6,-16 -12.2,-21.2 0.3,-0.7 0.4,-1.5 0.4,-2.4 0,-4.3 -3.7,-7.7 -8.4,-7.7 -3.3,0 -6.2,1.7 -7.5,4.2 -1.9,-0.3 -3.8,-0.4 -5.7,-0.4 -10,-0.1 -19.1,3.2 -25.4,9.2 l 0,0 z"
         id="path9"
         inkscape:connector-curvature="0"
         style="fill:#0f0d17" /></g><g
       id="g11"><path
         d="m 462.7,706.7 c -2.1,0 -4.1,-0.3 -6.2,-1 -4.8,-1.4 -8.7,-4.3 -10.7,-7.9 -1.3,-2.3 -1.6,-4.8 -0.9,-7.1 1.3,-4.3 5.8,-7 11.7,-7 2.1,0 4.1,0.3 6.2,1 8.3,2.5 13.3,8.9 11.6,15 -1.2,4.3 -5.7,7 -11.7,7 z m -6,-14.9 c -2.6,0 -3.9,0.9 -4,1.3 0,0.1 0,0.5 0.2,1 0.7,1.2 2.6,3 5.9,4 1.3,0.4 2.6,0.6 3.8,0.6 2.6,0 3.9,-0.9 4,-1.3 0,-0.1 0,-0.4 -0.2,-0.9 -0.6,-1.2 -2.6,-3 -5.9,-4.1 -1.3,-0.4 -2.6,-0.6 -3.8,-0.6 z"
         id="path13"
         inkscape:connector-curvature="0"
         style="fill:#423e52" /><path
         d="m 456.7,685.7 c 1.9,0 3.7,0.3 5.6,0.9 7.2,2.2 11.6,7.6 10.2,12.5 -1,3.4 -4.8,5.6 -9.8,5.6 -1.9,0 -3.7,-0.3 -5.6,-0.9 -7.2,-2.2 -11.7,-7.7 -10.2,-12.5 1.1,-3.4 4.9,-5.6 9.8,-5.6 m 6,14.9 c 3,0 5.5,-1.1 5.9,-2.7 0.7,-2.2 -2.2,-5.8 -7.5,-7.4 -1.5,-0.5 -3,-0.7 -4.4,-0.7 -3,0 -5.5,1.1 -5.9,2.7 -0.7,2.3 2.3,5.9 7.5,7.4 1.5,0.5 2.9,0.7 4.4,0.7 m -6,-18.9 c -6.8,0 -12.1,3.2 -13.7,8.4 -0.8,2.8 -0.5,5.8 1,8.6 2.2,4 6.5,7.3 11.9,8.9 2.2,0.7 4.5,1 6.7,1 6.8,0 12.1,-3.2 13.7,-8.4 0,0 0,0 0,-0.1 2,-7.1 -3.5,-14.6 -12.9,-17.4 -2.1,-0.6 -4.4,-1 -6.7,-1 l 0,0 z m -1.4,12.2 c 0.4,-0.1 0.8,-0.1 1.3,-0.1 1,0 2.1,0.2 3.2,0.5 2,0.6 3.3,1.5 4.1,2.2 -0.4,0.1 -0.8,0.1 -1.3,0.1 -1,0 -2.1,-0.2 -3.2,-0.5 -2,-0.6 -3.3,-1.5 -4.1,-2.2 l 0,0 z"
         id="path15"
         inkscape:connector-curvature="0"
         style="fill:#0f0d17" /></g><g
       id="g17"><path
         d="m 467.5,683.6 c -1.1,0 -2.1,-0.4 -2.8,-1.2 -0.7,-0.7 -1.2,-1.7 -1.2,-2.7 0,-1.1 0.4,-2.2 1.2,-2.9 0,0 0.1,-0.1 0.1,-0.1 0.5,-0.5 11.5,-11.9 16.3,-35 0.4,-1.9 2,-3.2 3.9,-3.2 0.3,0 0.6,0 0.8,0.1 2.2,0.5 3.6,2.6 3.1,4.8 -5.3,25.3 -17.2,37.8 -18.6,39.1 -0.7,0.6 -1.7,1.1 -2.8,1.1 z"
         id="path19"
         inkscape:connector-curvature="0"
         style="fill:#423e52" /><path
         d="m 485,640.4 c 0.1,0 0.3,0 0.4,0 1.1,0.2 1.8,1.3 1.6,2.4 -5.3,25.3 -17.5,37.6 -18,38.1 -0.4,0.4 -0.9,0.6 -1.5,0.6 -0.5,0 -1,-0.2 -1.4,-0.6 -0.8,-0.8 -0.8,-2 0,-2.8 C 466.3,678 478,666 483,642 c 0.2,-0.9 1,-1.6 2,-1.6 m 0,-4 c -2.9,0 -5.3,2 -5.9,4.8 -4.6,22.1 -15.2,33.4 -15.7,34 0,0 -0.1,0.1 -0.1,0.1 -1.2,1.2 -1.8,2.8 -1.8,4.4 0,1.5 0.6,3 1.7,4.1 1.1,1.1 2.6,1.8 4.3,1.8 1.6,0 3.2,-0.6 4.3,-1.8 1.4,-1.4 13.7,-14.3 19.1,-40.1 0.3,-1.6 0,-3.2 -0.9,-4.5 -0.9,-1.3 -2.2,-2.2 -3.8,-2.6 -0.4,-0.1 -0.8,-0.2 -1.2,-0.2 l 0,0 z"
         id="path21"
         inkscape:connector-curvature="0"
         style="fill:#0f0d17" /></g><g
       id="g23"><path
         d="m 479.8,690.3 c -2.5,0 -3.9,-0.4 -4.2,-0.5 -1,-0.3 -1.8,-1 -2.3,-2 -0.5,-1 -0.6,-2.1 -0.3,-3.1 0.5,-1.7 2.1,-2.8 3.9,-2.8 0.4,0 0.7,0 1.1,0.1 l 0,0 c 0,0 0.6,0.1 1.7,0.1 3.6,0 13.4,-1.5 26.4,-15.8 0.7,-0.8 1.8,-1.3 3,-1.3 1,0 2,0.4 2.8,1.1 1.6,1.5 1.7,4.1 0.2,5.7 -14.7,16.1 -26.6,18.5 -32.3,18.5 z"
         id="path25"
         inkscape:connector-curvature="0"
         style="fill:#423e52" /><path
         d="m 509,667 c 0.5,0 1,0.2 1.4,0.6 0.8,0.8 0.9,2 0.1,2.8 -14.1,15.5 -25.3,17.8 -30.8,17.8 -2.2,0 -3.4,-0.3 -3.5,-0.4 -1,-0.3 -1.7,-1.5 -1.3,-2.6 0.2,-0.9 1.1,-1.4 1.9,-1.4 0.2,0 0.4,0 0.6,0.1 0.1,0 0.8,0.2 2.3,0.2 4.3,0 14.6,-1.9 27.9,-16.5 0.3,-0.3 0.8,-0.6 1.4,-0.6 m 0,-4 c -1.7,0 -3.3,0.7 -4.5,2 -12.4,13.7 -21.5,15.2 -24.9,15.2 -0.8,0 -1.2,-0.1 -1.3,-0.1 -0.5,-0.1 -1,-0.2 -1.5,-0.2 -2.7,0 -5,1.7 -5.8,4.2 -1,3.1 0.8,6.5 3.9,7.5 0.4,0.1 2.1,0.6 4.8,0.6 6.1,0 18.6,-2.5 33.7,-19.2 2.2,-2.4 2.1,-6.2 -0.4,-8.5 -1,-0.9 -2.5,-1.5 -4,-1.5 l 0,0 z"
         id="path27"
         inkscape:connector-curvature="0"
         style="fill:#0f0d17" /></g><g
       id="g29"><path
         d="m 532,625.5 c -5.4,0 -10.3,-3.6 -12.2,-9.1 -1.2,-3.5 -1.1,-7.4 0.5,-10.6 1.4,-2.9 3.7,-5 6.6,-6 1.2,-0.4 2.5,-0.6 3.8,-0.6 5.4,0 10.3,3.6 12.2,9.1 1.2,3.5 1.1,7.3 -0.5,10.5 -1.4,2.9 -3.7,5.1 -6.6,6.1 -1.2,0.4 -2.5,0.6 -3.8,0.6 z m -1.3,-18.3 c -0.4,0 -0.8,0.1 -1.2,0.2 -0.8,0.3 -1.5,1 -2,1.9 -0.6,1.3 -0.7,2.9 -0.1,4.3 0.8,2.2 2.7,3.7 4.6,3.7 0.4,0 0.7,-0.1 1.2,-0.2 2.2,-0.8 3.1,-3.6 2.2,-6.3 -0.9,-2 -2.8,-3.6 -4.7,-3.6 z"
         id="path31"
         inkscape:connector-curvature="0"
         style="fill:#423e52" /><path
         d="m 530.7,601.2 c 4.5,0 8.7,3.1 10.3,7.7 2.1,5.9 -0.6,12.2 -5.9,14.1 -1,0.3 -2.1,0.5 -3.1,0.5 -4.5,0 -8.7,-3.1 -10.3,-7.7 -2.1,-5.9 0.5,-12.2 5.9,-14.1 0.9,-0.4 2,-0.5 3.1,-0.5 m 1.2,18.2 c 0.6,0 1.2,-0.1 1.8,-0.3 3.2,-1.2 4.8,-5.1 3.4,-8.8 -1,-3 -3.7,-5.1 -6.5,-5.1 -0.6,0 -1.2,0.1 -1.8,0.3 -3.2,1.1 -4.8,5.1 -3.4,8.8 1.1,3 3.8,5.1 6.5,5.1 m -1.2,-22.2 c -1.6,0 -3.1,0.3 -4.5,0.8 -3.4,1.2 -6.2,3.7 -7.8,7.1 -1.8,3.7 -2,8.1 -0.5,12.1 2.2,6.2 7.8,10.4 14.1,10.4 1.5,0 3.1,-0.3 4.5,-0.8 3.4,-1.2 6.2,-3.7 7.8,-7.1 1.8,-3.7 2,-8.1 0.5,-12.1 -2.2,-6.3 -7.9,-10.4 -14.1,-10.4 l 0,0 z m -0.6,12.1 c 0.3,-0.1 0.4,-0.1 0.6,-0.1 0.9,0 2.2,0.9 2.7,2.4 0.6,1.7 0,3.3 -0.9,3.7 -0.3,0.1 -0.4,0.1 -0.5,0.1 -0.9,0 -2.2,-0.9 -2.7,-2.4 -0.3,-1 -0.3,-2 0.1,-2.8 0,-0.3 0.3,-0.7 0.7,-0.9 l 0,0 z"
         id="path33"
         inkscape:connector-curvature="0"
         style="fill:#0f0d17" /></g><g
       id="g35"><path
         d="m 501.3,648.6 c -10.6,0 -19.3,-9.4 -19.3,-21 0,-2.3 0.3,-4.4 0.9,-6.4 -9.6,-4.8 -14.4,-14.7 -11.2,-23.1 2.5,-6.5 9.3,-10.7 17.4,-10.7 2.9,0 5.9,0.6 8.8,1.6 9.6,3.7 15.6,12.5 14.4,20.9 0,0.3 0.1,0.7 0.4,0.9 5,4.1 7.8,10.2 7.8,16.8 0.1,11.6 -8.5,21 -19.2,21 z m -12,-53.1 c -4.7,0 -8.6,2.2 -9.9,5.5 -1.9,5 2,11.1 8.7,13.7 0,0 0.1,0 0.1,0.1 2.8,1.3 4.1,4.6 3,7.4 -0.7,1.7 -1.1,3.5 -1.1,5.5 0,7.1 5,12.9 11.2,12.9 6.2,0 11.2,-5.8 11.3,-13 0,-4.5 -2,-8.6 -5.3,-11 -2.4,-1.8 -3.5,-4.8 -2.7,-7.6 0,-0.1 0,-0.1 0.1,-0.2 0.7,-4.7 -3.2,-10 -9.3,-12.3 -2.1,-0.6 -4.1,-1 -6.1,-1 z"
         id="path37"
         inkscape:connector-curvature="0"
         style="fill:#423e52" /><path
         d="m 489.2,589.4 c 2.7,0 5.5,0.5 8.1,1.5 8.8,3.4 14.2,11.3 13.1,18.8 -0.1,1 0.3,2.1 1.1,2.7 4.2,3.5 7,9 7,15.2 0,10.5 -7.7,19 -17.3,19 -9.5,0 -17.3,-8.5 -17.3,-19 0,-2.1 0.3,-4.1 0.9,-5.9 0.2,-0.9 -0.2,-1.9 -1,-2.3 -8.5,-4.3 -13.1,-13.1 -10.2,-20.6 2.2,-5.7 8.3,-9.4 15.6,-9.4 m 12.1,53.2 c 7.3,0 13.2,-6.7 13.3,-14.9 0,-5.3 -2.4,-9.9 -6.2,-12.6 -1.7,-1.2 -2.6,-3.4 -2,-5.4 0.1,-0.1 0.1,-0.1 0.1,-0.1 1,-5.7 -3.4,-12 -10.5,-14.8 -2.2,-0.9 -4.5,-1.3 -6.7,-1.3 -5.6,0 -10.2,2.7 -11.7,6.8 -2.3,6 2.1,13.3 9.8,16.3 1.9,0.9 2.7,3 2,4.9 -0.8,1.9 -1.2,4 -1.2,6.2 -0.1,8.2 5.9,14.9 13.1,14.9 m -12.1,-57.2 c -8.9,0 -16.5,4.7 -19.3,12 -3.4,8.9 1.2,19.3 10.7,24.8 -0.4,1.7 -0.6,3.5 -0.6,5.4 0,12.7 9.5,23 21.3,23 11.8,0 21.3,-10.3 21.3,-23 0,-7 -2.9,-13.6 -8.1,-18 1,-9.2 -5.6,-18.6 -15.7,-22.5 0,0 0,0 0,0 -3.2,-1.2 -6.5,-1.7 -9.6,-1.7 l 0,0 z m 12.1,53.2 c -5.1,0 -9.2,-4.9 -9.2,-10.9 0,-1.7 0.3,-3.2 0.9,-4.7 0,0 0,0 0,-0.1 1.6,-3.8 -0.2,-8.2 -4,-10 -0.1,0 -0.2,-0.1 -0.2,-0.1 -5.6,-2.2 -9,-7.3 -7.5,-11.1 1,-2.6 4.1,-4.2 8,-4.2 1.8,0 3.5,0.3 5.2,1 5.1,1.9 8.6,6.3 8.1,10 0,0 0,0 0,0.1 -1,3.6 0.4,7.5 3.5,9.7 2.8,2 4.5,5.5 4.5,9.4 -0.1,6 -4.2,10.9 -9.3,10.9 l 0,0 z"
         id="path39"
         inkscape:connector-curvature="0"
         style="fill:#0f0d17" /></g><g
       id="g41"><path
         d="m 529,662.3 c -7,0 -12.5,-7.1 -12.5,-16.1 0,-9 5.5,-16.1 12.5,-16.1 7,0 12.5,7.1 12.5,16.1 0,9 -5.5,16.1 -12.5,16.1 z m 0,-24.1 c -2.1,0 -4.5,3.4 -4.5,8.1 0,4.7 2.4,8.1 4.5,8.1 2.1,0 4.5,-3.4 4.5,-8.1 0,-4.7 -2.4,-8.1 -4.5,-8.1 z"
         id="path43"
         inkscape:connector-curvature="0"
         style="fill:#423e52" /><path
         d="m 529,632.1 c 5.9,0 10.5,6.2 10.5,14.1 0,7.9 -4.6,14.1 -10.5,14.1 -5.9,0 -10.5,-6.2 -10.5,-14.1 0,-7.9 4.6,-14.1 10.5,-14.1 m 0,24.2 c 3.5,0 6.5,-4.6 6.5,-10.1 0,-5.5 -3,-10.1 -6.5,-10.1 -3.5,0 -6.5,4.6 -6.5,10.1 0,5.5 3,10.1 6.5,10.1 m 0,-28.2 c -8.1,0 -14.5,8 -14.5,18.1 0,10.1 6.4,18.1 14.5,18.1 8.1,0 14.5,-8 14.5,-18.1 0,-10.1 -6.3,-18.1 -14.5,-18.1 l 0,0 z m 0,24.2 c -0.6,-0.1 -2.5,-2.3 -2.5,-6.1 0,-3.8 1.8,-6 2.5,-6.1 0.6,0.1 2.5,2.3 2.5,6.1 0,3.8 -1.9,6 -2.5,6.1 l 0,0 z"
         id="path45"
         inkscape:connector-curvature="0"
         style="fill:#0f0d17" /></g><g
       id="g47"><path
         d="m 435.8,634.9 c -3,0 -5.4,-2.3 -5.4,-5.1 0,-2.8 2.4,-5.1 5.4,-5.1 3,0 5.4,2.3 5.4,5.1 0,2.8 -2.4,5.1 -5.4,5.1 z"
         id="path49"
         inkscape:connector-curvature="0"
         style="fill:#423e52" /><path
         d="m 435.8,626.6 c 1.9,0 3.4,1.4 3.4,3.1 0,1.7 -1.5,3.1 -3.4,3.1 -1.9,0 -3.4,-1.4 -3.4,-3.1 0.1,-1.7 1.6,-3.1 3.4,-3.1 m 0,-4 c -4.1,0 -7.4,3.2 -7.4,7.1 0,3.9 3.3,7.1 7.4,7.1 4.1,0 7.4,-3.2 7.4,-7.1 0,-3.9 -3.3,-7.1 -7.4,-7.1 l 0,0 z"
         id="path51"
         inkscape:connector-curvature="0"
         style="fill:#0f0d17" /></g><g
       id="g53"><path
         d="m 410.4,614.8 c -0.2,0 -0.6,0 -1.1,-0.1 -1.2,-0.3 -2.3,-1 -3,-2.1 -1,-1.5 -1.3,-3.6 -0.8,-5.8 0.7,-3.4 3.1,-5.7 5.8,-5.7 0.2,0 0.6,0 1.1,0.1 1.2,0.3 2.3,1 3,2.1 1,1.5 1.3,3.6 0.8,5.7 -0.7,3.5 -3,5.8 -5.8,5.8 z"
         id="path55"
         inkscape:connector-curvature="0"
         style="fill:#423e52" /><path
         d="m 411.3,603.1 c 0.2,0 0.4,0 0.6,0.1 2,0.4 3,2.7 2.4,5.5 -0.5,2.4 -2,4.1 -3.8,4.1 -0.2,0 -0.4,0 -0.6,-0.1 -2,-0.4 -3,-2.7 -2.4,-5.5 0.5,-2.4 2,-4.1 3.8,-4.1 m 0,-4 c -3.7,0 -6.8,2.9 -7.7,7.3 -0.6,2.7 -0.2,5.3 1.1,7.3 1,1.5 2.5,2.6 4.2,3 0.7,0.2 1.3,0.2 1.6,0.2 3.7,0 6.8,-2.9 7.7,-7.3 0.6,-2.7 0.2,-5.3 -1.1,-7.3 -1,-1.5 -2.5,-2.6 -4.2,-3 -0.7,-0.2 -1.3,-0.2 -1.6,-0.2 l 0,0 z"
         id="path57"
         inkscape:connector-curvature="0"
         style="fill:#0f0d17" /></g><g
       id="g59"><path
         d="m 436.6,622.5 c -2.1,0 -3.9,-1.6 -4,-3.7 0,0 0,-0.1 0,-0.1 -0.1,-3.2 0,-11.7 3.6,-23.1 0.5,-1.7 2.1,-2.8 3.8,-2.8 0.4,0 0.9,0.1 1.3,0.2 1,0.3 1.9,1 2.4,2 0.5,1 0.6,2.1 0.2,3.1 -3.6,11.2 -3.3,19.2 -3.2,20.1 0.2,2.2 -1.4,4.1 -3.6,4.3 -0.1,0 -0.1,0 -0.2,0 l -0.3,0 z"
         id="path61"
         inkscape:connector-curvature="0"
         style="fill:#423e52" /><path
         d="m 440,594.7 c 0.2,0 0.4,0 0.6,0.1 1.1,0.3 1.7,1.5 1.3,2.6 -4,12.3 -3.3,20.9 -3.3,20.9 0.1,1.2 -0.8,2.1 -1.9,2.2 -0.1,0 -0.1,0 -0.2,0 -1,0 -2,-0.8 -2,-1.9 0,-0.4 -0.6,-9.5 3.5,-22.5 0.4,-0.8 1.2,-1.4 2,-1.4 m 0,-4 c -2.6,0 -5,1.7 -5.8,4.2 -3.7,11.7 -3.8,20.5 -3.7,23.7 l 0,0.1 c 0,0 0,0.1 0,0.1 0.2,3.2 2.8,5.6 6,5.6 l 0.2,0 c 0.1,0 0.3,0 0.4,0 3.3,-0.3 5.7,-3.2 5.4,-6.5 -0.1,-1 -0.3,-8.6 3.1,-19.4 0.5,-1.5 0.4,-3.1 -0.4,-4.6 -0.7,-1.4 -2,-2.5 -3.5,-3 -0.4,-0.1 -1,-0.2 -1.7,-0.2 l 0,0 z"
         id="path63"
         inkscape:connector-curvature="0"
         style="fill:#0f0d17" /></g><g
       id="g65"><path
         d="m 426.5,633.8 c -1.6,0 -10.1,-0.2 -15.6,-3.3 -1.9,-1.1 -2.6,-3.5 -1.5,-5.5 0.8,-1.3 2.1,-2.1 3.5,-2.1 0.7,0 1.4,0.2 2,0.6 2.9,1.6 8.5,2.2 11.3,2.2 0,0 0.3,0 0.4,0 2.2,0 3.9,1.7 4.1,3.9 0,0 0,0.1 0,0.1 0,2.2 -1.8,4 -4,4 l -0.2,0 z"
         id="path67"
         inkscape:connector-curvature="0"
         style="fill:#423e52" /><path
         d="m 412.9,624.9 c 0.3,0 0.7,0.1 1,0.3 3.6,2 9.8,2.5 12.3,2.5 0.1,0 0.3,0 0.4,0 1.1,0 2,0.9 2,2 0,1.1 -0.9,2 -2,2 0,0 -0.1,0 -0.1,0 -1.2,0 -9.5,-0.1 -14.6,-3 -1,-0.6 -1.3,-1.8 -0.8,-2.8 0.4,-0.6 1.1,-1 1.8,-1 m 13.7,2.8 0,0 m 0,0 0,0 c 0,0 0,0 0,0 m -13.7,-6.8 c 0,0 0,0 0,0 -2.1,0 -4.1,1.2 -5.2,3 0,0.1 -0.1,0.1 -0.1,0.2 -1.5,2.9 -0.5,6.5 2.3,8.1 0,0 0,0 0.1,0 6,3.4 14.9,3.5 16.6,3.5 l 0.1,0 c 3.3,0 6,-2.7 6,-6 0,-0.1 0,-0.1 0,-0.2 -0.2,-3.3 -2.8,-5.8 -6,-5.8 0,0 0,0 0,0 l 0,0 0,0 c -0.1,0 -0.1,0 -0.2,0 -0.1,0 -0.1,0 -0.2,0 -2.8,0 -7.9,-0.6 -10.4,-2 -0.9,-0.5 -2,-0.8 -3,-0.8 l 0,0 0,0 z"
         id="path69"
         inkscape:connector-curvature="0"
         style="fill:#0f0d17" /></g><g
       id="g71"><path
         d="m 451.8,634.5 c -3.6,0 -6.5,-0.6 -7.3,-0.8 -1.1,-0.2 -2,-0.9 -2.5,-1.8 -0.6,-0.9 -0.7,-2 -0.5,-3.1 0.4,-1.8 2,-3.1 3.9,-3.1 0.3,0 0.6,0 1,0.1 0,0 0,0 0,0 1.8,0.4 3.7,0.6 5.4,0.6 1.7,0 3.2,-0.2 4.4,-0.5 0.4,-0.1 0.7,-0.2 1.1,-0.2 1.8,0 3.4,1.2 3.9,3 0.3,1 0.1,2.1 -0.4,3.1 -0.5,0.9 -1.4,1.6 -2.4,1.9 -2.5,0.6 -4.9,0.7 -6.6,0.8 0,0 0,0 0,0 z"
         id="path73"
         inkscape:connector-curvature="0"
         style="fill:#423e52" /><path
         d="m 457.2,627.7 c 0.9,0 1.7,0.6 2,1.5 0.3,1 -0.3,2.2 -1.4,2.5 -2,0.6 -4.2,0.8 -6,0.8 -3.7,0 -6.7,-0.7 -6.9,-0.8 -1.1,-0.2 -1.8,-1.3 -1.5,-2.4 0.2,-0.9 1,-1.6 1.9,-1.6 0.2,0 0.3,0 0.5,0.1 0,0 2.7,0.6 5.9,0.6 1.6,0 3.3,-0.2 5,-0.6 0.2,-0.1 0.4,-0.1 0.5,-0.1 m 0,-4 c -0.5,0 -1.1,0.1 -1.6,0.2 -1.1,0.3 -2.4,0.5 -3.9,0.5 -1.6,0 -3.4,-0.2 -5,-0.5 0,0 0,0 0,0 -0.4,-0.1 -0.9,-0.2 -1.4,-0.2 -2.8,0 -5.2,2 -5.8,4.7 -0.4,1.5 -0.1,3.2 0.7,4.6 0.8,1.4 2.2,2.3 3.8,2.7 1.2,0.3 4.3,0.9 7.8,0.9 0,0 0.1,0 0.1,0 1.7,-0.1 4.4,-0.2 7,-1 1.5,-0.4 2.8,-1.4 3.6,-2.8 0.8,-1.4 1,-3.1 0.6,-4.6 -0.7,-2.7 -3.1,-4.5 -5.9,-4.5 l 0,0 z"
         id="path75"
         inkscape:connector-curvature="0"
         style="fill:#0f0d17" /></g><g
       id="g77"><path
         d="m 442.7,673.1 c -1.3,0 -2.4,-0.6 -3.2,-1.6 -8,-10.4 -8.4,-24.9 -8.4,-29.1 0,-2.3 1.8,-4.1 4,-4.1 0.1,0 0.1,0 0.2,0 1.1,0 2.1,0.5 2.8,1.2 0.7,0.8 1.1,1.9 1.1,2.9 0,1.3 -0.1,15.2 6.7,24.1 0.6,0.8 0.9,1.9 0.8,3 -0.1,1.1 -0.7,2 -1.5,2.7 -0.7,0.6 -1.6,0.9 -2.5,0.9 z"
         id="path79"
         inkscape:connector-curvature="0"
         style="fill:#423e52" /><path
         d="m 435.1,640.4 c 0,0 0.1,0 0.1,0 1.2,0 2,1 2,2.1 0,0.1 -0.5,15.5 7.1,25.4 0.7,0.9 0.5,2.2 -0.3,2.8 -0.3,0.3 -0.8,0.4 -1.2,0.4 -0.6,0 -1.2,-0.3 -1.6,-0.8 -8.5,-11 -8,-27.3 -8,-28 -0.1,-1.1 0.8,-1.9 1.9,-1.9 m 0,-4 c -3.4,0 -6,2.6 -6,6 l 0,0.1 c -0.1,4.4 0.4,19.5 8.8,30.3 1.2,1.5 2.9,2.4 4.8,2.4 1.4,0 2.7,-0.5 3.7,-1.3 1.2,-1 2,-2.4 2.2,-4 0.2,-1.6 -0.2,-3.2 -1.2,-4.4 -6.4,-8.5 -6.3,-22 -6.3,-22.8 0.1,-1.6 -0.5,-3.2 -1.6,-4.4 -1.1,-1.2 -2.6,-1.8 -4.2,-1.9 -0.1,0 -0.2,0 -0.2,0 l 0,0 z"
         id="path81"
         inkscape:connector-curvature="0"
         style="fill:#0f0d17" /></g></g></svg>