<?xml version="1.0" encoding="UTF-8" ?>
<!DOCTYPE svg PUBLIC "-//W3C//DTD SVG 1.1//EN" "http://www.w3.org/Graphics/SVG/1.1/DTD/svg11.dtd">
<svg width="224pt" height="540pt" viewBox="0 0 224 540" version="1.1" xmlns="http://www.w3.org/2000/svg">
<g id="#e96428ff">
<path fill="#e96428" opacity="1.00" d=" M 85.97 0.00 L 89.47 0.00 C 97.75 0.72 104.20 6.63 109.34 12.65 C 115.86 20.18 120.98 28.84 127.92 36.01 C 134.07 42.57 140.13 49.75 142.64 58.57 C 145.37 68.47 144.75 78.87 144.82 89.03 C 144.64 111.69 144.79 134.35 144.72 157.01 C 144.74 159.67 144.51 162.35 144.96 164.99 C 145.75 167.67 147.26 170.05 148.48 172.55 C 162.60 200.77 176.69 229.01 190.84 257.23 C 192.48 260.22 192.21 263.72 192.21 267.02 C 192.09 281.38 192.31 295.74 192.12 310.10 C 192.08 315.16 187.02 319.28 182.06 318.51 C 179.12 318.24 176.77 316.24 175.18 313.88 C 165.06 299.64 154.90 285.43 144.74 271.22 C 144.73 320.49 144.74 369.75 144.73 419.02 C 144.56 423.63 147.12 427.66 149.65 431.30 C 155.07 438.78 161.67 445.33 168.38 451.64 C 182.85 465.02 198.45 477.14 214.64 488.35 C 218.76 491.06 223.94 493.86 224.00 499.54 L 224.00 530.31 C 224.08 534.95 220.84 539.06 216.31 540.00 L 213.73 540.00 C 199.23 535.49 185.58 528.69 171.96 522.07 C 144.71 508.57 118.33 493.42 91.48 479.18 C 82.50 492.63 73.52 506.09 64.56 519.56 C 62.92 522.17 60.17 524.17 56.99 524.20 C 52.01 524.53 47.46 520.08 47.67 515.10 C 47.58 499.74 47.68 484.38 47.63 469.02 C 47.43 465.09 49.60 461.69 51.28 458.31 C 55.08 450.79 58.81 443.23 62.60 435.71 C 58.25 425.71 53.60 415.77 50.95 405.15 C 46.94 389.14 44.75 372.72 43.38 356.28 C 34.45 368.74 25.58 381.26 16.63 393.71 C 13.97 397.82 7.86 398.96 3.94 395.98 C 1.52 394.41 0.55 391.53 0.00 388.84 L 0.00 342.36 C 0.23 339.78 0.95 337.30 2.17 335.03 C 6.06 327.41 9.84 319.75 13.67 312.11 C 9.27 285.68 4.85 259.25 0.46 232.83 C -0.81 225.24 3.34 217.71 9.25 213.18 C 18.29 206.16 30.51 204.43 41.56 206.51 C 42.76 161.65 44.90 116.81 47.60 72.01 C 47.80 57.92 48.77 43.62 53.26 30.17 C 56.05 21.90 60.31 13.84 66.98 8.05 C 72.22 3.37 79.01 0.69 85.97 0.00 M 83.08 19.05 C 77.16 21.67 73.71 27.65 71.40 33.40 C 66.57 46.01 65.81 59.68 65.57 73.04 C 62.73 119.99 60.55 166.99 59.37 214.01 C 59.37 215.40 59.84 216.63 60.78 217.72 C 67.38 204.89 73.67 191.90 80.21 179.04 C 82.32 174.45 88.55 172.55 92.84 175.25 C 96.95 177.54 98.51 183.19 96.21 187.28 C 70.36 239.10 44.34 290.85 18.57 342.70 C 17.64 348.55 18.46 354.60 18.20 360.53 C 38.67 331.89 59.15 303.26 79.57 274.58 C 81.56 271.29 84.97 268.42 89.07 268.95 C 95.56 269.22 99.67 277.48 95.82 282.78 C 83.94 299.61 71.88 316.32 59.93 333.10 C 61.02 354.98 62.78 376.94 67.80 398.31 C 69.15 403.88 70.97 409.33 73.10 414.66 C 75.58 409.89 77.83 405.00 80.36 400.26 C 82.35 396.19 87.66 394.31 91.78 396.16 C 96.42 397.97 98.71 403.97 96.35 408.39 C 86.84 427.53 77.28 446.65 67.67 465.74 C 63.98 471.64 66.28 478.89 65.65 485.42 C 70.75 477.90 75.69 470.28 80.80 462.77 C 82.88 459.51 87.19 457.90 90.87 459.15 C 94.44 460.32 97.72 462.21 101.07 463.89 C 135.78 482.28 169.70 502.35 205.82 517.95 C 205.83 513.36 205.82 508.77 205.83 504.18 C 191.74 494.47 177.98 484.22 165.02 473.03 C 153.47 462.90 142.12 452.21 133.66 439.28 C 129.78 433.22 126.53 426.34 126.73 418.98 C 126.76 304.63 126.70 190.28 126.77 75.93 C 126.93 67.86 125.10 59.51 119.48 53.44 C 119.32 57.95 119.64 62.48 119.33 66.99 C 119.02 71.94 113.87 75.76 109.04 74.85 C 104.83 74.27 101.41 70.35 101.47 66.09 C 101.38 54.64 101.45 43.18 101.45 31.72 C 98.10 27.36 94.84 22.82 90.61 19.26 C 88.56 17.20 85.44 18.13 83.08 19.05 M 144.75 205.39 C 144.71 216.26 144.76 227.12 144.72 237.99 C 144.58 239.46 145.06 240.86 145.98 242.01 C 155.41 255.13 164.74 268.31 174.17 281.43 C 174.15 276.28 174.24 271.12 174.18 265.97 C 174.23 264.53 173.71 263.18 173.08 261.93 C 163.57 243.12 154.24 224.22 144.75 205.39 M 26.30 224.49 C 23.13 225.44 19.54 226.93 18.14 230.17 C 18.55 233.19 21.74 234.67 24.24 235.76 C 30.93 238.17 38.96 237.91 45.03 233.97 C 46.24 233.00 47.94 231.72 47.60 229.96 C 46.67 227.78 44.51 226.49 42.45 225.53 C 37.40 223.33 31.60 223.14 26.30 224.49 M 22.21 253.94 C 23.94 264.19 25.63 274.44 27.36 284.70 C 32.50 274.54 37.50 264.32 42.66 254.18 C 35.92 255.68 28.91 255.59 22.21 253.94 Z" />
</g>
<g id="#0f0d17ff">
<path fill="#0f0d17" opacity="1.00" d=" M 83.08 19.05 C 85.44 18.13 88.56 17.20 90.61 19.26 C 94.84 22.82 98.10 27.36 101.45 31.72 C 101.45 43.18 101.38 54.64 101.47 66.09 C 101.41 70.35 104.83 74.27 109.04 74.85 C 113.87 75.76 119.02 71.94 119.33 66.99 C 119.64 62.48 119.32 57.95 119.48 53.44 C 125.10 59.51 126.93 67.86 126.77 75.93 C 126.70 190.28 126.76 304.63 126.73 418.98 C 126.53 426.34 129.78 433.22 133.66 439.28 C 142.12 452.21 153.47 462.90 165.02 473.03 C 177.98 484.22 191.74 494.47 205.83 504.18 C 205.82 508.77 205.83 513.36 205.82 517.95 C 169.70 502.35 135.78 482.28 101.07 463.89 C 97.72 462.21 94.44 460.32 90.87 459.15 C 87.19 457.90 82.88 459.51 80.80 462.77 C 75.69 470.28 70.75 477.90 65.65 485.42 C 66.28 478.89 63.98 471.64 67.67 465.74 C 77.28 446.65 86.84 427.53 96.35 408.39 C 98.71 403.97 96.42 397.97 91.78 396.16 C 87.66 394.31 82.35 396.19 80.36 400.26 C 77.83 405.00 75.58 409.89 73.10 414.66 C 70.97 409.33 69.15 403.88 67.80 398.31 C 62.78 376.94 61.02 354.98 59.93 333.10 C 71.88 316.32 83.94 299.61 95.82 282.78 C 99.67 277.48 95.56 269.22 89.07 268.95 C 84.97 268.42 81.56 271.29 79.57 274.58 C 59.15 303.26 38.67 331.89 18.20 360.53 C 18.46 354.60 17.64 348.55 18.57 342.70 C 44.34 290.85 70.36 239.10 96.21 187.28 C 98.51 183.19 96.95 177.54 92.84 175.25 C 88.55 172.55 82.32 174.45 80.21 179.04 C 73.67 191.90 67.38 204.89 60.78 217.72 C 59.84 216.63 59.37 215.40 59.37 214.01 C 60.55 166.99 62.73 119.99 65.57 73.04 C 65.81 59.68 66.57 46.01 71.40 33.40 C 73.71 27.65 77.16 21.67 83.08 19.05 Z" />
<path fill="#0f0d17" opacity="1.00" d=" M 144.75 205.39 C 154.24 224.22 163.57 243.12 173.08 261.93 C 173.71 263.18 174.23 264.53 174.18 265.97 C 174.24 271.12 174.15 276.28 174.17 281.43 C 164.74 268.31 155.41 255.13 145.98 242.01 C 145.06 240.86 144.58 239.46 144.72 237.99 C 144.76 227.12 144.71 216.26 144.75 205.39 Z" />
<path fill="#0f0d17" opacity="1.00" d=" M 26.30 224.49 C 31.60 223.14 37.40 223.33 42.45 225.53 C 44.51 226.49 46.67 227.78 47.60 229.96 C 47.94 231.72 46.24 233.00 45.03 233.97 C 38.96 237.91 30.93 238.17 24.24 235.76 C 21.74 234.67 18.55 233.19 18.14 230.17 C 19.54 226.93 23.13 225.44 26.30 224.49 Z" />
<path fill="#0f0d17" opacity="1.00" d=" M 22.21 253.94 C 28.91 255.59 35.92 255.68 42.66 254.18 C 37.50 264.32 32.50 274.54 27.36 284.70 C 25.63 274.44 23.94 264.19 22.21 253.94 Z" />
</g>
</svg>
