<?xml version="1.0" encoding="utf-8"?>
<!-- Generator: Adobe Illustrator 18.1.1, SVG Export Plug-In . SVG Version: 6.00 Build 0)  -->
<svg version="1.1" id="Layer_1" xmlns="http://www.w3.org/2000/svg" xmlns:xlink="http://www.w3.org/1999/xlink" x="0px" y="0px"
	 viewBox="0 0 1024 1024" style="enable-background:new 0 0 1024 1024;" xml:space="preserve">
<g>
	<path style="fill:#F9AD96;" d="M724.7,254.3c0-8.3-0.5-16.1-4.3-23.7c-5.1-10.3-14.2-18.6-24.6-23.2c-12.8-5.8-26.4-4.9-40-4.9
		c-11.7,0-23.8-0.9-35.4,0.3c-21.6,2.2-42.4,18.2-45.3,40.6c-0.8,6.3-0.4,12.8-0.3,19.1c0.1,6.8,1.7,13.3,5.4,19.1
		c8.1,12.6,22.4,19.7,35.9,24.9c4,1.6,8.1,3,12.1,4.7c6.2,2.6,12.6,5.7,19,7.7c0,6.9,0,13.9,0,20.8c-8.5-0.1-21.4-1.9-22.6,9.9
		c-0.9,9.1-0.5,20.8,11.3,21.1c9.7,0.2,19.4,0,29.2,0c0.2,0,0.4,0,0.6-0.1c5.8-0.7,9.7-4.9,9.9-10.9c0.2-4.4,0.9-10.4-1.2-14.4
		c-3.7-7-14.2-6.2-22.1-5.8c0-6.8,0-13.7,0-20.5c2.8-0.7,5.6-2.5,8-3.5c5.7-2.3,11.4-4.7,17.1-7c0.1,0,0.1-0.1,0.2-0.1
		c0.1,0,0.3-0.1,0.4-0.1c11.1-5.3,22.3-9.6,31.9-17.7c5.8-4.8,10.7-10.8,13.2-18C725.1,266.7,724.7,260.4,724.7,254.3z M636.3,365.8
		c-4.6-0.2-6.6-2.7-6.7-7.3c-0.1-3.4-1-9.4,1.6-12.1c2.1-2.2,6-1.6,8.8-1.6c0.4,0,0.8,0,1.2,0c-0.7,3.4-1.4,6.8-1.4,10.3
		c0,3.6,0.8,7.2,1.5,10.8C639.6,365.9,638,365.9,636.3,365.8z M663.1,344.8c4.5,0.1,7.2,2,7.5,6.9c0.2,4.9,1.3,13.5-5.5,14.1
		c-6.3,0-12.6,0-18.9,0c0-0.2,0-0.4,0-0.7c-0.6-3.3-1.4-6.7-1.4-10.1c0-3.4,0.8-6.8,1.4-10.1c0-0.1,0-0.1,0-0.2
		C651.8,344.7,657.5,344.6,663.1,344.8z M719.7,263.7c-0.3,8.7-5.1,15.9-11.3,21.6c-9.6,8.8-21.3,13.1-32.8,18.6
		c-8.6,3.5-17.1,7.2-25.8,10.5c-0.7-0.3-1.4-0.6-2.1-0.8c-3-1.2-6.1-2.5-9.1-3.7c-3.6-1.5-8.2-3.3-11.1-4.5
		c-10.7-4.4-21.6-7.9-31.2-14.7c-5.9-4.2-11.3-9.5-14.2-16.3c-2.5-5.8-2.3-11.8-2.3-17.9c0-7.8-0.2-15.4,3.1-22.7
		c4.7-10.4,13.8-18.7,24.4-22.9c11.5-4.6,24.1-3.6,36.2-3.6c9.8,0,19.7-0.1,29.5,0c22.7,0.3,46.3,16.5,46.8,40.8
		C719.8,253.4,719.9,258.6,719.7,263.7z"/>
	<path style="fill:#F9AD96;" d="M675.7,236.1c-23.9-0.5-49.4,4.3-72-5.7c-2.9-1.3-5.5,3-2.5,4.3c23.7,10.5,49.5,5.9,74.6,6.4
		C678.9,241.2,678.9,236.2,675.7,236.1z"/>
	<path style="fill:#F9AD96;" d="M696.1,230.4c-2.5,1.5-5.1,2.8-8,3.7c-3.1,0.9-1.8,5.8,1.3,4.8c3.2-1,6.3-2.4,9.2-4.2
		C701.4,233.1,698.9,228.8,696.1,230.4z"/>
</g>
</svg>
